<?xml version="1.0" encoding="UTF-8"?>
<svg id="_레이어_2" data-name="레이어 2" xmlns="http://www.w3.org/2000/svg" viewBox="0 0 295.2 66.91">
  <defs>
    <style>
      .cls-1 {
        fill: #002968;
      }

      .cls-2 {
        fill: #0086d1;
      }
    </style>
  </defs>
  <g id="Layer_1" data-name="Layer 1">
    <g>
      <g>
        <path class="cls-1" d="M8.74,15.7c-.35.1-2.65,3.17-1.78,6.34.95,3.48,4.86,4.97,4.86,4.97,0,0,2.6-3.34,1.59-7.06-.86-3.17-4.2-4.38-4.67-4.25Z"/>
        <path class="cls-1" d="M63.85,45.8c.19-.31-.21-4.12-3-5.86-3.06-1.91-6.94-.35-6.94-.35,0,0,.36,4.22,3.62,6.26,2.79,1.75,6.06.37,6.31-.04Z"/>
        <path class="cls-1" d="M33.7,23.41c.05.36,2.78,3.06,6.04,2.64,3.58-.47,5.59-4.14,5.59-4.14,0,0-2.96-3.03-6.78-2.54-3.26.42-4.91,3.56-4.85,4.04Z"/>
        <path class="cls-1" d="M56.41,29.02c.35.11,3.93-1.27,4.9-4.41,1.06-3.45-1.45-6.8-1.45-6.8,0,0-3.99,1.44-5.12,5.12-.96,3.14,1.21,5.95,1.67,6.09Z"/>
        <path class="cls-2" d="M25.77,11.39c.35-.09,2.73-3.1,1.95-6.29-.85-3.51-4.72-5.1-4.72-5.1,0,0-2.69,3.27-1.78,7.01.78,3.2,4.08,4.49,4.55,4.38Z"/>
        <path class="cls-1" d="M10.25,36.3c-.25-.26-4.06-.79-6.42,1.5-2.59,2.51-2.01,6.66-2.01,6.66,0,0,4.18.66,6.95-2.01,2.36-2.29,1.81-5.79,1.48-6.14Z"/>
        <path class="cls-1" d="M18.72,44.23c-.36.05-3.02,2.82-2.56,6.07.51,3.57,4.21,5.54,4.21,5.54,0,0,3-3,2.46-6.8-.46-3.25-3.62-4.87-4.1-4.8Z"/>
        <path class="cls-2" d="M45.81,5.5c-.3-.2-4.13.08-5.96,2.81-2.01,3-.57,6.93-.57,6.93,0,0,4.23-.23,6.37-3.43,1.83-2.73.56-6.04.15-6.31Z"/>
        <path class="cls-2" d="M10.49,33.02c.16-.33-.61-4.08-3.55-5.55-3.23-1.61-6.94.33-6.94.33,0,0,.77,4.16,4.21,5.88,2.94,1.47,6.07-.23,6.28-.66Z"/>
        <path class="cls-1" d="M16.72,37.45c.36,0,3.32-2.45,3.24-5.74-.09-3.61-3.54-5.98-3.54-5.98,0,0-3.32,2.63-3.22,6.48.08,3.29,3.04,5.25,3.53,5.24Z"/>
        <path class="cls-1" d="M31.99,22.76c.36-.06,2.89-2.96,2.27-6.18-.67-3.54-4.46-5.34-4.46-5.34,0,0-2.85,3.14-2.13,6.91.61,3.23,3.85,4.7,4.32,4.61Z"/>
        <path class="cls-1" d="M28.36,23.53c.08-.35-1.53-3.84-4.73-4.59-3.51-.83-6.69,1.91-6.69,1.91,0,0,1.71,3.88,5.45,4.76,3.2.75,5.85-1.61,5.96-2.08Z"/>
        <path class="cls-1" d="M23.28,16.2c.17-.32-.54-4.09-3.46-5.61-3.2-1.66-6.95.21-6.95.21,0,0,.7,4.18,4.12,5.95,2.92,1.51,6.07-.12,6.29-.55Z"/>
        <path class="cls-1" d="M44.04,18.08c.12.34,3.38,2.38,6.47,1.25,3.39-1.24,4.55-5.26,4.55-5.26,0,0-3.55-2.31-7.17-1-3.09,1.13-4.02,4.55-3.85,5Z"/>
        <path class="cls-2" d="M9.59,53.71c.35.1,3.9-1.35,4.8-4.51.99-3.47-1.6-6.77-1.6-6.77,0,0-3.95,1.52-5,5.22-.9,3.16,1.34,5.92,1.8,6.05Z"/>
        <path class="cls-1" d="M36.41,28.31c.24-.27,4-1.03,6.5,1.11,2.74,2.35,2.4,6.52,2.4,6.52,0,0-4.14.91-7.06-1.59-2.49-2.14-2.16-5.67-1.84-6.04Z"/>
        <path class="cls-2" d="M53.68,33.74c0,.36,2.46,3.32,5.74,3.24,3.61-.09,5.98-3.55,5.98-3.55,0,0-2.64-3.32-6.48-3.22-3.29.08-5.25,3.04-5.24,3.53Z"/>
        <path class="cls-2" d="M48.96,42.6c-.33.16-2.03,3.6-.6,6.56,1.57,3.25,5.69,4,5.69,4,0,0,1.95-3.76.28-7.23-1.43-2.96-4.93-3.55-5.37-3.34Z"/>
        <path class="cls-1" d="M49.17,33.93c.36.07,3.77-1.69,4.39-4.91.68-3.55-2.19-6.6-2.19-6.6,0,0-3.81,1.86-4.53,5.64-.62,3.23,1.85,5.78,2.33,5.87Z"/>
        <path class="cls-1" d="M41.34,55.56c.36.07,3.77-1.69,4.39-4.92.68-3.54-2.19-6.6-2.19-6.6,0,0-3.8,1.86-4.53,5.64-.62,3.23,1.85,5.78,2.33,5.87Z"/>
        <path class="cls-1" d="M34.01,11.9c.36.03,3.56-2.1,3.82-5.37.28-3.59-2.9-6.32-2.9-6.32,0,0-3.57,2.27-3.87,6.11-.26,3.27,2.48,5.54,2.96,5.58Z"/>
        <path class="cls-2" d="M28.98,28.47c-.28-.24-4.12-.37-6.23,2.14-2.32,2.76-1.32,6.83-1.32,6.83,0,0,4.23.23,6.71-2.71,2.12-2.52,1.21-5.95.84-6.26Z"/>
        <path class="cls-1" d="M51.67,37.53c-.09-.66-.55-1.05-1.08-.91-6,2.18-9.71,2.57-15.58,3.12l-.98-.22c-.5-.03-.68-.45-.74-.71l-.27-12.03c0-1.06-.43-1.91-.95-1.91s-.95.85-.95,1.91l-.57,11.94c-.54,1.68-2,1.53-2,1.53v.03c-5.27.11-7.94.19-13.41-1.27-.76-.19-1.35-.35-1.36.21h0c.02.56.63,1.4,1.42,1.59,6.27,2.55,9.32,2.07,15.08,3.46l-1.32,20.9c-.11,1.43-.96,1.75-.96,1.75h7.37c-.39-.18-.76-1.08-.94-1.56l-1.04-21.24c6.64-1.43,10.77-2.67,17.47-5.23.52-.13.87-.7.8-1.35Z"/>
      </g>
      <g>
        <g>
          <path class="cls-1" d="M96.28,54.62s-2.95,7.96-3.08,8.32c-.13-.36-3.14-8.32-3.14-8.32h-2.54v10.33h1.61v-8.56c.21.56,3.27,8.56,3.27,8.56h1.53s3.06-8,3.27-8.56v8.56h1.61v-10.33h-2.54Z"/>
          <path class="cls-1" d="M113.17,54.62c-.06.03-2.64,4.01-2.96,4.51-.12-.18-2.97-4.47-2.97-4.47l-1.77-.04h-.14s4.03,5.98,4.05,6.02v4.31h1.61v-4.34s3.96-5.88,3.96-5.88l.08-.12h-1.85Z"/>
          <path class="cls-1" d="M125.96,54.44c-2.97,0-4.97,2.15-4.97,5.34s1.95,5.34,4.97,5.34,4.98-2.1,4.98-5.34-2-5.34-4.98-5.34ZM125.96,63.69c-2.42,0-3.28-2.1-3.28-3.91,0-1.25.41-2.36,1.11-3.06.57-.56,1.3-.85,2.17-.84.87,0,1.6.28,2.17.84.71.7,1.11,1.82,1.11,3.06,0,1.8-.86,3.91-3.28,3.91Z"/>
          <path class="cls-1" d="M144.6,54.62v8.03c-.21-.39-4.4-8.03-4.4-8.03h-2.11v10.33h1.61v-8.21c.21.38,4.52,8.21,4.52,8.21h1.98v-10.33h-1.61Z"/>
          <path class="cls-1" d="M158.24,60.57h2.14v2.96c-.05.01-.11.02-.11.02-.3.07-.61.14-1.45.14-2.18,0-3.76-1.64-3.76-3.91s1.58-3.91,3.83-3.91c1.23,0,2,.19,2.76.69l.11.07.13-1.66-.05-.02c-.84-.29-1.5-.52-3.02-.52-3.21,0-5.46,2.18-5.46,5.3,0,3.27,2.14,5.38,5.45,5.38,1.21,0,2.24-.15,3.13-.46l.05-.02v-5.42h-3.75v1.35Z"/>
          <path class="cls-1" d="M171.27,54.62v7.17c0,1.37-.44,1.91-1.59,1.91-.34,0-.63-.05-.89-.14l-.1-.04v1.42l.05.02c.31.12.73.18,1.21.18,2.55,0,2.94-1.8,2.94-2.87v-7.63h-1.61Z"/>
          <polygon class="cls-1" points="180.61 54.62 180.61 64.95 182.22 64.95 182.22 54.62 182.14 54.62 180.61 54.62"/>
          <path class="cls-1" d="M206.33,63.21c-.52.31-1.51.48-2.18.48-2.18,0-3.76-1.64-3.76-3.91s1.58-3.91,3.83-3.91c.74,0,1.44.19,2.06.56l.1.06.13-1.59-.05-.02c-.68-.3-1.44-.44-2.32-.44-3.21,0-5.46,2.18-5.46,5.3,0,3.27,2.14,5.38,5.45,5.38.98,0,1.75-.12,2.35-.37l.05-.02-.1-1.59-.11.06Z"/>
          <path class="cls-1" d="M217.84,54.44c-2.97,0-4.98,2.15-4.98,5.34s1.95,5.34,4.98,5.34,4.98-2.1,4.98-5.34-2-5.34-4.98-5.34ZM217.84,63.69c-2.42,0-3.28-2.1-3.28-3.91,0-1.25.41-2.36,1.11-3.07.57-.56,1.3-.85,2.17-.84.87,0,1.6.28,2.17.84.71.7,1.11,1.82,1.11,3.06,0,1.8-.86,3.91-3.28,3.91Z"/>
          <path class="cls-1" d="M231.58,54.62h-1.61v10.33h5.87v-1.44h-4.26v-8.9Z"/>
          <path class="cls-1" d="M244.12,54.62h-1.61v10.33h5.87v-1.44h-4.26v-8.9Z"/>
          <path class="cls-1" d="M255.15,54.62v10.33h5.86v-1.44h-4.25v-3.2h3.87v-1.44h-3.87v-2.83h4.25v-1.44h-5.86Z"/>
          <path class="cls-1" d="M272.79,60.57h2.14v2.96s-.11.02-.11.02c-.3.07-.61.14-1.45.14-2.18,0-3.76-1.64-3.76-3.91s1.58-3.91,3.84-3.91c1.21,0,2.01.2,2.76.69l.11.07.13-1.66-.05-.02c-.84-.29-1.5-.52-3.02-.52-3.21,0-5.46,2.18-5.46,5.3,0,3.27,2.14,5.38,5.44,5.38,1.21,0,2.24-.15,3.13-.46l.05-.02v-5.42h-3.75v1.35Z"/>
          <path class="cls-1" d="M290.15,56.05v-1.44h-5.85v10.33h5.85v-1.44h-4.25v-3.2h3.87v-1.44h-3.87v-2.83h4.25Z"/>
        </g>
        <polygon class="cls-1" points="286.29 34.36 286.27 34.35 286.2 34.35 286.2 34.36 286.29 34.36"/>
        <rect class="cls-1" x="267.03" y="34.35" width="18.6" height="0"/>
        <rect class="cls-1" x="285.63" y="34.35" width=".58" height="0"/>
        <path class="cls-1" d="M290,37.8c0-1.09-.34-1.93-1.01-2.54-.67-.6-1.53-.9-2.56-.9h-20.15v3.22l19.35.02v9.55h4.38v-9.34Z"/>
        <polygon class="cls-1" points="290 20.2 290 13.01 285.63 13.01 285.63 32.08 290 32.08 290 23.15 290 23.15 295.2 23.15 295.2 20.2 290 20.2"/>
        <path class="cls-1" d="M249.41,13.01v8.92h-4.42v-8.92h-4.12v17.9c-.48.25-1.14.46-1.98.66-.83.19-1.74.29-2.73.29h-6.67v-14.86h7.65v-2.91h-11.96v17.34c0,1.08.34,1.93,1.02,2.54.68.6,1.54.91,2.57.91h7.17c1.06,0,2.01-.14,2.83-.37.71-.21,1.47-.57,2.1-1.03v12.09h4.12v-20.47h4.42v20.47h4.12V13.01h-4.12Z"/>
        <path class="cls-1" d="M141.93,13.11h4.72c-.05.02-.05,32.41,0,32.45h-4.66s-.01-32.43-.06-32.45ZM131.27,17.05v3.28c0,3.06.74,5.77,2.51,8.12,1.76,2.35,3.71,3.73,5.86,4.13l-2.08,2.25c-1.56-.5-3.42-1.01-5.26-2.56-1.83-1.56-3.01-3.38-3.53-4.77-.52,1.41-1.7,3.23-3.53,4.75-1.84,1.52-3.68,2.12-5.26,2.58l-2.08-2.25c2.16-.4,4.12-1.78,5.87-4.13,1.75-2.35,2.49-5.06,2.49-8.12v-3.28s-6.29,0-6.32.03v-2.91h17.64v2.91s-6.31-.03-6.31-.03Z"/>
        <polygon class="cls-1" points="286.29 34.36 286.27 34.35 286.2 34.35 286.2 34.36 286.29 34.36"/>
        <rect class="cls-1" x="285.63" y="34.35" width=".58" height="0"/>
        <path class="cls-1" d="M279.92,17.96h1.86v-2.88h-7.35v-3.08h-4.52v3.08h-7.34v2.88h4.74c-1.04.67-1.86,1.53-2.48,2.57-.62,1.04-.92,2.17-.92,3.37,0,2.06.81,3.81,2.43,5.28,1.62,1.46,3.56,2.19,5.83,2.19s4.25-.73,5.85-2.19c1.61-1.46,2.41-3.22,2.41-5.28,0-1.2-.31-2.33-.92-3.37-.58-.97-1.35-1.79-2.29-2.44h0c-.06-.05-.11-.09-.17-.13h0s2.82,0,2.82,0c.02,0,.04,0,.06,0ZM275,27.07c-.79.89-1.73,1.34-2.83,1.34s-2-.45-2.8-1.34c-.8-.89-1.2-1.95-1.2-3.17s.4-2.27,1.2-3.17c.8-.89,1.73-1.34,2.8-1.34s2.04.45,2.83,1.34c.79.89,1.18,1.95,1.18,3.17s-.39,2.28-1.18,3.17Z"/>
        <path class="cls-1" d="M110.57,13.11h-4.77s.02,3.44.02,3.44h-5.42v-2.59h-16.21s-.02,11.96-.02,11.96c0,1.06.31,1.88.91,2.47.61.58,1.47.88,2.58.88h12.73v-2.96h5.42v4.64h4.73s-.02-17.83.03-17.85ZM95.67,26.39h-6.78v-9.54h6.78v9.54ZM105.81,23.14h-5.42v-3.43h5.42v3.43Z"/>
        <path class="cls-1" d="M107.33,33.78c-1.76-1.48-3.9-2.22-6.42-2.22s-4.62.74-6.4,2.22c-1.78,1.49-2.67,3.29-2.67,5.4s.89,3.92,2.67,5.4c1.78,1.48,3.91,2.22,6.4,2.22s4.65-.74,6.42-2.22c1.77-1.48,2.65-3.28,2.65-5.4s-.88-3.91-2.65-5.4ZM103.89,42.6c-.81.97-1.8,1.46-2.98,1.46s-2.14-.49-2.96-1.46c-.82-.98-1.23-2.11-1.23-3.43s.41-2.46,1.23-3.45c.82-.99,1.81-1.49,2.96-1.49s2.17.5,2.98,1.49c.81.99,1.22,2.14,1.22,3.45s-.41,2.45-1.22,3.43Z"/>
        <path class="cls-1" d="M197.61,16.02h13.1v7.58h-13.1v-7.58ZM193.12,22.83c0,1.08.3,1.92.9,2.51.6.6,1.43.9,2.51.9h18.62v-12.88h-22.05s.02,9.47.02,9.47ZM203.08,38.92h4.45s-.01-6.93-.01-6.93h10.98v-2.66s-29.23.03-29.28,0v2.66h13.81s.07,6.9.05,6.93ZM193.87,42.33c0,1.08.32,1.91.97,2.51.65.6,1.46.9,2.44.9h18.12v-2.64s-17.04-.01-17.04-.01c0,0,0-7.37.02-7.4h-4.51s0,6.64,0,6.64Z"/>
        <path class="cls-1" d="M160.58,34.79h4.52s-.01,8.3-.01,8.3c0,0,17.38.03,17.4,0v2.64h-18.48c-.98,0-1.79-.3-2.44-.9-.65-.6-.97-1.44-.97-2.51,0,0,0-7.51-.02-7.54ZM176.89,20.53l.02-7.25h4.46s-.04,24.1-.01,24.12h-4.48s.02-14.21.02-14.21c0,0-6.62,0-6.64.03v-2.68h6.64ZM166.09,16.72v1.65c0,3.4.87,6.18,2.62,8.34,1.74,2.17,3.64,3.45,5.67,3.86l-2.04,1.79c-1.48-.19-3.15-1.04-5.01-2.55-1.85-1.51-3.04-2.99-3.57-4.45-.51,1.48-1.68,2.97-3.52,4.47-1.84,1.5-3.53,2.34-5.06,2.53l-2.01-1.79c2.04-.38,3.93-1.67,5.67-3.86,1.75-2.19,2.62-4.97,2.62-8.34v-1.65s-6.15,0-6.17.02v-2.67h16.97v2.67s-6.17-.02-6.17-.02Z"/>
      </g>
    </g>
  </g>
</svg>