<?xml version="1.0" encoding="UTF-8"?>
<svg id="_레이어_2" data-name="레이어 2" xmlns="http://www.w3.org/2000/svg" xmlns:xlink="http://www.w3.org/1999/xlink" viewBox="0 0 205.67 348.15">
  <defs>
    <style>
      .cls-1 {
        fill: url(#linear-gradient-5);
      }

      .cls-2 {
        fill: url(#linear-gradient-4);
      }

      .cls-3 {
        fill: url(#linear-gradient-3);
      }

      .cls-4 {
        fill: url(#linear-gradient-2);
      }

      .cls-5 {
        fill: url(#linear-gradient);
      }

      .cls-6 {
        fill: #e0dfea;
      }

      .cls-7 {
        fill: #0099ec;
      }

      .cls-8 {
        fill: #231815;
      }

      .cls-9 {
        fill: #fff;
      }

      .cls-10 {
        fill: #002d71;
      }

      .cls-11 {
        fill: #ffccc1;
      }

      .cls-12 {
        fill: #191919;
      }

      .cls-13 {
        fill: #002c6e;
      }
    </style>
    <linearGradient id="linear-gradient" x1="87.36" y1="291.11" x2="82.94" y2="324.13" gradientUnits="userSpaceOnUse">
      <stop offset="0" stop-color="#e0dfea"/>
      <stop offset="1" stop-color="#fff"/>
    </linearGradient>
    <linearGradient id="linear-gradient-2" x1="84.56" y1="312.57" x2="88.39" y2="270.95" gradientUnits="userSpaceOnUse">
      <stop offset="0" stop-color="#e0dfea"/>
      <stop offset="0" stop-color="#e0dfea"/>
      <stop offset=".31" stop-color="#f1f1f5"/>
      <stop offset=".63" stop-color="#fbfbfc"/>
      <stop offset="1" stop-color="#fff"/>
    </linearGradient>
    <linearGradient id="linear-gradient-3" x1="33.27" y1="95.77" x2="49.35" y2="107.77" gradientUnits="userSpaceOnUse">
      <stop offset="0" stop-color="#ffccc1"/>
      <stop offset="1" stop-color="#f9afa2"/>
    </linearGradient>
    <linearGradient id="linear-gradient-4" x1="172.21" y1="106.05" x2="148.46" y2="117.79" xlink:href="#linear-gradient-3"/>
    <linearGradient id="linear-gradient-5" x1="93.61" y1="193.39" x2="93.61" y2="205.14" xlink:href="#linear-gradient-3"/>
  </defs>
  <g id="turnaround">
    <g>
      <path class="cls-9" d="M61.87,336.78c-9.12,9.38-13.75,6.42-13.94,6.29l-14.25-9.69c-3.71-2.52-2.3-10.06-.42-16.06l28.61,19.46Z"/>
      <path class="cls-9" d="M130.98,338.35l-15.53,7.5c-.21.1-5.21,2.36-12.86-8.27l31.16-15.05c.98,6.21,1.26,13.87-2.77,15.82Z"/>
      <path class="cls-10" d="M61.87,336.78c-9.12,9.38-13.75,6.42-13.94,6.29l-14.25-9.69c-3.71-2.52-2.3-10.06-.42-16.06l28.61,19.46Z"/>
      <path class="cls-10" d="M130.98,338.35l-15.53,7.5c-.21.1-5.21,2.36-12.86-8.27l31.16-15.05c.98,6.21,1.26,13.87-2.77,15.82Z"/>
      <g>
        <g>
          <path class="cls-9" d="M182.83,228.79c-.44,1.26-1.34,2.28-2.54,2.86l-8.72,4.25-12.54-25.75,8.72-4.25c.7-.33,1.44-.5,2.19-.5.55,0,1.1.09,1.63.27,1.26.44,2.28,1.34,2.87,2.54l8.16,16.76c.58,1.2.66,2.56.23,3.82Z"/>
          <path class="cls-8" d="M143.43,215.53c1.13-.41,1.75-.67,1.78-.68.09-.03.18-.06.27-.07h0c.23-.12.45-.24.67-.37.22-.12.44-.24.65-.37.43-.25.85-.51,1.25-.77l-4.63,2.26Z"/>
        </g>
        <path class="cls-10" d="M182.83,228.79c-.44,1.26-1.34,2.28-2.54,2.86l-8.72,4.25-12.54-25.75,8.72-4.25c.7-.33,1.44-.5,2.19-.5.55,0,1.1.09,1.63.27,1.26.44,2.28,1.34,2.87,2.54l8.16,16.76c.58,1.2.66,2.56.23,3.82Z"/>
      </g>
      <g>
        <g>
          <path class="cls-9" d="M27.55,200.17l-14.84,24.49-8.29-5.02c-1.14-.7-1.95-1.79-2.27-3.09s-.11-2.64.58-3.78l9.66-15.94c.7-1.15,1.79-1.95,3.09-2.27.4-.09.8-.14,1.2-.14.9,0,1.79.24,2.58.72l8.29,5.03Z"/>
          <path class="cls-8" d="M36.84,203.46c.28.27.56.53.86.79.29.26.59.52.9.78.62.52,1.27,1.03,1.96,1.54.01,0,.03.01.05.03.56.33,1.47.85,2.68,1.5.18.09.36.18.54.28.19.1.38.2.58.3.2.1.4.21.61.31.01.01.02.01.03.02.48.24,1,.5,1.54.76.56.27,1.15.55,1.76.83.34.16.69.32,1.04.47l-12.55-7.61Z"/>
        </g>
        <path class="cls-10" d="M27.55,200.17l-14.84,24.49-8.29-5.02c-1.14-.7-1.95-1.79-2.27-3.09s-.11-2.64.58-3.78l9.66-15.94c.7-1.15,1.79-1.95,3.09-2.27.4-.09.8-.14,1.2-.14.9,0,1.79.24,2.58.72l8.29,5.03Z"/>
      </g>
      <path class="cls-13" d="M197.29,282.75c-.89.67-1.84,1.26-2.84,1.75-.49-1.45-1.65-3.86-4.17-5.39-2.82-1.7-6.5-1.82-10.94-.36-.53.18-.81.74-.64,1.27.17.52.74.8,1.26.63,3.86-1.27,6.97-1.21,9.27.16,2.75,1.65,3.48,4.75,3.57,5.2h0c.24,3.69-2.07,7.66-6.37,10.89-1.99,1.51-4.28,2.57-6.61,3.08-.05.01-.09.02-.14.04,0,0-.02.01-.04.01-1.21.3-6.28.54-9.85.65-.12-1.3-.59-3.51-2.35-5.47-2.15-2.38-5.52-3.64-10.02-3.75h-.02c-.54,0-.99.43-1,.98s.42,1.01.97,1.02c3.92.09,6.79,1.13,8.56,3.07,1.97,2.16,1.9,4.83,1.89,5.08v.02c-.11.53-.85,4.03-3.53,5.73-3.27,2.07-7.21,2.5-10.54,1.15-.07-.03-.13-.05-.2-.06l-11.89-4.05c3.95-6.63,5.49-14.36,5.59-22.2,17.49-1.5,31.89-11.81,36.44-15.41.32-.27.64-.54.98-.79,6.08-4.59,13.86-4.56,17.34.06s1.36,12.11-4.72,16.69Z"/>
      <g>
        <path class="cls-9" d="M90.98,230.7s-.08,0-.11-.01c-.02,0-.05-.01-.08-.02.06.02.13.03.19.03Z"/>
        <path class="cls-9" d="M91.47,230.58s-.06.04-.09.05c-.05.02-.1.03-.14.04.08-.02.16-.05.23-.09Z"/>
        <path class="cls-8" d="M147.11,280.19l-1.98.14v.28c.01.28.03.56.04.84.02.53.46.95.99.95h.05c.55-.02.98-.49.95-1.04-.02-.39-.03-.78-.05-1.17Z"/>
        <path class="cls-8" d="M203.6,264.86c-4.14-5.5-13.18-5.71-20.14-.46-.37.28-.73.58-1.04.85-4.37,3.46-18.28,13.42-35.17,14.93h-.14c.02.4.03.79.05,1.18.03.55-.4,1.02-.95,1.04h-.05c-.53,0-.97-.42-.99-.95-.01-.28-.03-.56-.04-.84,0,.24.01.48.01.72,0,.34,0,.67-.01,1.01-.1,7.63-1.59,15.1-5.43,21.39-.18.29-.36.58-.55.87-.19.29-.38.57-.59.86-.69.98-1.45,1.94-2.28,2.85l-3.98-.33-1.07-.09-1.08-.08-26.7-2.2-1.65-.14h0l-1.59-.13-34.42-2.83-1.94-.16-2.06-.17-21.39-1.75-1.09-.09-1.06-.09-4.61-.38c-3.67-3.88-4.97-10.51-4.97-17.95,0-17.86,7.47-40.37,7.58-40.69l-23.53-16.57-8.29-5.02c-1.14-.7-1.95-1.79-2.27-3.09s-.11-2.64.58-3.78l9.66-15.94c.7-1.15,1.79-1.95,3.09-2.27.4-.09.8-.14,1.2-.14.9,0,1.79.24,2.58.72l8.29,5.03,7.98,4.84c.53.5,1.09,1,1.68,1.49-3.36,1.19-8.55,4.76-9.39,11.37-.45,3.46.55,6.81,2.88,9.69,2.65,3.27,6.91,5.67,11.42,6.51.37.07.73.13,1.1.18.3.04.59.07.89.09l.23.02,20.2,1.9,1.04.1,1.02.09,9.16.86c-1.2,2.48-3.09,7.66-2.23,14.26-1.01.53-1.73,1.56-1.84,2.78-.17,1.92,1.26,3.62,3.18,3.79,1.92.17,3.62-1.26,3.79-3.18.17-1.89-1.19-3.55-3.05-3.77-.04-.01-.08-.02-.12-.02-.62-5.17.58-9.41,1.6-11.91.34-.85.67-1.49.9-1.91.28-.16.48-.44.51-.78.02-.19-.02-.38-.11-.54-.15-.3-.44-.52-.8-.55l-10.45-.98-1.01-.1-1.01-.09-19.59-1.84-1.12-.11h-.12c-.34-.04-.68-.08-1.01-.13-4.36-.61-8.51-2.83-11.03-5.93-1.98-2.45-2.82-5.27-2.45-8.17.93-7.2,7.64-9.88,9.34-10.08.06.04.12.08.2.12t.01.01c3.32,2.42,7.42,4.7,12.51,6.73,1.1.44,2.25.87,3.44,1.28.37.14.74.26,1.12.39.1.03.19.06.29.09.28.1.56.19.85.28.94.3,1.91.59,2.91.88,3.4.97,7.14,1.85,11.25,2.62,15.04,3.7,18.12,9.17,18.35,9.62.01.03.03.06.04.09t0,.02c.03.07.08.13.13.18,0,.01.01.02.02.02,0,.01.01.02.02.02.05.06.11.11.18.15,0,0,.01,0,.01.01h.03s.02.01.02.02c.01.01.02.01.02.01.02,0,.04.02.05.02.03.02.05.03.08.03.03.01.06.02.1.03h.01c.06.02.13.03.19.03.09,0,.18-.01.26-.03.08-.02.16-.05.23-.09.08-.03.14-.08.2-.14.05-.04.1-.09.13-.15.02,0,.03-.02.04-.04,0,0,.01-.01.01-.02.01,0,.02-.03.03-.05.47-.59,4.41-5.09,18.73-6.38h.04c5.8-.08,10.94-.47,15.52-1.14.4-.05.79-.11,1.18-.17.4-.06.79-.13,1.17-.19.55-.09,1.08-.19,1.61-.3,1.44-.27,2.82-.57,4.14-.9,2.13-.53,4.1-1.13,5.93-1.79,2.06-.74,3.95-1.56,5.66-2.44,1.86.65,7.66,4.38,7.41,11.41-.11,2.92-1.4,5.57-3.76,7.66-2.98,2.65-7.44,4.16-11.84,4.05-.34,0-.69-.02-1.03-.05h-.11s-1.13-.09-1.13-.09l-17.03-1.2-.99-.07-1-.07-13.1-.92c-.36-.03-.69.14-.88.41-.11.15-.18.33-.19.52-.01.09,0,.18.03.27,0,.02,0,.04.01.05,0,0,.01.03.02.05,0,.01.02.05.04.12.01.02.02.04.03.08.14.36.43,1.21.69,2.44.58,2.64,1.03,7.02-.48,12h-.12c-1.87-.1-3.5,1.29-3.66,3.19-.17,1.92,1.25,3.62,3.18,3.79,1.92.17,3.62-1.26,3.79-3.18.11-1.23-.43-2.36-1.33-3.06,2.02-6.47.99-11.96.23-14.57l11.81.83,1.01.07,1.02.07,17.79,1.25.22.02c.3.02.6.04.9.05.23.01.47.01.7.01.14,0,.27,0,.41-.01,4.6-.09,9.19-1.75,12.34-4.55,2.77-2.47,4.3-5.61,4.43-9.09.23-6.54-4.17-10.88-7.27-12.66.44-.26.87-.52,1.28-.8l9.75-4.74,8.72-4.25c.7-.33,1.44-.5,2.19-.5.55,0,1.1.09,1.63.27,1.26.44,2.28,1.34,2.87,2.54l8.16,16.76c.58,1.2.66,2.56.23,3.82-.44,1.26-1.34,2.28-2.54,2.86l-8.72,4.25-27.61,15.37-.41.19c-.39.18-.63.59-.58,1.02.02.15,1.51,14.05,2.16,28.13v-.28l1.98-.14c-.58-12.2-1.77-24.19-2.08-27.2l1.02-.46c.07-.03.14-.07.2-.13.02,0,.03-.02.05-.03l34.87-18.92c1.68-.81,2.94-2.24,3.55-4.01s.49-3.67-.32-5.35l-8.16-16.75c-.82-1.69-2.25-2.95-4.02-3.56-1.76-.61-3.66-.49-5.34.33l-11.19,5.45c4.16-4.53,6.25-9.55,7.52-14.14,3.39-12.26-.95-20.44-2-22.17,2.35-19.78,1.14-36.8-3.6-50.87,3.61-.14,7.65-.77,11.94-2.26,15.53-5.37,22.78-23.06,21.39-30.51-.27-1.43-.83-2.64-1.67-3.61-3.01-3.48-8.49-2.76-8.8-2.72l-42.14,9.21c.18.29.36.59.52.89.15.27.3.54.43.81.05.04.08.07.12.1l41.42-9.03s4.63-.62,6.94,2.06c.06.06.1.12.15.18.53.67.88,1.48,1.06,2.48,1.15,6.11-5.26,23.13-20.08,28.26-4.3,1.48-8.39,2.06-12,2.12-1.26-3.46-2.76-6.74-4.48-9.82-.04,0-.09.01-.16.02-.95.16-1.45,1.19-.99,2.04,1.3,2.46,2.47,5.04,3.5,7.75.13.34.26.68.38,1.03.13.33.25.67.37,1.03,4.85,13.98,6.08,31.02,3.68,50.96l-.04.37.2.31c.06.08,5.42,8.22,1.94,20.84-.1.37-.21.74-.33,1.11-.15.5-.31,1-.49,1.5-.08.25-.17.5-.27.75-.3.82-.65,1.65-1.04,2.49-.2.43-.42.87-.65,1.31-.36.68-.74,1.35-1.17,2.02-.19.3-.39.6-.6.91-.13.19-.27.39-.42.59-.24.34-.49.68-.77,1.02-.53.68-1.12,1.35-1.76,2.01-.31.34-.64.66-.99.98-.19.19-.39.38-.6.55-.2.18-.41.37-.62.55s-.43.35-.65.53c-.22.18-.44.36-.67.52-.36.28-.73.55-1.12.82-.1.07-.19.14-.29.2-.24.17-.49.33-.75.5-.01.01-.03.02-.04.02-.4.26-.82.52-1.25.77-.21.13-.43.25-.65.37-.22.13-.44.25-.67.37h0c-.09,0-.18.04-.27.07-.03.01-.65.27-1.78.68-.02,0-.05.02-.08.03-.16.06-.33.12-.51.18-.2.07-.42.15-.65.23-.82.29-1.79.61-2.91.95-.44.14-.89.27-1.37.41-.36.11-.73.22-1.11.32-.38.11-.77.22-1.17.33-.54.14-1.1.29-1.67.43-.29.08-.58.15-.88.22-.4.1-.81.2-1.23.29-.74.18-1.49.34-2.27.51-.3.06-.6.12-.91.19-.31.06-.62.12-.94.18-.49.1-.99.19-1.5.28-.41.08-.83.15-1.25.22-.42.07-.85.14-1.28.21-3.25.5-6.76.9-10.45,1.1-.94.05-1.84.12-2.71.2h-.04c-5.6.07-11.83-.16-18.76-.74h-.09c-7.34-.61-13.84-1.49-19.6-2.59-.54-.13-1.1-.26-1.68-.39-3.61-.8-7.01-1.77-10.13-2.8-.41-.13-.82-.27-1.22-.41-.41-.14-.81-.28-1.2-.42-1.12-.4-2.19-.8-3.22-1.2-.41-.16-.82-.32-1.22-.49-.46-.18-.91-.37-1.36-.56-.24-.1-.48-.2-.71-.3-.65-.27-1.28-.55-1.89-.82-.01,0-.02-.01-.03-.02-.35-.15-.7-.31-1.04-.47-.61-.28-1.2-.56-1.76-.83-.54-.26-1.06-.52-1.54-.76,0-.01-.02-.01-.03-.02-.21-.1-.41-.21-.61-.31-.2-.1-.39-.2-.58-.3-.18-.1-.36-.19-.54-.28-1.21-.65-2.12-1.17-2.68-1.5-.02-.02-.04-.03-.05-.03-.69-.51-1.34-1.02-1.96-1.54-.31-.26-.61-.52-.9-.78-.3-.26-.58-.52-.86-.79-.21-.2-.42-.4-.62-.61-.21-.2-.4-.41-.6-.62-.16-.16-.3-.31-.43-.46-.14-.15-.28-.31-.41-.46-.27-.31-.53-.62-.78-.92-.17-.21-.33-.42-.49-.62-.16-.21-.32-.43-.47-.64-.22-.3-.43-.6-.62-.9-.12-.18-.23-.35-.35-.53-.17-.26-.33-.52-.48-.78-.16-.26-.3-.51-.44-.77-.13-.23-.25-.46-.37-.69-.07-.14-.15-.28-.21-.42-.06-.11-.11-.22-.16-.33-.07-.13-.13-.26-.18-.39-.05-.08-.09-.16-.11-.24-.13-.28-.25-.55-.36-.83-.09-.22-.18-.43-.26-.64-.25-.64-.47-1.27-.66-1.9-.09-.3-.18-.6-.26-.89-.26-.91-.46-1.81-.63-2.69-.07-.37-.13-.73-.19-1.1-.04-.2-.07-.4-.09-.59-.03-.2-.06-.39-.08-.59-.05-.4-.1-.78-.14-1.17-1.35-13.03,5.3-20.16,5.36-20.24l.27-.26v-.38c.96-20.06,5.02-36.65,12.12-49.64.17-.31.35-.63.54-.95.16-.31.35-.63.54-.94,1.58-2.71,3.31-5.25,5.18-7.62.39-.49.18-1.21-.42-1.4-.35-.12-.67-.23-.81-.28-2.21,2.76-4.24,5.74-6.06,8.95-3.55-.66-7.47-1.9-11.47-4.09-13.77-7.53-17.24-25.37-15.09-31.22.33-.94.82-1.68,1.45-2.25.05-.05.12-.11.18-.16,1.51-1.26,3.57-1.38,5.08-1.25,1.18.09,2.02.35,2.03.35l39.42,15.81s.11-.06.16-.08c.17-.24.35-.48.54-.7.21-.27.43-.55.68-.81l-40.13-16.11c-.22-.07-5.5-1.69-9.05,1.23-.99.82-1.75,1.92-2.24,3.28-2.62,7.12,1.58,25.77,16.01,33.65,3.98,2.18,7.86,3.48,11.39,4.22-7.02,13.08-11.05,29.66-12.02,49.56-1.32,1.53-6.96,8.88-5.66,21.53.53,5.03,1.88,10.69,5.73,16.15l-10.88-6.6c-1.6-.97-3.48-1.26-5.3-.81-1.81.44-3.35,1.57-4.32,3.17l-9.66,15.94c-.97,1.6-1.26,3.48-.81,5.3.45,1.81,1.57,3.35,3.17,4.32l30.13,20.68c-2.13,6.79-13.58,45.67-1.54,58.99l-.08.06-.13,1.65c-.14,1.65.38,3.26,1.45,4.52.37.44.8.83,1.27,1.14-1.12,2.63-2.17,5.37-3.03,8.04-3.11,9.73-2.74,15.99,1.1,18.6l14.26,9.7c.41.28,1.56.92,3.45.92,2.8,0,7.21-1.43,13.17-7.61,2.6-2.69,5.31-6.11,8.06-10.16.08-.12.16-.23.17-.27,1.7-2.55,2.75-5.08,3.16-7.56l17.61,1.3c.27,1.83.87,3.71,1.78,5.64.05.12.1.24.17.37,2.13,4.41,4.31,8.19,6.49,11.24,5.71,8.01,10.33,9.55,13.02,9.55,1.25,0,2.08-.33,2.43-.5l15.53-7.5c4.18-2.02,5.46-8.15,3.82-18.23-.31-1.88-.7-3.8-1.14-5.7,1.65-.99,2.82-2.74,2.99-4.8l.13-1.65c1.07-1.16,2.03-2.37,2.9-3.63l12.48,4.25s.07.02.1.03c1.49.58,3.07.87,4.66.87,2.6,0,5.24-.76,7.57-2.24,2.79-1.77,3.89-4.88,4.27-6.36,2.41-.07,9.06-.3,10.64-.75.02-.01.05-.02.08-.03,2.57-.58,5.09-1.75,7.28-3.41,4.61-3.47,7.19-7.79,7.19-11.96,1.3-.6,2.53-1.33,3.68-2.19,6.96-5.25,9.25-13.99,5.1-19.49ZM91.5,223.07h.07c2.95.25,5.78.43,8.49.56-5.04,1.44-7.67,3.28-8.93,4.44-1.05-1.36-3.37-3.62-8.16-5.88,2.71.34,5.55.63,8.53.88ZM130.98,338.35l-15.53,7.5c-.21.1-5.21,2.36-12.86-8.27-.03-.04-.07-.09-.1-.14-2.11-2.96-4.23-6.64-6.31-10.96-.03-.06-.06-.11-.12-.26-.76-1.63-1.29-3.2-1.57-4.72.52-.01.95-.4.99-.92,0-.05,0-.09-.01-.13-.02-.49-.41-.9-.92-.94l-.29-.02-1.01-.08-1.01-.07-17.23-1.27-1-.08-1-.07-1.88-.14c-.51-.05-.96.31-1.05.8-.01.04-.02.08-.02.12-.04.55.37,1.03.92,1.07l1.83.14c-.39,2.17-1.34,4.39-2.86,6.67-.03.06-.07.11-.11.17h0c-2.69,3.96-5.33,7.29-7.85,9.91l-.12.12c-9.12,9.38-13.75,6.42-13.94,6.29l-14.25-9.69c-3.71-2.52-2.3-10.06-.42-16.06.03-.1.06-.19.09-.28.83-2.6,1.86-5.27,2.95-7.82.37.1.75.17,1.14.2l31.34,2.58,2.94.24,1.14.09,1.13.1,19.12,1.57,1.03.08,1.05.09,2.73.22,32.9,2.71c.17.02.34.02.51.02.45,0,.9-.05,1.32-.15.41,1.76.77,3.53,1.05,5.27.02.1.03.19.05.29.98,6.21,1.26,13.87-2.77,15.82ZM135.53,311.26c-.01.15-.03.29-.06.43-.06.33-.16.63-.29.92-.04.09-.08.18-.13.26,0,.01,0,.02-.02.03-.03.07-.07.13-.11.2-.17.28-.37.54-.6.76-.08.08-.16.16-.25.23-.02.02-.03.04-.05.05-.01.01-.03.03-.05.04-.12.09-.24.18-.38.27-.09.07-.19.12-.29.17-.05.03-.11.06-.16.08,0,.01-.01.01-.01.01-.2.1-.42.18-.64.24-.1.04-.2.06-.31.08-.38.09-.78.11-1.19.08l-32.93-2.71-1.86-.15-1.12-.09-1.09-.09-21-1.73-1.22-.1-1.27-.1-1.57-.13-31.33-2.58c-.1-.01-.2-.02-.29-.04-.07-.01-.13-.02-.2-.03-.34-.07-.67-.17-.97-.32-.04-.02-.08-.04-.12-.06-.24-.12-.48-.27-.69-.44-.01,0-.02-.02-.03-.03-.21-.16-.4-.35-.57-.55-.72-.86-1.07-1.95-.98-3.07l.08-1,3.47.29,1.05.08,1.09.09,25.56,2.1,1.75.15,1.69.14,29.51,2.42,1.39.12,1.46.12,29.97,2.46,1.08.09,1.06.09,2.7.22-.08,1ZM197.29,282.75c-.89.67-1.84,1.26-2.84,1.75-.49-1.45-1.65-3.86-4.17-5.39-2.82-1.7-6.5-1.82-10.94-.36-.53.18-.81.74-.64,1.27.17.52.74.8,1.26.63,3.86-1.27,6.97-1.21,9.27.16,2.75,1.65,3.48,4.75,3.57,5.2h0c.24,3.69-2.07,7.66-6.37,10.89-1.99,1.51-4.28,2.57-6.61,3.08-.05.01-.09.02-.14.04,0,0-.02.01-.04.01-1.21.3-6.28.54-9.85.65-.12-1.3-.59-3.51-2.35-5.47-2.15-2.38-5.52-3.64-10.02-3.75h-.02c-.54,0-.99.43-1,.98s.42,1.01.97,1.02c3.92.09,6.79,1.13,8.56,3.07,1.97,2.16,1.9,4.83,1.89,5.08v.02c-.11.53-.85,4.03-3.53,5.73-3.27,2.07-7.21,2.5-10.54,1.15-.07-.03-.13-.05-.2-.06l-11.89-4.05c3.95-6.63,5.49-14.36,5.59-22.2,17.49-1.5,31.89-11.81,36.44-15.41.32-.27.64-.54.98-.79,6.08-4.59,13.86-4.56,17.34.06s1.36,12.11-4.72,16.69Z"/>
        <path class="cls-5" d="M133.75,322.53l-31.16,15.05s-.07-.09-.1-.14c-2.11-2.96-4.23-6.64-6.31-10.96-.03-.06-.06-.11-.12-.26-.76-1.63-1.29-3.2-1.57-4.72.52-.01.95-.4.99-.92,0-.05,0-.09-.01-.13-.02-.49-.41-.9-.92-.94l-.29-.02-1.01-.08-1.01-.07-17.23-1.27-1-.08-1-.07-1.88-.14c-.51-.05-.96.31-1.05.8-.01.04-.02.08-.02.12-.04.55.37,1.03.92,1.07l1.83.14c-.39,2.17-1.34,4.39-2.86,6.67-.03.06-.07.11-.11.17h0c-2.69,3.96-5.33,7.29-7.85,9.91l-.12.12-28.61-19.46c.03-.1.06-.19.09-.28.83-2.6,1.86-5.27,2.95-7.82.37.1.75.17,1.14.2l31.34,2.58,2.94.24,1.14.09,1.13.1,19.12,1.57,1.03.08,1.05.09,2.73.22,32.9,2.71c.17.02.34.02.51.02.45,0,.9-.05,1.32-.15.41,1.76.77,3.53,1.05,5.27.02.1.03.19.05.29Z"/>
        <path class="cls-6" d="M135.61,310.26l-.08,1c-.01.15-.03.29-.06.43-.06.33-.16.63-.29.92-.04.09-.08.18-.13.26,0,.01,0,.02-.02.03-.03.07-.07.13-.11.2-.17.28-.37.54-.6.76-.08.08-.16.16-.25.23-.02.02-.03.04-.05.05-.01.01-.03.03-.05.04-.12.09-.24.18-.38.27-.09.07-.19.12-.29.17-.05.03-.11.06-.16.08,0,.01-.01.01-.01.01-.2.1-.42.18-.64.24-.1.04-.2.06-.31.08-.38.09-.78.11-1.19.08l-32.93-2.71-1.86-.15-1.12-.09-1.09-.09-21-1.73-1.22-.1-1.27-.1-1.57-.13-31.33-2.58c-.1-.01-.2-.02-.29-.04-.07-.01-.13-.02-.2-.03-.34-.07-.67-.17-.97-.32-.04-.02-.08-.04-.12-.06-.24-.12-.48-.27-.69-.44-.01,0-.02-.02-.03-.03-.21-.16-.4-.35-.57-.55-.72-.86-1.07-1.95-.98-3.07l.08-1,3.47.29,1.05.08,1.09.09,25.56,2.1,1.75.15,1.69.14,29.51,2.42,1.39.12,1.46.12,29.97,2.46,1.08.09,1.06.09,2.7.22Z"/>
      </g>
      <g>
        <path class="cls-9" d="M90.98,230.7s-.08,0-.11-.01c-.02,0-.05-.01-.08-.02.06.02.13.03.19.03Z"/>
        <path class="cls-8" d="M90.98,230.7s-.08,0-.11-.01c-.02,0-.05-.01-.08-.02.06.02.13.03.19.03Z"/>
        <path class="cls-4" d="M145.13,280.61c0,.24.01.48.01.72,0,.34,0,.67-.01,1.01-.1,7.63-1.59,15.1-5.43,21.39-.18.29-.36.58-.55.87-.19.29-.38.57-.59.86-.69.98-1.45,1.94-2.28,2.85l-3.98-.33-1.07-.09-1.08-.08-26.7-2.2-1.65-.14h0l-1.59-.13-34.42-2.83-1.94-.16-2.06-.17-21.39-1.75-1.09-.09-1.06-.09-4.61-.38c-3.67-3.88-4.97-10.51-4.97-17.95,0-17.86,7.47-40.37,7.58-40.69l-23.53-16.57,14.84-24.49,7.98,4.84c.53.5,1.09,1,1.68,1.49-3.36,1.19-8.55,4.76-9.39,11.37-.45,3.46.55,6.81,2.88,9.69,2.65,3.27,6.91,5.67,11.42,6.51.37.07.73.13,1.1.18.3.04.59.07.89.09l.23.02,20.2,1.9,1.04.1,1.02.09,9.16.86c-1.2,2.48-3.09,7.66-2.23,14.26-1.01.53-1.73,1.56-1.84,2.78-.17,1.92,1.26,3.62,3.18,3.79,1.92.17,3.62-1.26,3.79-3.18.17-1.89-1.19-3.55-3.05-3.77-.04-.01-.08-.02-.12-.02-.62-5.17.58-9.41,1.6-11.91.34-.85.67-1.49.9-1.91.28-.16.48-.44.51-.78.02-.19-.02-.38-.11-.54-.15-.3-.44-.52-.8-.55l-10.45-.98-1.01-.1-1.01-.09-19.59-1.84-1.12-.11h-.12c-.34-.04-.68-.08-1.01-.13-4.36-.61-8.51-2.83-11.03-5.93-1.98-2.45-2.82-5.27-2.45-8.17.93-7.2,7.64-9.88,9.34-10.08.06.04.12.08.2.12t.01.01c3.32,2.42,7.42,4.7,12.51,6.73,1.1.44,2.25.87,3.44,1.28.37.14.74.26,1.12.39.1.03.19.06.29.09.28.1.56.19.85.28.94.3,1.91.59,2.91.88,3.4.97,7.14,1.85,11.25,2.62,15.04,3.7,18.12,9.17,18.35,9.62.01.03.03.06.04.09t0,.02c.03.07.08.13.13.18,0,.01.01.02.02.02,0,.01.01.02.02.02.05.06.11.11.18.15,0,0,.01,0,.01.01h.03s.02.01.02.02c.01.01.02.01.02.01.02,0,.04.02.05.02.03.02.05.03.08.03.03.01.06.02.1.03h.01s.06.02.08.02c.03.01.07.01.11.01.09,0,.18-.01.26-.03.04,0,.09-.02.14-.04.03-.01.06-.03.09-.05.08-.03.14-.08.2-.14.05-.04.1-.09.13-.15.02,0,.03-.02.04-.04,0,0,.01-.01.01-.02.01,0,.02-.03.03-.05.47-.59,4.41-5.09,18.73-6.38h.04c5.8-.08,10.94-.47,15.52-1.14.4-.05.79-.11,1.18-.17.4-.06.79-.13,1.17-.19.55-.09,1.08-.19,1.61-.3,1.44-.27,2.82-.57,4.14-.9,2.13-.53,4.1-1.13,5.93-1.79,2.06-.74,3.95-1.56,5.66-2.44,1.86.65,7.66,4.38,7.41,11.41-.11,2.92-1.4,5.57-3.76,7.66-2.98,2.65-7.44,4.16-11.84,4.05-.34,0-.69-.02-1.03-.05h-.11s-1.13-.09-1.13-.09l-17.03-1.2-.99-.07-1-.07-13.1-.92c-.36-.03-.69.14-.88.41-.11.15-.18.33-.19.52-.01.09,0,.18.03.27,0,.02,0,.04.01.05,0,0,.01.03.02.05,0,.01.02.05.04.12.01.02.02.04.03.08.14.36.43,1.21.69,2.44.58,2.64,1.03,7.02-.48,12h-.12c-1.87-.1-3.5,1.29-3.66,3.19-.17,1.92,1.25,3.62,3.18,3.79,1.92.17,3.62-1.26,3.79-3.18.11-1.23-.43-2.36-1.33-3.06,2.02-6.47.99-11.96.23-14.57l11.81.83,1.01.07,1.02.07,17.79,1.25.22.02c.3.02.6.04.9.05.23.01.47.01.7.01.14,0,.27,0,.41-.01,4.6-.09,9.19-1.75,12.34-4.55,2.77-2.47,4.3-5.61,4.43-9.09.23-6.54-4.17-10.88-7.27-12.66.44-.26.87-.52,1.28-.8l9.75-4.74,12.54,25.75-27.61,15.37-.41.19c-.39.18-.63.59-.58,1.02.02.15,1.51,14.05,2.16,28.13Z"/>
        <path class="cls-8" d="M91.47,230.58s-.06.04-.09.05c-.05.02-.1.03-.14.04.08-.02.16-.05.23-.09Z"/>
      </g>
      <g>
        <g>
          <path class="cls-9" d="M50.23,101.97c-2.21,2.76-4.24,5.74-6.06,8.95-3.55-.66-7.47-1.9-11.47-4.09-13.77-7.53-17.24-25.37-15.09-31.22.33-.94.82-1.68,1.45-2.25,3.39,6.92,12.71,22.15,31.17,28.61Z"/>
          <path class="cls-9" d="M67.29,104.94c-.33.35-.67.7-1.01,1.03-.24.25-.48.48-.73.71h0c-.24.25-.48.47-.74.69-.19-.28-.38-.56-.54-.85-.35-.57-.66-1.17-.92-1.78-.84-1.95-1.27-4.07-1.21-6.29.02-.27.03-.51.05-.74.03-.35.06-.6.09-.85.22-1.71.68-3.35,1.36-4.91.29-.64.6-1.27.94-1.87.39-.66.8-1.31,1.27-1.93l-.07-.04s.11-.06.16-.08c.17-.24.35-.48.54-.7l.37.15.61.24c.17.09.33.18.49.26.15.09.3.17.43.25.19.12.38.23.55.35,7,4.6,3.13,11.34-1.63,16.36Z"/>
          <path class="cls-8" d="M73.64,93.48c-.36-2.1-1.6-3.91-3.74-5.44-.26-.2-.55-.38-.85-.57h0s-.06-.04-.09-.05c-.26-.17-.54-.32-.82-.47-.06-.04-.13-.08-.2-.1-.03-.02-.06-.04-.1-.06l-.68-.27c-.25.26-.47.54-.68.81-.19.22-.37.46-.54.7-.05.02-.11.06-.16.08l.07.04.97.38.11.05.07.03c.26.13.51.27.75.41.08.04.14.08.21.12,2.16,1.31,3.41,2.88,3.72,4.68.09.45.1.94.05,1.44-.21,2.56-1.96,5.62-5.16,9-.2.21-.4.42-.61.64l-.2.2c-.25.25-.5.49-.74.72-.25.24-.5.47-.75.7.16.29.35.57.54.85.19.28.38.54.59.81.25-.22.5-.44.75-.68.24-.22.48-.45.72-.69.4-.38.78-.78,1.17-1.19,4.32-4.56,6.21-8.65,5.61-12.14Z"/>
        </g>
        <path class="cls-3" d="M50.23,101.97c-2.21,2.76-4.24,5.74-6.06,8.95-3.55-.66-7.47-1.9-11.47-4.09-13.77-7.53-17.24-25.37-15.09-31.22.33-.94.82-1.68,1.45-2.25,3.39,6.92,12.71,22.15,31.17,28.61Z"/>
        <path class="cls-11" d="M67.29,104.94c-.33.35-.67.7-1.01,1.03-.24.25-.48.48-.73.71h0c-.24.25-.48.47-.74.69-.19-.28-.38-.56-.54-.85-.35-.57-.66-1.17-.92-1.78.38.03.75.05,1.13.07h.01c.38.04.76.06,1.15.07.1,0,.21.02.32.02.44.02.89.03,1.34.04Z"/>
        <g>
          <path class="cls-9" d="M141.4,103.44c-.01.3-.02.55-.04.8v.1c-.03.23-.06.47-.09.7-.31,2.22-1.1,4.26-2.26,6.04-.36.56-.76,1.09-1.18,1.6-.22.26-.45.51-.7.75-.2-.26-.4-.52-.61-.79h-.01c-.19-.27-.39-.54-.59-.82-.27-.38-.55-.79-.83-1.2-3.85-5.74-6.55-13.03,1.12-16.4.18-.09.38-.17.59-.26.15-.05.31-.11.49-.17.16-.06.33-.12.5-.17h0l.65-.14.4-.1c.15.27.3.54.43.81.05.04.08.07.12.1l-.06.02c.35.69.66,1.4.94,2.12.23.67.43,1.34.61,2.02.4,1.63.58,3.3.51,4.99Z"/>
          <path class="cls-9" d="M168.89,118.24c-4.3,1.48-8.39,2.06-12,2.12-1.26-3.46-2.76-6.74-4.48-9.82,19.28-3.31,31.01-16.79,35.5-23.04.53.67.88,1.48,1.06,2.48,1.15,6.11-5.26,23.13-20.08,28.26Z"/>
          <path class="cls-8" d="M139.28,94.19c-.13-.27-.28-.54-.43-.81-.16-.3-.34-.6-.52-.89l-.83.18s-.01.01-.02.01c-.07.02-.15.04-.22.07-.31.09-.61.2-.89.32-.04.01-.07.02-.11.04-.32.13-.64.26-.93.41-2.34,1.14-3.88,2.73-4.59,4.74-1.16,3.35.02,7.69,3.52,12.91.32.47.63.93.95,1.37.2.26.4.53.59.79h0c.21.29.41.54.62.8.24-.23.48-.46.71-.7.25-.24.48-.49.7-.75-.22-.27-.42-.53-.63-.81.01,0,0-.01,0-.01-.2-.27-.4-.55-.6-.82-.05-.08-.11-.16-.17-.24-.17-.24-.33-.49-.5-.73h0c-3.08-4.62-4.23-8.47-3.29-11.15.61-1.73,2.12-3.08,4.45-3.99.07-.03.14-.06.23-.08.23-.09.46-.17.71-.25l.17-.04.11-.02h.01l1.03-.23.06-.02s-.07-.06-.12-.1Z"/>
        </g>
        <path class="cls-11" d="M139.01,111.08c-.36.56-.76,1.09-1.18,1.6-.22.26-.45.51-.7.75-.2-.26-.4-.52-.61-.79h-.01c-.19-.27-.39-.54-.59-.82-.27-.38-.55-.79-.83-1.2.45.07.9.14,1.34.18.11.02.22.03.32.05.38.04.75.08,1.12.11h.02c.37.05.75.09,1.12.12Z"/>
        <path class="cls-2" d="M168.89,118.24c-4.3,1.48-8.39,2.06-12,2.12-1.26-3.46-2.76-6.74-4.48-9.82,19.28-3.31,31.01-16.79,35.5-23.04.53.67.88,1.48,1.06,2.48,1.15,6.11-5.26,23.13-20.08,28.26Z"/>
        <g>
          <path class="cls-9" d="M71.55,185.83c-.14,1.55-.48,3.07-1,4.53-.71,2.01-1.79,3.88-3.25,5.55-7.08,8.13-20.4,8.13-29.72,0-9.33-8.13-11.14-21.32-4.05-29.46,7.09-8.12,20.4-8.13,29.73,0,6.02,5.25,8.92,12.62,8.29,19.37Z"/>
          <path class="cls-9" d="M93.91,194.34c5.85.49,11.04,2.43,14.74,5.2l-.38.37c-.09.08-.16.16-.26.24-.27.26-.56.51-.86.78-.29.27-.61.52-.92.78-.21.17-.42.34-.63.49-.11.09-.22.17-.33.25-.18.15-.38.28-.58.41-.27.19-.55.37-.83.54-.26.17-.53.33-.8.47-.03.02-.06.03-.09.05-.02,0-.04.03-.06.03-.27.15-.56.29-.84.43-.16.08-.31.15-.48.22-.31.14-.65.28-.99.41-.13.06-.26.1-.39.15-.21.07-.42.15-.64.21-.18.06-.36.11-.53.16-.18.04-.36.09-.54.14-.28.07-.55.12-.84.17-.03,0-.07.01-.1.02-.25.04-.52.09-.78.12-.04,0-.07.01-.1.01-.29.04-.59.07-.89.09-.07,0-.15,0-.22.01-.25.02-.51.03-.77.03-.02,0-.05,0-.07,0-.33,0-.66,0-1.01-.01-.24-.01-.48-.03-.73-.05s-.47-.04-.7-.07c-.35-.05-.69-.1-1.03-.16-.11-.02-.22-.04-.33-.06-.18-.03-.35-.07-.51-.11-.21-.04-.41-.09-.61-.14-.2-.06-.38-.11-.57-.17-.19-.06-.37-.11-.56-.18-.17-.05-.33-.12-.5-.18-.17-.05-.33-.13-.49-.19-.25-.1-.5-.21-.75-.33-.25-.11-.49-.24-.73-.36-.15-.08-.31-.17-.46-.26-.15-.08-.31-.18-.46-.27-.14-.09-.3-.19-.44-.28s-.29-.18-.43-.29c-.23-.15-.44-.32-.66-.49-.17-.12-.35-.26-.52-.41-.2-.15-.39-.31-.57-.48-.24-.21-.48-.44-.72-.66-.86-.84-1.63-1.71-2.32-2.58-.18-.23-.36-.45-.54-.68-.06-.09-.13-.16-.19-.25,0,0-.06-.1-.07-.1l-.26-.35c4.11-2.11,9.53-3.16,15.36-2.67Z"/>
          <path class="cls-9" d="M149.26,205.26c-10.56,6.47-23.68,4.26-29.32-4.94-1.15-1.88-1.9-3.9-2.28-5.99-.27-1.53-.35-3.09-.23-4.66.51-6.76,4.59-13.54,11.41-17.72,10.55-6.47,23.68-4.25,29.31,4.95,5.64,9.2,1.66,21.9-8.89,28.36Z"/>
          <path class="cls-9" d="M76.23,147.96c-.91,2.25-5.2,2.64-9.57.87-4.36-1.77-7.16-5.04-6.25-7.29.92-2.25,5.2-2.64,9.57-.87,4.36,1.77,7.16,5.02,6.25,7.29Z"/>
          <path class="cls-9" d="M76.53,164.92c-.21.27-.54.42-.87.39-.19-.02-.37-.09-.53-.22-.08-.05-8.08-6.15-17.49-7.04-.56-.05-.96-.54-.9-1.09.05-.55.53-.95,1.08-.9h.01c10.44-.71,18.18,7.19,18.52,7.46.44.34.52.96.18,1.4Z"/>
          <path class="cls-9" d="M141.4,103.44c-.01.3-.02.55-.04.8v.1c-.03.23-.06.47-.09.7-.31,2.22-1.1,4.26-2.26,6.04-.36.56-.76,1.09-1.18,1.6-.22.26-.45.51-.7.75-.23.24-.47.47-.71.7-3.3,3.01-7.92,4.68-12.88,4.26-2.74-.23-5.35-1.08-7.62-2.47-3.59,4.43-9.6,6.84-15.93,6.31-6.35-.53-11.87-3.91-14.67-8.88-2.48,1-5.2,1.4-7.92,1.18-4.96-.42-9.25-2.84-12.01-6.35-.21-.27-.4-.53-.59-.81-.19-.28-.38-.56-.54-.85-.35-.57-.66-1.17-.92-1.78-.84-1.95-1.27-4.07-1.21-6.29.02-.27.03-.51.05-.74.03-.35.06-.6.09-.85.22-1.71.68-3.35,1.36-4.91.29-.64.6-1.27.94-1.87.69-.46,1.38-.91,2.07-1.32.09-.06.19-.13.28-.18.34-.2.68-.4,1.02-.6.34-.2.66-.38,1.01-.56.11-.08.22-.14.34-.19,1.65-.9,3.29-1.7,4.92-2.39,4.68-2.02,9.2-3.28,13.24-4.04,8.85-1.69,15.37-1.05,16.08-.97.72.04,7.26.49,15.7,3.63,3.86,1.43,8.11,3.41,12.38,6.18,1.49.95,2.97,2,4.43,3.16.12.08.23.17.33.27.3.22.61.47.92.72.3.25.61.51.9.77.08.06.14.12.22.19h.01c.63.55,1.24,1.1,1.86,1.68.23.67.43,1.34.61,2.02.4,1.63.58,3.3.51,4.99Z"/>
          <path class="cls-9" d="M128.42,153.99c-4.6,1.04-8.76-.05-9.29-2.42-.54-2.37,2.77-5.14,7.37-6.17,4.59-1.03,8.75.07,9.29,2.44.52,2.37-2.77,5.12-7.37,6.15Z"/>
          <path class="cls-9" d="M136.84,163.67c-.04.55-.51.97-1.07.92-9.43-.68-18.34,4-18.42,4.04-.18.1-.37.14-.56.13-.32-.03-.63-.23-.79-.53-.26-.5-.08-1.09.4-1.35.39-.21,9.33-6.72,19.51-4.28h.01c.55.05.96.52.92,1.07Z"/>
          <path class="cls-8" d="M140.89,98.45c-.5-.51-1-1-1.51-1.48h-.02c-.6-.57-1.19-1.11-1.8-1.63-.16-.13-.32-.28-.48-.41-.29-.24-.58-.48-.87-.71-.3-.24-.59-.47-.88-.7-1.37-1.08-2.77-2.06-4.17-2.96-3.07-1.99-6.15-3.58-9.06-4.85-9.93-4.3-18.05-4.85-18.62-4.88-.6-.07-8.72-.88-19.22,1.7-3.08.76-6.38,1.82-9.76,3.28-1.53.66-3.07,1.4-4.6,2.23-.33.17-.65.35-.98.54-.32.18-.65.36-.97.56-.18.1-.37.21-.55.32-.68.42-1.37.85-2.06,1.32h-.01s-.01,0-.01,0c-.58.36-1.12.75-1.69,1.16.29-.64.6-1.27.94-1.87.39-.66.8-1.31,1.27-1.93l-.07-.04s.11-.06.16-.08c.3-.2.6-.38.91-.55.37-.22.73-.44,1.09-.63.2-.12.4-.24.6-.34t.02-.01s.01-.01.03-.02c1.22-.66,2.42-1.26,3.63-1.82.58-.27,1.16-.54,1.73-.78,5.81-2.47,11.38-3.8,16.1-4.5,7.7-1.14,13.13-.6,13.61-.55.45.03,5.87.4,13.26,2.8,4.53,1.47,9.81,3.71,15.13,7.12.51.33,1.03.68,1.55,1.02,1.11.77,2.19,1.58,3.3,2.44.02,0,.02.01.02.01.18.14.38.3.57.46.32.25.65.52.97.8.28.22.56.47.83.71.05.04.08.07.12.1l-.06.02c.35.69.66,1.4.94,2.12.23.67.43,1.34.61,2.02Z"/>
        </g>
        <path class="cls-13" d="M140.35,104.16v.1c-.03.23-.06.46-.09.69-1.06,7.63-8.35,13.15-16.65,12.45-2.98-.25-5.69-1.26-7.93-2.82-3.17,4.46-9.1,7.21-15.62,6.66s-11.92-4.24-14.29-9.17c-2.48,1.16-5.31,1.71-8.29,1.46-8.3-.7-14.58-7.35-14.35-15.05,0-.23.02-.46.04-.69v-.1c.03-.25.06-.5.09-.75,1.73-13.35,19.67-22.67,40.6-20.91s37.06,13.92,36.54,27.38c-.01.25-.02.5-.04.75Z"/>
        <path class="cls-10" d="M76.23,147.96c-.91,2.25-5.2,2.64-9.57.87-4.36-1.77-7.16-5.04-6.25-7.29.92-2.25,5.2-2.64,9.57-.87,4.36,1.77,7.16,5.02,6.25,7.29Z"/>
        <path class="cls-11" d="M71.55,185.83c-.14,1.55-.48,3.07-1,4.53-.71,2.01-1.79,3.88-3.25,5.55-7.08,8.13-20.4,8.13-29.72,0-9.33-8.13-11.14-21.32-4.05-29.46,7.09-8.12,20.4-8.13,29.73,0,6.02,5.25,8.92,12.62,8.29,19.37Z"/>
        <path class="cls-10" d="M128.42,153.99c-4.6,1.04-8.76-.05-9.29-2.42-.54-2.37,2.77-5.14,7.37-6.17,4.59-1.03,8.75.07,9.29,2.44.52,2.37-2.77,5.12-7.37,6.15Z"/>
        <path class="cls-11" d="M149.26,205.26c-10.56,6.47-23.68,4.26-29.32-4.94-1.15-1.88-1.9-3.9-2.28-5.99-.27-1.53-.35-3.09-.23-4.66.51-6.76,4.59-13.54,11.41-17.72,10.55-6.47,23.68-4.25,29.31,4.95,5.64,9.2,1.66,21.9-8.89,28.36Z"/>
        <path class="cls-11" d="M108.01,200.15c-.27.26-.56.51-.86.78-.29.27-.61.52-.92.78-.21.17-.42.34-.63.49-.11.09-.22.17-.33.25-.18.15-.38.28-.58.41-.27.19-.55.37-.83.54-.26.17-.53.33-.8.47-.03.02-.06.03-.09.05-.02,0-.04.03-.06.03-.27.15-.56.29-.84.43-.16.08-.31.15-.48.22-.31.14-.65.28-.99.41-.13.06-.26.1-.39.15-.21.07-.42.15-.64.21-.18.06-.36.11-.53.16-.18.04-.36.09-.54.14-.28.07-.55.12-.84.17-.03,0-.07.01-.1.02-.25.04-.52.09-.78.12-.04,0-.07.01-.1.01-.29.04-.59.07-.89.09-.07,0-.15,0-.22.01-.25.02-.51.03-.77.03-.02,0-.05,0-.07,0-.33,0-.66,0-1.01-.01-.24-.01-.48-.03-.73-.05s-.47-.04-.7-.07c-.35-.05-.69-.1-1.03-.16-.11-.02-.22-.04-.33-.06-.18-.03-.35-.07-.51-.11-.21-.04-.41-.09-.61-.14-.2-.06-.38-.11-.57-.17-.19-.06-.37-.11-.56-.18-.17-.05-.33-.12-.5-.18-.17-.05-.33-.13-.49-.19-.25-.1-.5-.21-.75-.33-.25-.11-.49-.24-.73-.36-.15-.08-.31-.17-.46-.26-.15-.08-.31-.18-.46-.27-.14-.09-.3-.19-.44-.28s-.29-.18-.43-.29c-.23-.15-.44-.32-.66-.49-.17-.12-.35-.26-.52-.41-.2-.15-.39-.31-.57-.48-.24-.21-.48-.44-.72-.66-.86-.84-1.63-1.71-2.32-2.58-.18-.23-.36-.45-.54-.68,4.02-1.91,9.2-2.83,14.74-2.37s10.53,2.25,14.19,4.81Z"/>
        <path class="cls-10" d="M71.53,66.66l-.05-.15c.13.14.05.15.05.15Z"/>
        <path class="cls-10" d="M71.53,66.66l-.05-.15c.13.14.05.15.05.15Z"/>
        <g>
          <path class="cls-7" d="M100.5,48.05l-.29,3.5c-.69,8.29-7.98,14.44-16.27,13.75l-.85-.07-2.26-4.58v-.1s.02-.02.02-.03c.38-1.2,1-2.95,1.98-5.51,0,0,0,0,.01-.02,2.87-4.75,8.25-7.72,14.15-7.22l3.51.29Z"/>
          <path class="cls-7" d="M69.71,69.15l-.73.7c-5.97,5.79-15.52,5.65-21.31-.32l-2.45-2.52,2.52-2.45c3.64-3.52,8.58-4.85,13.21-3.99,3.49,1.76,5.82,3.01,7.4,3.89.46,1.61.91,3.19,1.35,4.69Z"/>
          <path class="cls-7" d="M70.17,34.46l-1.89.67-3.44-6.98c-.38-6.51,3.55-12.77,10.01-15.06l3.32-1.18,1.17,3.31c2.78,7.85-1.33,16.46-9.17,19.23Z"/>
          <path class="cls-7" d="M60.7,37.81l-2.41.86c-7.85,2.77-16.46-1.33-19.23-9.17l-1.18-3.32,3.32-1.17c6.6-2.35,13.73.2,17.47,5.73.67,2.32,1.34,4.69,2.03,7.06Z"/>
          <path class="cls-10" d="M80.84,60.54s.01-.01.01-.02c.1-.3.2-.64.33-1.01.13-.38.27-.79.43-1.24.17-.45.35-.95.55-1.49.2-.55.42-1.14.66-1.78h.01s0-.01.01-.02c1.41-3.7,3.58-9.11,6.9-16.98,8.21-.96,14.1-8.36,13.2-16.6l-.39-3.49-3.49.39c-8.27.9-14.24,8.34-13.33,16.61l.03.25c-.12.11-.22.24-.31.38l-10.52,13.12-6.65-13.52-3.44-6.98-3.81-7.75c2.77-7.7-1.12-16.23-8.81-19.15l-3.27-1.26-1.26,3.29c-2.97,7.77.93,16.46,8.7,19.44.73,2.58,1.5,5.26,2.27,7.99h0s.01.02.01.03c.67,2.32,1.35,4.69,2.03,7.06,1.37,4.78,2.76,9.61,4.1,14.29l-15.36-2.63c-.1-.02-.19-.04-.28-.06l-.03-.06c-4.26-7.15-13.51-9.5-20.65-5.24l-3.03,1.79,1.81,3.02c4.26,7.15,13.48,9.5,20.63,5.25,5.56,2.65,9.81,4.75,13.06,6.39,3.49,1.76,5.82,3.01,7.4,3.9.23.81.46,1.6.68,2.38.23.79.46,1.55.68,2.31,1.39,4.88,2.62,9.1,3.53,12.26.1.36.2.71.29,1.05.11.37.21.72.3,1.05.04.13.08.26.11.37.1.34.2.66.27.96.11.36.21.69.29.97.33,1.15.51,1.77.51,1.77l9.25-5.05,3.19-1.73,2.59-1.42-.84-1.7-.46-.96-.47-.95-5.19-10.54-2.25-4.59-.02-.03s.02-.05.02-.07h.01ZM71.53,66.66l-.05-.16h0s0,.02.01.02c.02.03.03.05.04.06.02.05,0,.07,0,.07h-.01Z"/>
        </g>
        <g>
          <path class="cls-7" d="M111.82,49l-.29,3.5c-.69,8.29,5.47,15.57,13.76,16.27l.85.07,2.99-4.15v-.1s0-.02,0-.03c-.18-1.25-.5-3.07-1.03-5.77,0,0,0,0,0-.02-2.04-5.16-6.85-8.98-12.75-9.48l-3.51-.29Z"/>
          <path class="cls-7" d="M138.67,74.92l.6.81c4.93,6.7,14.36,8.16,21.06,3.23l2.83-2.08-2.08-2.83c-3-4.07-7.66-6.21-12.36-6.13-3.73,1.15-6.24,2-7.95,2.61-.72,1.52-1.42,2.99-2.11,4.4Z"/>
          <path class="cls-7" d="M143.98,40.65l1.75.98,4.55-6.31c1.46-6.36-1.37-13.18-7.37-16.51l-3.08-1.71-1.7,3.07c-4.05,7.28-1.43,16.45,5.84,20.49Z"/>
          <path class="cls-7" d="M152.76,45.53l2.23,1.25c7.28,4.04,16.45,1.43,20.49-5.84l1.71-3.08-3.08-1.7c-6.12-3.41-13.57-2.09-18.18,2.74-1.05,2.18-2.1,4.4-3.17,6.63Z"/>
          <path class="cls-10" d="M183.48,57.09c-6.33-5.38-15.84-4.61-21.23,1.74l-.04.05c-.09,0-.18,0-.29.02l-15.58.03c2.1-4.39,4.28-8.92,6.42-13.4.53-1.12,1.07-2.23,1.6-3.33.53-1.11,1.05-2.21,1.57-3.3,1.23-2.58,2.44-5.09,3.59-7.53,8.16-1.64,13.45-9.57,11.82-17.72l-.7-3.45-3.44.69c-8.06,1.61-13.32,9.37-11.86,17.42l-5.04,6.98h0s-.01.03-.01.03l-4.55,6.31-8.8,12.22-8.19-14.68c-.07-.16-.15-.3-.25-.43l.07-.24c2.28-8.01-2.37-16.33-10.37-18.6l-3.38-.96-.97,3.38c-2.25,7.97,2.32,16.25,10.26,18.56,1.96,8.31,3.2,14,3.98,17.89.01.01.01.02.01.02.53,2.7.85,4.52,1.03,5.77v.02h0s0,.02.01.03h0s0,.04.01.05l-.02.03-2.99,4.15-6.87,9.53-.62.85h0s-.62.87-.62.87l-1.11,1.54,2.32,1.83,2.87,2.25,8.27,6.51s.28-.59.79-1.66c.14-.27.28-.58.45-.92.14-.27.27-.57.43-.89.05-.11.11-.22.17-.35.14-.31.3-.64.47-.98h0c.15-.33.31-.65.47-.99,1.42-2.97,3.33-6.92,5.52-11.51.69-1.4,1.39-2.87,2.11-4.39h0s.11-.05.16-.06c.05-.02.11-.04.17-.06.22-.08.47-.16.72-.25.38-.13.79-.27,1.23-.42.93-.31,2-.66,3.24-1.06.23-.08.48-.15.73-.23.25-.08.5-.16.77-.24.3-.09.61-.19.93-.29,3.48-1.08,8.02-2.44,13.94-4.13,6.34,5.38,15.83,4.6,21.22-1.75l2.28-2.67-2.69-2.28ZM137.28,72.17s-.08-.03.07-.15l-.07.15Z"/>
        </g>
        <path class="cls-8" d="M140.89,98.45c-.18-.68-.38-1.35-.61-2.02-.28-.72-.59-1.43-.94-2.12-.02-.04-.03-.09-.06-.12-.13-.27-.28-.54-.43-.81-.16-.3-.34-.6-.52-.89-1.34-2.16-3.09-4.2-5.18-6.06-3.67-3.29-8.41-6.06-13.89-8.06-4.63-1.72-9.8-2.87-15.32-3.34-5.51-.46-10.81-.18-15.67.74-5.74,1.07-10.87,3.01-15.03,5.64-2.37,1.5-4.42,3.22-6.09,5.11-.25.26-.47.54-.68.81-.19.22-.37.46-.54.7-.04.03-.07.08-.09.12-.47.62-.88,1.27-1.27,1.93-.34.6-.65,1.23-.94,1.87-.68,1.56-1.14,3.2-1.36,4.91-.03.25-.06.5-.09.85-.02.23-.03.47-.05.74-.06,2.22.37,4.34,1.21,6.29.26.61.57,1.21.92,1.78.16.29.35.57.54.85.19.28.38.54.59.81,2.76,3.51,7.05,5.93,12.01,6.35,2.72.22,5.44-.18,7.92-1.18,2.8,4.97,8.32,8.35,14.67,8.88,6.33.53,12.34-1.88,15.93-6.31,2.27,1.39,4.88,2.24,7.62,2.47,4.96.42,9.58-1.25,12.88-4.26.24-.23.48-.46.71-.7.25-.24.48-.49.7-.75.42-.51.82-1.04,1.18-1.6,1.16-1.78,1.95-3.82,2.26-6.04.03-.23.06-.47.08-.7v-.1c.03-.25.04-.5.05-.8.07-1.69-.11-3.36-.51-4.99ZM139.4,103.39c-.01.23-.02.45-.04.68v.1c-.02.21-.05.41-.08.63-.31,2.26-1.2,4.31-2.53,6.05-.05.07-.1.12-.15.19-.21.27-.44.53-.68.78-.23.25-.47.49-.71.72-2.92,2.71-7.07,4.23-11.5,3.86-2.72-.23-5.29-1.15-7.45-2.64l-.81-.57-.57.8c-3.09,4.36-8.74,6.75-14.72,6.25-6-.51-11.16-3.8-13.48-8.61l-.43-.89-.9.42c-2.4,1.12-5.09,1.6-7.78,1.37-4.44-.37-8.27-2.56-10.71-5.72-.21-.27-.4-.56-.58-.84-.2-.29-.37-.58-.53-.87-.04-.07-.09-.15-.12-.22-1.01-1.93-1.55-4.1-1.49-6.39,0-.21.01-.41.04-.72.02-.23.04-.44.08-.69.35-2.73,1.44-5.3,3.14-7.62.11-.15.22-.29.34-.44.2-.26.42-.53.63-.79.22-.25.45-.5.67-.76h0c.08-.08.16-.15.24-.24.87-.91,1.85-1.77,2.92-2.57.53-.4,1.07-.78,1.62-1.15,4.19-2.74,9.46-4.76,15.37-5.83,4.56-.82,9.49-1.08,14.58-.65,5.08.42,9.89,1.49,14.24,3.06,5.65,2.04,10.53,4.91,14.19,8.31.48.45.94.91,1.38,1.37.92.98,1.74,1.98,2.45,3.03.09.1.15.2.22.31.19.28.37.57.54.85.18.3.34.59.51.89.08.16.17.33.25.49,1.3,2.58,1.95,5.29,1.84,8.05Z"/>
        <g>
          <path class="cls-1" d="M108.65,199.54l-.38.37c-.09.08-.16.16-.26.24-.27.26-.56.51-.86.78-.29.27-.61.52-.92.78-.21.17-.42.34-.63.49-.11.09-.22.17-.33.25-.18.15-.38.28-.58.41-.27.19-.55.37-.83.54-.26.17-.53.33-.8.47-.03.02-.06.03-.09.05-.02,0-.04.03-.06.03-.27.15-.56.29-.84.43-.16.08-.31.15-.48.22-.31.14-.65.28-.99.41-.13.06-.26.1-.39.15-.21.07-.42.15-.64.21-.18.06-.36.11-.53.16-.18.04-.36.09-.54.14-.28.07-.55.12-.84.17-.03,0-.07.01-.1.02-.25.04-.52.09-.78.12-.04,0-.07.01-.1.01-.29.04-.59.07-.89.09-.07,0-.15,0-.22.01-.25.02-.51.03-.77.03-.02,0-.05,0-.07,0-.33,0-.66,0-1.01-.01-.24-.01-.48-.03-.73-.05s-.47-.04-.7-.07c-.35-.05-.69-.1-1.03-.16-.11-.02-.22-.04-.33-.06-.18-.03-.35-.07-.51-.11-.21-.04-.41-.09-.61-.14-.2-.06-.38-.11-.57-.17-.19-.06-.37-.11-.56-.18-.17-.05-.33-.12-.5-.18-.17-.05-.33-.13-.49-.19-.25-.1-.5-.21-.75-.33-.25-.11-.49-.24-.73-.36-.15-.08-.31-.17-.46-.26-.15-.08-.31-.18-.46-.27-.14-.09-.3-.19-.44-.28s-.29-.18-.43-.29c-.23-.15-.44-.32-.66-.49-.17-.12-.35-.26-.52-.41-.2-.15-.39-.31-.57-.48-.24-.21-.48-.44-.72-.66-.86-.84-1.63-1.71-2.32-2.58-.18-.23-.36-.45-.54-.68-.06-.09-.13-.16-.19-.25,0,0-.06-.1-.07-.1l-.26-.35c4.11-2.11,9.53-3.16,15.36-2.67,5.85.49,11.04,2.43,14.74,5.2Z"/>
          <path class="cls-12" d="M71.52,185.81c-3.01-1.59-5.01-3.34-5.51-3.8-.4-.36-.99-.34-1.38.03-.38.37-.4.97-.05,1.37.04.05,2.74,3.16,5.77,6.71.06.08.12.16.2.24.52-1.46.86-2.98,1-4.53,0,0-.02,0-.03-.02ZM124.89,187.09c-.3-.43-.9-.55-1.34-.26-.58.37-2.85,1.75-6.08,2.82-.01.01-.03.01-.04.02-.12,1.57-.04,3.13.23,4.66.09-.08.16-.14.25-.21,3.56-3.02,6.75-5.63,6.81-5.67.41-.34.49-.94.17-1.36Z"/>
          <path class="cls-12" d="M117.43,189.67c-5.64,1.88-14.17,2.79-21.8-4.19-.09-.21-.25-.38-.45-.48-.13-.07-.3-.12-.44-.12-.15-.01-.31-.01-.45.04-.23.06-.41.21-.54.4-8.7,5.62-16.96,3.29-22.2.51-.14,1.55-.48,3.07-1,4.53,2.3,2.72,4.75,5.7,6.33,7.75l.19.23c.05.09.11.16.22.31,2.82,3.78,6.94,8.14,14.05,9.23.47.07.96.13,1.46.17.47.04.94.06,1.39.06.23.01.45.01.67.01.42-.01.84-.03,1.24-.07.07,0,.14,0,.2-.01.27-.02.55-.04.81-.08.51-.06,1-.15,1.48-.25.31-.06.62-.14.92-.22.4-.1.78-.21,1.14-.34.35-.11.69-.24,1.03-.37.06-.03.12-.05.18-.08.27-.11.53-.23.79-.35.32-.14.62-.29.93-.46.3-.16.6-.33.88-.5.3-.17.58-.35.86-.53.27-.17.54-.36.81-.55,1.32-.93,2.48-1.96,3.52-2.95l.27-.25c.06-.06.13-.12.22-.21,1.89-1.76,4.8-4.26,7.52-6.57-.27-1.53-.35-3.09-.23-4.66ZM108.27,199.91c-.08.09-.16.16-.26.24-.27.26-.55.52-.86.78-.29.27-.6.52-.91.78-.21.17-.42.33-.64.49-.11.09-.21.17-.33.25-.18.15-.38.28-.58.41-.26.19-.54.38-.82.55-.27.17-.53.32-.81.47-.03.02-.06.04-.09.05-.02.01-.04.03-.06.04-.28.16-.55.29-.84.43-.16.08-.32.15-.48.22-.32.15-.65.29-.99.41-.13.06-.26.1-.39.15-.21.07-.43.14-.64.2-.18.06-.36.11-.54.16-.18.04-.36.09-.54.14-.28.06-.55.12-.84.17-.03,0-.07.01-.1.02-.26.05-.52.08-.78.11-.04.01-.08.02-.11.01-.29.04-.58.07-.89.09-.07,0-.15.01-.22.01-.25.02-.51.03-.77.03-.02.01-.05,0-.07,0-.33,0-.66,0-1.02-.01-.24-.01-.47-.03-.72-.05-.24-.02-.47-.04-.7-.07-.35-.05-.69-.1-1.03-.16-.11-.02-.22-.04-.33-.06-.17-.03-.34-.07-.51-.11-.21-.04-.41-.09-.61-.14-.2-.06-.38-.11-.57-.17-.18-.06-.37-.11-.55-.18-.17-.05-.34-.11-.5-.18-.17-.05-.32-.12-.49-.19-.25-.1-.51-.21-.75-.33-.25-.12-.49-.24-.73-.37-.16-.08-.32-.16-.46-.26-.16-.08-.31-.17-.46-.27-.16-.08-.3-.17-.44-.27-.14-.09-.29-.19-.43-.29-.23-.15-.44-.32-.66-.49-.17-.12-.35-.26-.52-.41-.2-.15-.38-.31-.57-.48-.25-.21-.49-.43-.72-.66-.86-.84-1.63-1.71-2.32-2.59-.19-.22-.37-.45-.54-.67-.06-.09-.12-.16-.19-.25,0-.02-.06-.09-.07-.1l-.26-.35c4.11-2.11,9.53-3.15,15.36-2.67,5.85.49,11.03,2.43,14.74,5.2l-.39.37Z"/>
        </g>
        <path class="cls-8" d="M136.84,163.67c-.04.55-.51.97-1.07.92-9.43-.68-18.34,4-18.42,4.04-.18.1-.37.14-.56.13-.32-.03-.63-.23-.79-.53-.26-.5-.08-1.09.4-1.35.39-.21,9.33-6.72,19.51-4.28h.01c.55.05.96.52.92,1.07Z"/>
        <path class="cls-9" d="M143.43,215.53c1.13-.41,1.75-.67,1.78-.68.09-.03.18-.06.27-.07h0c.23-.12.45-.24.67-.37.22-.12.44-.24.65-.37.43-.25.85-.51,1.25-.77l-4.63,2.26ZM36.84,203.46c.28.27.56.53.86.79.29.26.59.52.9.78.62.52,1.27,1.03,1.96,1.54.01,0,.03.01.05.03.56.33,1.47.85,2.68,1.5.18.09.36.18.54.28.19.1.38.2.58.3.2.1.4.21.61.31.01.01.02.01.03.02.48.24,1,.5,1.54.76.56.27,1.15.55,1.76.83.34.16.69.32,1.04.47l-12.55-7.61Z"/>
        <path class="cls-9" d="M152.25,110.56c.07-.01.12-.02.16-.02,19.28-3.31,31.01-16.79,35.5-23.04-.05-.06-.09-.12-.15-.18-2.31-2.68-6.89-2.07-6.94-2.06l-41.42,9.03-.06.02c.35.69.66,1.4.94,2.12.23.67.43,1.34.61,2.02.4,1.63.58,3.3.51,4.99-.01.3-.02.55-.04.8v.1c-.03.23-.06.47-.09.7-.31,2.22-1.1,4.26-2.26,6.04-.36.56-.76,1.09-1.18,1.6-.22.26-.45.51-.7.75-.23.24-.47.47-.71.7-3.3,3.01-7.92,4.68-12.88,4.26-2.74-.23-5.35-1.08-7.62-2.47-3.59,4.43-9.6,6.84-15.93,6.31-6.35-.53-11.87-3.91-14.67-8.88-2.48,1-5.2,1.4-7.92,1.18-4.96-.42-9.25-2.84-12.01-6.35-.21-.27-.4-.53-.59-.81-.19-.28-.38-.56-.54-.85-.35-.57-.66-1.17-.92-1.78-.84-1.95-1.27-4.07-1.21-6.29.02-.27.03-.51.05-.74.03-.35.06-.6.09-.85.22-1.71.68-3.35,1.36-4.91.29-.64.6-1.27.94-1.87.39-.66.8-1.31,1.27-1.93l-.07-.04-39.42-15.81s-.85-.26-2.03-.35c-1.51-.13-3.57-.01-5.08,1.25-.06.05-.13.11-.18.16,3.39,6.92,12.71,22.15,31.17,28.61.14.05.46.16.81.28.6.19.81.91.42,1.4-1.87,2.37-3.6,4.91-5.18,7.62-.19.31-.38.63-.54.94-.19.32-.37.64-.54.95-7.1,12.99-11.16,29.58-12.11,49.64v.38s-.28.26-.28.26c-.06.08-6.71,7.21-5.36,20.24.04.39.09.77.14,1.17.02.2.05.39.08.59.02.19.05.39.09.59.06.37.12.73.19,1.1.17.88.37,1.78.63,2.69.08.29.17.59.26.89.19.63.41,1.26.66,1.9.08.21.17.42.26.64.11.28.23.55.36.83.03.08.07.16.11.24.05.13.11.26.18.39.05.11.1.22.16.33.06.14.14.28.21.42.12.23.24.46.37.69.14.26.28.51.44.77.15.26.31.52.48.78.12.18.23.35.35.53.19.3.4.6.62.9.15.21.31.43.47.64.16.2.32.41.49.62.25.3.51.61.78.92.13.15.27.31.41.46.13.15.27.3.43.46.2.21.39.42.6.62.2.21.41.41.62.61l12.55,7.61s.02.02.03.02c.61.27,1.24.55,1.89.82.23.1.47.2.71.3.45.19.9.38,1.36.56.4.17.81.33,1.22.49,1.03.4,2.1.8,3.22,1.2.39.14.79.28,1.2.42.4.14.81.28,1.22.41,3.12,1.03,6.52,2,10.13,2.8.58.13,1.14.26,1.68.39,5.76,1.1,12.26,1.98,19.6,2.59h.09c6.93.58,13.16.81,18.76.74h.04c.87-.08,1.77-.15,2.71-.2,3.69-.2,7.2-.6,10.45-1.1.43-.07.86-.14,1.28-.21.42-.07.84-.14,1.25-.22.51-.09,1.01-.18,1.5-.28.32-.06.63-.12.94-.18.31-.07.61-.13.91-.19.78-.17,1.53-.33,2.27-.51.42-.09.83-.19,1.23-.29.3-.07.59-.14.88-.22.57-.14,1.13-.29,1.67-.43.4-.11.79-.22,1.17-.33.38-.1.75-.21,1.11-.32.48-.14.94-.28,1.37-.41,1.12-.34,2.09-.66,2.91-.95.23-.08.45-.16.65-.23.18-.06.35-.12.51-.18.03-.01.06-.02.08-.03l4.63-2.26s.03-.01.04-.02c.26-.17.51-.33.75-.5.1-.06.19-.13.29-.2.39-.27.76-.54,1.12-.82.23-.17.45-.34.67-.52.22-.18.44-.35.65-.53s.42-.37.62-.55c.21-.18.41-.36.6-.55.34-.32.67-.65.99-.98.64-.66,1.23-1.33,1.76-2.01.26-.34.52-.68.77-1.02.15-.2.29-.4.42-.59.21-.31.41-.61.6-.91.43-.67.81-1.34,1.17-2.02.23-.44.45-.88.65-1.31.39-.84.74-1.67,1.04-2.49.1-.25.19-.5.27-.75.18-.5.34-1,.49-1.5.12-.37.23-.74.33-1.11,3.48-12.62-1.88-20.76-1.94-20.84l-.2-.31.04-.37c2.4-19.94,1.17-36.98-3.68-50.96-.12-.36-.24-.7-.37-1.03-.12-.35-.25-.69-.38-1.03-1.03-2.71-2.2-5.29-3.5-7.75-.46-.85.04-1.88.99-2.04ZM126.5,145.4c4.59-1.03,8.75.07,9.29,2.44.52,2.37-2.77,5.12-7.37,6.15-4.6,1.04-8.76-.05-9.29-2.42-.54-2.37,2.77-5.14,7.37-6.17ZM116.4,166.88c.39-.21,9.33-6.72,19.51-4.28h.01c.55.05.96.52.92,1.07-.04.55-.51.97-1.07.92-9.43-.68-18.34,4-18.42,4.04-.18.1-.37.14-.56.13-.32-.03-.63-.23-.79-.53-.26-.5-.08-1.09.4-1.35ZM60.41,141.54c.92-2.25,5.2-2.64,9.57-.87,4.36,1.77,7.16,5.02,6.25,7.29-.91,2.25-5.2,2.64-9.57.87-4.36-1.77-7.16-5.04-6.25-7.29ZM57.82,156.06h.01c10.44-.71,18.18,7.19,18.52,7.46.44.34.52.96.18,1.4-.21.27-.54.42-.87.39-.19-.02-.37-.09-.53-.22-.08-.05-8.08-6.15-17.49-7.04-.56-.05-.96-.54-.9-1.09.05-.55.53-.95,1.08-.9ZM158.15,176.9c5.64,9.2,1.66,21.9-8.89,28.36-10.56,6.47-23.68,4.26-29.32-4.94-1.15-1.88-1.9-3.9-2.28-5.99-2.72,2.31-5.63,4.81-7.52,6.57-.09.09-.16.15-.22.21l-.27.25c-1.04.99-2.2,2.02-3.52,2.95-.27.19-.54.38-.81.55-.28.18-.56.36-.86.53-.28.17-.58.34-.88.5-.31.17-.61.32-.93.46-.26.12-.52.24-.79.35-.06.03-.12.05-.18.08-.34.13-.68.26-1.03.37-.36.13-.74.24-1.14.34-.3.08-.61.16-.92.22-.48.1-.97.19-1.48.25-.26.04-.54.06-.81.08-.06.01-.13.01-.2.01-.4.04-.82.06-1.24.07-.22,0-.44,0-.67-.01-.45,0-.92-.02-1.39-.06-.5-.04-.99-.1-1.46-.17-7.11-1.09-11.23-5.45-14.05-9.23-.11-.15-.17-.22-.22-.31l-.19-.23c-1.58-2.05-4.03-5.03-6.33-7.75-.71,2.01-1.79,3.88-3.25,5.55-7.08,8.13-20.4,8.13-29.72,0-9.33-8.13-11.14-21.32-4.05-29.46,7.09-8.12,20.4-8.13,29.73.01,6.02,5.25,8.92,12.62,8.29,19.37,5.24,2.78,13.5,5.11,22.2-.51.13-.19.31-.34.54-.4.14-.05.3-.05.45-.04.14,0,.31.05.44.12.2.1.36.27.45.48,7.63,6.98,16.16,6.07,21.8,4.19.51-6.76,4.59-13.54,11.41-17.72,10.55-6.47,23.68-4.25,29.31,4.95Z"/>
        <path class="cls-6" d="M100.06,223.63c-5.04,1.44-7.67,3.28-8.93,4.44-1.05-1.36-3.37-3.62-8.16-5.88,2.71.34,5.55.63,8.53.88h.07c2.95.25,5.78.43,8.49.56Z"/>
        <path class="cls-8" d="M76.53,164.92c-.21.27-.54.42-.87.39-.19-.02-.37-.09-.53-.22-.08-.05-8.08-6.15-17.49-7.04-.56-.05-.96-.54-.9-1.09.05-.55.53-.95,1.08-.9h.01c10.44-.71,18.18,7.19,18.52,7.46.44.34.52.96.18,1.4Z"/>
      </g>
      <path class="cls-8" d="M147.16,281.36c.03.55-.4,1.02-.95,1.04h-.05c-.53,0-.97-.42-.99-.95-.01-.28-.03-.56-.04-.84v-.28l1.98-.14c.02.39.03.78.05,1.17Z"/>
    </g>
    <polygon class="cls-8" points="91.7 221.07 91.65 221.07 91.65 221.06 91.7 221.07"/>
  </g>
</svg>