<?xml version="1.0" encoding="UTF-8"?>
<svg id="_레이어_2" data-name="레이어 2" xmlns="http://www.w3.org/2000/svg" xmlns:xlink="http://www.w3.org/1999/xlink" viewBox="0 0 432.59 347.11">
  <defs>
    <style>
      .cls-1 {
        fill: url(#linear-gradient-4);
      }

      .cls-2 {
        fill: url(#linear-gradient-3);
      }

      .cls-3 {
        fill: url(#linear-gradient-2);
      }

      .cls-4 {
        fill: url(#linear-gradient);
      }

      .cls-5 {
        fill: #e0dfea;
      }

      .cls-6 {
        fill: #0099ec;
      }

      .cls-7 {
        fill: #231815;
      }

      .cls-8 {
        fill: #fff;
      }

      .cls-9 {
        fill: #002d71;
      }

      .cls-10 {
        fill: #ffccc1;
      }

      .cls-11 {
        fill: #191919;
      }

      .cls-12 {
        fill: #002c6e;
      }
    </style>
    <linearGradient id="linear-gradient" x1="236.63" y1="90.6" x2="261.14" y2="109.24" gradientUnits="userSpaceOnUse">
      <stop offset="0" stop-color="#ffccc1"/>
      <stop offset="1" stop-color="#f9afa2"/>
    </linearGradient>
    <linearGradient id="linear-gradient-2" x1="398.42" y1="87.76" x2="365.48" y2="107.93" xlink:href="#linear-gradient"/>
    <linearGradient id="linear-gradient-3" x1="315.21" y1="189.83" x2="315.21" y2="201.58" xlink:href="#linear-gradient"/>
    <linearGradient id="linear-gradient-4" x1="315.28" y1="319.9" x2="315.28" y2="248.51" gradientUnits="userSpaceOnUse">
      <stop offset="0" stop-color="#e0dfea"/>
      <stop offset="0" stop-color="#e0dfea"/>
      <stop offset=".31" stop-color="#f1f1f5"/>
      <stop offset=".63" stop-color="#fbfbfc"/>
      <stop offset="1" stop-color="#fff"/>
    </linearGradient>
  </defs>
  <g id="turnaround">
    <g>
      <g>
        <g>
          <path class="cls-8" d="M358.14,309.34c-.01.06-.01.12-.02.19-.07.58-.14,1.21-.22,1.88-.05.4-.1.81-.16,1.23v.04c-.04.35-.09.71-.15,1.08-.04.34-.09.68-.14,1.02-.11.72-.22,1.47-.34,2.23-.39,2.5-.88,5.19-1.48,7.87-.13.59-.26,1.18-.41,1.76-.03.13-.06.26-.09.39-.11.45-.22.89-.34,1.33-.04.14-.08.29-.12.43-.15.58-.31,1.15-.48,1.72-.03.09-.06.19-.09.28h-34.59s-.02-.11-.03-.17c-.58-3.37-.88-7.33-.92-11.79h8.01c.56,0,1-.45,1-1,0-.04,0-.08-.01-.12-.06-.49-.47-.88-.99-.88h-23.49c-.51,0-.93.39-.99.88-.01.04-.01.08-.01.12,0,.55.45,1,1,1h5.64c-.02,2.7-.93,5.52-2.73,8.46-.02.06-.06.11-.1.18-2.54,4.06-5.05,7.49-7.46,10.2-.04.04-.08.09-.11.13l-29.35-18.34c.03-.1.05-.19.08-.28.17-.61.35-1.23.54-1.84.19-.62.39-1.24.59-1.86.1-.31.2-.61.31-.92.1-.31.21-.61.32-.92.11-.31.22-.61.33-.92.15-.42.3-.84.46-1.25,0-.04.03-.07.04-.11.17-.46.34-.91.52-1.36.09-.22.17-.44.26-.66h85.72Z"/>
          <path class="cls-8" d="M298.32,337.8c-8.76,9.72-13.49,6.95-13.69,6.82l-14.62-9.13c-3.8-2.37-2.69-9.97-1.04-16.03l29.35,18.34Z"/>
        </g>
        <path class="cls-8" d="M354.1,330.79c-1.8,6.02-4.88,13.04-9.36,13.04h-17.24c-.24,0-5.72-.15-7.99-13.04h34.59Z"/>
        <path class="cls-9" d="M298.32,337.8c-8.76,9.72-13.49,6.95-13.69,6.82l-14.62-9.13c-3.8-2.37-2.69-9.97-1.04-16.03l29.35,18.34Z"/>
        <path class="cls-7" d="M298.96,302.13h-4.07c-.08-.05-.17-.1-.26-.14-1.28-.68-2.58-1.3-3.86-1.86h4.69c1.11.58,2.21,1.2,3.28,1.86.08.05.15.09.22.14Z"/>
        <path class="cls-7" d="M353.02,302.13h-26.61c.11-.05.23-.1.35-.14,7.88-3.07,18.57-1.59,25.66,0,.2.05.4.1.6.14Z"/>
        <path class="cls-9" d="M354.1,330.79c-1.8,6.02-4.88,13.04-9.36,13.04h-17.24c-.24,0-5.72-.15-7.99-13.04h34.59Z"/>
        <g>
          <g>
            <path class="cls-8" d="M248.88,194.94l-15.28,24.23-8.2-5.18c-2.33-1.47-3.04-4.56-1.57-6.89l9.96-15.77c1.46-2.34,4.55-3.03,6.89-1.56l8.2,5.17Z"/>
            <path class="cls-7" d="M253.89,231.97v.02s1.19.72,1.19.72l-1.19-.74Z"/>
          </g>
          <path class="cls-9" d="M248.88,194.94l-15.28,24.23-8.2-5.18c-2.33-1.47-3.04-4.56-1.57-6.89l9.96-15.77c1.46-2.34,4.55-3.03,6.89-1.56l8.2,5.17Z"/>
        </g>
        <g>
          <path class="cls-8" d="M266.42,309.02c-1.24-.32-2.29-1.08-2.99-2.12.75.98,1.79,1.73,2.99,2.12Z"/>
          <path class="cls-8" d="M353.02,302.13h-58.13c-.08-.05-.17-.1-.26-.14h57.79c.2.05.4.1.6.14Z"/>
        </g>
        <g>
          <path class="cls-7" d="M314.14,227.24c-.16-.07-.3-.19-.39-.36.09.15.22.27.39.36Z"/>
          <path class="cls-7" d="M315.48,226.83s0,.03-.02.05c-.03.04-.07.09-.11.13.04-.04.07-.08.1-.13.01-.01.02-.03.03-.05Z"/>
        </g>
        <path class="cls-12" d="M430.59,312.11c0,5.79-6.2,10.49-13.81,10.49-1.11,0-2.22-.1-3.31-.32.47-1.46.99-4.07-.1-6.8-1.23-3.06-4.09-5.37-8.52-6.88-.53-.18-1.1.1-1.27.63-.18.52.1,1.09.62,1.27,3.84,1.3,6.3,3.22,7.3,5.7,1.17,2.88,0,5.72-.24,6.26l-.02.02c-2.01,3.11-6.26,4.89-11.65,4.89-2.5,0-4.97-.53-7.13-1.53-.05-.02-.09-.03-.14-.05-.01,0-.02,0-.04-.01-1.15-.49-5.35-3.35-8.26-5.41.69-1.11,1.65-3.17,1.42-5.79-.29-3.19-2.22-6.22-5.74-9.02-.44-.34-1.06-.27-1.41.17-.34.43-.27,1.06.17,1.4,3.06,2.43,4.74,4.99,4.98,7.6.26,2.85-1.32,4.91-1.54,5.18-.01.02-.02.03-.02.03-.4.36-3.11,2.71-6.27,2.45-3.86-.31-7.27-2.34-9.11-5.43-.03-.05-.08-.11-.12-.16l-5.07-7.46h.75c3.42,0,6.21-2.79,6.21-6.21v-1.66c2.74-3.53,4.61-7.43,5.79-11.53,15.4,11.36,35.27,11.88,41.46,11.73.42-.03.83-.05,1.26-.05,7.61,0,13.81,4.71,13.81,10.49Z"/>
        <g>
          <path class="cls-8" d="M405.83,253.02l-11.03,15.03c-1.63,2.22-4.77,2.7-6.99,1.07l-7.82-5.74,16.96-23.09,7.81,5.74c2.23,1.64,2.71,4.77,1.07,6.99Z"/>
          <path class="cls-9" d="M405.83,253.02l-11.03,15.03c-1.63,2.22-4.77,2.7-6.99,1.07l-7.82-5.74,16.96-23.09,7.81,5.74c2.23,1.64,2.71,4.77,1.07,6.99Z"/>
        </g>
        <g>
          <path class="cls-5" d="M324.13,218.56c-5.18,1.89-7.74,4.02-8.92,5.31-1.18-1.29-3.74-3.42-8.92-5.31,2.84.11,5.81.17,8.92.17s6.08-.06,8.92-.17Z"/>
          <path class="cls-8" d="M316.06,226.02c-.03.05-.06.09-.1.13.04-.04.08-.09.11-.13.01-.02.01-.03.02-.05-.01.02-.02.04-.03.05Z"/>
        </g>
        <g>
          <path class="cls-8" d="M263.95,101.5c-.14.21-.28.42-.41.63-.11.16-.22.33-.33.5-.08.12-.15.24-.22.36-.01,0-.01.01-.01.01-.2.31-.4.63-.59.94-.2.31-.39.63-.58.95h0c-.3.52-.6,1.03-.87,1.55-.15.26-.29.52-.43.78-.01.01-.02.03-.02.04-.17.3-.33.61-.49.92-.12.22-.24.46-.35.69-.34.67-.68,1.36-1,2.06-.32-.03-.65-.07-.98-.11-.29-.04-.59-.08-.89-.13-.26-.03-.52-.08-.79-.12-.34-.06-.69-.13-1.05-.2-.21-.04-.43-.09-.66-.14-.06-.01-.12-.03-.18-.04-.05-.01-.09-.02-.14-.03-.26-.05-.53-.12-.79-.19-.37-.09-.74-.19-1.12-.3-.29-.08-.58-.17-.87-.26-.35-.1-.71-.22-1.06-.34h-.01c-.35-.12-.72-.25-1.07-.38h-.01c-.11-.05-.21-.09-.32-.13-.23-.08-.47-.17-.71-.27-.31-.12-.61-.25-.92-.39-.07-.03-.13-.06-.2-.09-1.97-.87-3.77-1.96-5.39-3.19-.97-.73-1.88-1.52-2.73-2.37-.32-.32-.64-.64-.95-.97-.09-.1-.19-.21-.28-.31h-.01c-.1-.11-.19-.22-.29-.33-.15-.18-.31-.35-.46-.53-.32-.38-.63-.77-.93-1.16-.18-.23-.35-.47-.52-.7-.21-.29-.42-.59-.62-.88-.28-.41-.55-.83-.81-1.25-.08-.13-.15-.25-.23-.38-.07-.11-.14-.23-.2-.34h-.01c-.06-.1-.12-.21-.17-.31-.07-.12-.14-.25-.21-.37-.14-.26-.28-.52-.42-.78-.12-.24-.25-.48-.37-.73h-.01c-.08-.15-.15-.31-.23-.48-.04-.08-.08-.17-.11-.25h-.01c-.08-.16-.15-.33-.22-.49-.04-.08-.07-.16-.1-.24-.11-.24-.22-.48-.32-.72h0c-.07-.17-.13-.33-.19-.49-.01-.02-.02-.04-.02-.06-.02-.06-.05-.12-.07-.18h-.01c-.03-.08-.06-.16-.09-.24-.06-.16-.12-.32-.17-.48h0c-.06-.16-.12-.32-.17-.48-.11-.31-.21-.63-.31-.94h-.01c-.08-.26-.16-.53-.23-.79-.11-.36-.21-.71-.29-1.06-.01-.07-.03-.15-.05-.22-.06-.22-.11-.44-.16-.67h0c-.05-.23-.1-.44-.13-.66-.02-.07-.04-.15-.05-.22-.03-.14-.05-.28-.07-.42h-.01c-.05-.27-.09-.53-.12-.78-.02-.21-.04-.42-.06-.63-.01-.05-.02-.1-.02-.14-.01-.02-.01-.05-.01-.07-.01-.02-.01-.05-.01-.07-.01-.05-.02-.1-.02-.15-.02-.14-.03-.29-.03-.43,0-.04,0-.07-.01-.11,0-.07-.01-.14-.01-.2-.01-.07-.01-.13-.01-.2-.01-.04-.01-.08-.01-.12,0-.02,0-.04.01-.06h-.01c-.03-.74-.01-1.41.07-2.01.04-.44.12-.83.22-1.19.06-.2.12-.39.19-.57.03-.09.06-.17.09-.24.07-.17.15-.33.24-.49.09-.17.18-.33.29-.48.05-.07.09-.13.15-.19.02-.03.04-.06.07-.09.07-.1.15-.2.24-.29,1.74,2.89,4.73,7.27,9.14,11.69,1.26,1.26,2.63,2.53,4.13,3.77,5.23,4.33,11.91,8.29,20.19,10.43Z"/>
          <path class="cls-4" d="M263.95,101.5c-.14.21-.28.42-.41.63-.11.16-.22.33-.33.5-.08.12-.15.24-.22.36-.01,0-.01.01-.01.01-.2.31-.4.63-.59.94-.2.31-.39.63-.58.95h0c-.3.52-.6,1.03-.87,1.55-.15.26-.29.52-.43.78-.01.01-.02.03-.02.04-.17.3-.33.61-.49.92-.12.22-.24.46-.35.69-.34.67-.68,1.36-1,2.06-.32-.03-.65-.07-.98-.11-.29-.04-.59-.08-.89-.13-.26-.03-.52-.08-.79-.12-.34-.06-.69-.13-1.05-.2-.21-.04-.43-.09-.66-.14-.06-.01-.12-.03-.18-.04-.05-.01-.09-.02-.14-.03-.26-.05-.53-.12-.79-.19-.37-.09-.74-.19-1.12-.3-.29-.08-.58-.17-.87-.26-.35-.1-.71-.22-1.06-.34h-.01c-.35-.12-.72-.25-1.07-.38h-.01c-.11-.05-.21-.09-.32-.13-.23-.08-.47-.17-.71-.27-.31-.12-.61-.25-.92-.39-.07-.03-.13-.06-.2-.09-1.97-.87-3.77-1.96-5.39-3.19-.97-.73-1.88-1.52-2.73-2.37-.32-.32-.64-.64-.95-.97-.09-.1-.19-.21-.28-.31h-.01c-.1-.11-.19-.22-.29-.33-.15-.18-.31-.35-.46-.53-.32-.38-.63-.77-.93-1.16-.18-.23-.35-.47-.52-.7-.21-.29-.42-.59-.62-.88-.28-.41-.55-.83-.81-1.25-.08-.13-.15-.25-.23-.38-.07-.11-.14-.23-.2-.34h-.01c-.06-.1-.12-.21-.17-.31-.07-.12-.14-.25-.21-.37-.14-.26-.28-.52-.42-.78-.12-.24-.25-.48-.37-.73h-.01c-.08-.15-.15-.31-.23-.48-.04-.08-.08-.17-.11-.25h-.01c-.08-.16-.15-.33-.22-.49-.04-.08-.07-.16-.1-.24-.11-.24-.22-.48-.32-.72h0c-.07-.17-.13-.33-.19-.49-.01-.02-.02-.04-.02-.06-.02-.06-.05-.12-.07-.18h-.01c-.03-.08-.06-.16-.09-.24-.06-.16-.12-.32-.17-.48h0c-.06-.16-.12-.32-.17-.48-.11-.31-.21-.63-.31-.94h-.01c-.08-.26-.16-.53-.23-.79-.11-.36-.21-.71-.29-1.06-.01-.07-.03-.15-.05-.22-.06-.22-.11-.44-.16-.67h0c-.05-.23-.1-.44-.13-.66-.02-.07-.04-.15-.05-.22-.03-.14-.05-.28-.07-.42h-.01c-.05-.27-.09-.53-.12-.78-.02-.21-.04-.42-.06-.63-.01-.05-.02-.1-.02-.14-.01-.02-.01-.05-.01-.07-.01-.02-.01-.05-.01-.07-.01-.05-.02-.1-.02-.15-.02-.14-.03-.29-.03-.43,0-.04,0-.07-.01-.11,0-.07-.01-.14-.01-.2-.01-.07-.01-.13-.01-.2-.01-.04-.01-.08-.01-.12,0-.02,0-.04.01-.06h-.01c-.03-.74-.01-1.41.07-2.01.04-.44.12-.83.22-1.19.06-.2.12-.39.19-.57.03-.09.06-.17.09-.24.07-.17.15-.33.24-.49.09-.17.18-.33.29-.48.05-.07.09-.13.15-.19.02-.03.04-.06.07-.09.07-.1.15-.2.24-.29,1.74,2.89,4.73,7.27,9.14,11.69,1.26,1.26,2.63,2.53,4.13,3.77,5.23,4.33,11.91,8.29,20.19,10.43Z"/>
          <g>
            <path class="cls-8" d="M357.5,109.74c.24.08.57.17.96.27-.4-.1-.72-.19-.96-.27Z"/>
            <path class="cls-8" d="M230.66,75.42c-.06.06-.12.12-.17.18h0s.01,0,.01,0c.05-.06.11-.12.17-.18h0ZM259.86,113.08h.01s.04-.1.06-.15c-.02.05-.04.1-.07.15ZM262.87,107.08c-.09.15-.17.31-.25.46.17-.32.35-.63.53-.94-.1.16-.19.32-.28.48ZM263.56,105.9c.14-.24.28-.47.43-.7,0-.01,0-.03.01-.04-.16.25-.31.49-.44.74ZM264.56,104.24c-.15.23-.29.47-.42.7.18-.31.37-.61.56-.91-.05.07-.1.14-.14.21Z"/>
            <path class="cls-8" d="M401.07,84.76c-.04.22-.09.44-.14.66-.24,1.1-.56,2.26-.97,3.44-.32.95-.69,1.92-1.12,2.89-.33.73-.68,1.46-1.06,2.19-.12.24-.25.49-.39.73-1.47,2.67-3.37,5.29-5.72,7.58-2.27,2.24-4.97,4.17-8.11,5.56h-.01c-.36.16-.73.31-1.09.46-.36.14-.72.28-1.08.42-.36.13-.71.26-1.07.38-.18.07-.36.13-.53.18-.18.06-.35.11-.53.16-.29.09-.57.18-.86.26-.06.02-.13.04-.19.05-.35.1-.69.19-1.03.27-.15.04-.29.08-.44.11-.09.02-.17.04-.26.05-.24.06-.47.11-.7.16-.25.05-.5.1-.74.14-.21.05-.42.09-.63.12-.14.03-.28.05-.41.07-.14.02-.26.04-.39.06-.25.04-.49.07-.72.1-.37.05-.74.09-1.1.13h-.01c-.19-.42-.39-.83-.59-1.25-.11-.23-.23-.46-.34-.69-.09-.18-.18-.36-.27-.53-.21-.41-.42-.81-.64-1.21-.13-.26-.27-.51-.41-.76-.29-.53-.59-1.05-.89-1.56-.28-.47-.55-.93-.84-1.39-.34-.54-.68-1.08-1.04-1.61-.09-.14-.18-.29-.28-.43,18.93-4.89,29.5-19.29,33.46-25.9.3.31.54.66.76,1.06.2.39.38.83.51,1.31.1.36.17.77.23,1.22.17,1.5.06,3.42-.36,5.57Z"/>
          </g>
          <path class="cls-10" d="M357.5,109.74c.24.08.57.17.96.27-.4-.1-.72-.19-.96-.27Z"/>
          <path class="cls-3" d="M401.07,84.76c-.04.22-.09.44-.14.66-.24,1.1-.56,2.26-.97,3.44-.32.95-.69,1.92-1.12,2.89-.33.73-.68,1.46-1.06,2.19-.12.24-.25.49-.39.73-1.47,2.67-3.37,5.29-5.72,7.58-2.27,2.24-4.97,4.17-8.11,5.56h-.01c-.36.16-.73.31-1.09.46-.36.14-.72.28-1.08.42-.36.13-.71.26-1.07.38-.18.07-.36.13-.53.18-.18.06-.35.11-.53.16-.29.09-.57.18-.86.26-.06.02-.13.04-.19.05-.35.1-.69.19-1.03.27-.15.04-.29.08-.44.11-.09.02-.17.04-.26.05-.24.06-.47.11-.7.16-.25.05-.5.1-.74.14-.21.05-.42.09-.63.12-.14.03-.28.05-.41.07-.14.02-.26.04-.39.06-.25.04-.49.07-.72.1-.37.05-.74.09-1.1.13h-.01c-.19-.42-.39-.83-.59-1.25-.11-.23-.23-.46-.34-.69-.09-.18-.18-.36-.27-.53-.21-.41-.42-.81-.64-1.21-.13-.26-.27-.51-.41-.76-.29-.53-.59-1.05-.89-1.56-.28-.47-.55-.93-.84-1.39-.34-.54-.68-1.08-1.04-1.61-.09-.14-.18-.29-.28-.43,18.93-4.89,29.5-19.29,33.46-25.9.3.31.54.66.76,1.06.2.39.38.83.51,1.31.1.36.17.77.23,1.22.17,1.5.06,3.42-.36,5.57Z"/>
        </g>
        <g>
          <path class="cls-7" d="M351.47,214.56c-.38.11-.76.22-1.15.32-.38.1-.76.2-1.15.3-3.61.93-7.62,1.77-11.88,2.37,14.16-1.67,24.03-5,30.95-9.17-2,.97-8.15,3.78-16.77,6.18Z"/>
          <path class="cls-7" d="M350.62,86.02c-.23-.33-.47-.65-.72-.97-.12-.17-.24-.32-.37-.48,0-.01-.01-.01-.01-.01-.01,0-.01-.01-.02-.01.14.16.27.33.39.5.43.55.83,1.12,1.19,1.69-.14-.24-.3-.48-.46-.72ZM364.66,102.39l-.07-.09c.2.29.39.58.59.88-.16-.27-.34-.53-.52-.79ZM366.47,101.5h-.01l.02.03.27.4c-.09-.14-.18-.29-.28-.43ZM367.29,106.6c-.38-.67-.77-1.32-1.17-1.96-.08-.13-.16-.27-.26-.4.59.93,1.15,1.87,1.69,2.84.21.36.4.73.6,1.09-.27-.53-.56-1.05-.86-1.57ZM369.64,111.09c-.06-.13-.12-.26-.19-.38.07.13.13.25.18.38.08.16.16.33.24.5-.07-.17-.15-.34-.23-.5ZM374.4,110.57c-.14.03-.28.05-.41.07.13-.01.26-.03.39-.06.22-.04.43-.08.65-.13-.21.05-.42.09-.63.12ZM376.47,110.15c-.24.06-.47.11-.7.16.32-.06.64-.13.96-.21-.09.02-.17.04-.26.05ZM379.25,109.41c-.29.09-.57.18-.86.26.46-.13.92-.26,1.39-.42-.18.06-.35.11-.53.16ZM399.94,75.6c-.05-.06-.11-.12-.17-.18h-.01c.06.06.12.12.17.18.3.31.54.66.76,1.06-.2-.4-.46-.75-.75-1.06ZM401.21,77.97c-.14-.48-.3-.92-.52-1.31.2.39.38.83.51,1.31.1.36.17.77.23,1.22-.04-.45-.12-.86-.22-1.22ZM397.78,93.94c.39-.73.74-1.46,1.06-2.19-.33.73-.68,1.46-1.06,2.19ZM265.98,101.98h0c-.02.09-.06.17-.1.25.05-.08.11-.16.16-.24-.02,0-.04-.01-.06-.01ZM263.95,101.5c-.14.21-.28.42-.41.63l.41-.61v-.02s0,0,0,0ZM260.78,111.09c-.08.16-.16.33-.23.5.08-.17.16-.34.24-.5.05-.13.11-.25.18-.38-.07.13-.13.25-.19.38ZM238.76,102.25c.85.85,1.76,1.64,2.73,2.37-.97-.74-1.88-1.54-2.73-2.37ZM227.31,77.43c.38-1.39,1.04-2.55,1.96-3.45h-.01c-.92.9-1.58,2.06-1.96,3.45-.68,2.45-.49,6.1.64,10.14-1.11-4.03-1.3-7.69-.63-10.14ZM228.74,90.11c.26.73.55,1.47.88,2.2-.32-.73-.61-1.47-.88-2.2ZM364.66,102.39l-.07-.09c.2.29.39.58.59.88-.16-.27-.34-.53-.52-.79ZM366.47,101.5h-.01l.02.03.27.4c-.09-.14-.18-.29-.28-.43ZM367.29,106.6c-.38-.67-.77-1.32-1.17-1.96-.08-.13-.16-.27-.26-.4.59.93,1.15,1.87,1.69,2.84.21.36.4.73.6,1.09-.27-.53-.56-1.05-.86-1.57ZM369.64,111.09c-.06-.13-.12-.26-.19-.38.07.13.13.25.18.38.08.16.16.33.24.5-.07-.17-.15-.34-.23-.5ZM399.94,75.6c-.05-.06-.11-.12-.17-.18h-.01c.06.06.12.12.17.18.3.31.54.66.76,1.06-.2-.4-.46-.75-.75-1.06Z"/>
          <path class="cls-8" d="M358.46,110.01c-.4-.1-.72-.19-.96-.27.24.08.57.17.96.27Z"/>
          <path class="cls-8" d="M292.73,158.53c0,3.27-2.48,5.93-5.55,5.93s-5.55-2.66-5.55-5.93,2.48-5.94,5.55-5.94,5.55,2.66,5.55,5.94Z"/>
          <path class="cls-8" d="M293.96,141.73c-.4,2.4-4.5,3.71-9.14,2.94-4.65-.78-8.1-3.35-7.7-5.75.4-2.4,4.49-3.71,9.14-2.94s8.1,3.35,7.7,5.75Z"/>
          <path class="cls-8" d="M348.79,158.53c0,3.27-2.48,5.93-5.55,5.93s-5.55-2.66-5.55-5.93,2.48-5.94,5.55-5.94,5.55,2.66,5.55,5.94Z"/>
          <path class="cls-8" d="M345.6,144.67c-4.64.77-8.74-.54-9.14-2.94-.4-2.4,3.05-4.98,7.7-5.75,4.65-.77,8.74.54,9.14,2.94.4,2.4-3.05,4.97-7.7,5.75Z"/>
          <path class="cls-8" d="M284.97,181.09c-.34.4-.32,1,.07,1.37.05.05,3,2.91,6.3,6.21-.55,1.77-1.4,3.47-2.54,5.02-6.39,8.7-19.65,9.81-29.62,2.48-9.98-7.32-12.89-20.31-6.5-29.01,6.39-8.69,19.65-9.81,29.62-2.48,6.77,4.96,10.28,12.53,9.85,19.6-3.12-1.35-5.26-2.91-5.81-3.33-.42-.33-1.02-.26-1.37.14Z"/>
          <path class="cls-8" d="M330.31,194.87l-.07.07-.29.32c-3.06,3.44-7.5,7.4-14.74,7.4s-11.68-3.96-14.73-7.39c-.01-.01-.08-.09-.08-.09l-.07-.08s-.06-.07-.08-.1l-.14-.16c3.92-2.44,9.22-3.93,15.07-3.93s11.21,1.5,15.13,3.96Z"/>
          <path class="cls-8" d="M371.24,196.17c-9.97,7.33-23.23,6.22-29.62-2.48-1.14-1.55-1.99-3.25-2.54-5.02,3.3-3.3,6.25-6.16,6.3-6.21.39-.37.41-.97.07-1.37-.35-.4-.95-.47-1.37-.14-.55.42-2.69,1.98-5.81,3.32-.43-7.07,3.09-14.63,9.85-19.59,9.97-7.33,23.23-6.21,29.62,2.48,6.39,8.7,3.48,21.69-6.5,29.01Z"/>
        </g>
        <path class="cls-9" d="M395.85,47.7l-2.05,2.86c-4.84,6.77-14.23,8.34-21,3.51-5.76,2.18-10.17,3.91-13.55,5.28-3.62,1.46-6.05,2.51-7.7,3.26-.59,1.57-1.17,3.1-1.74,4.56-2.01,5.29-3.72,9.78-4.92,12.95,1.77,1.36,3.32,2.85,4.61,4.43.14.16.27.33.39.5.43.55.83,1.12,1.19,1.69.48.76.91,1.54,1.27,2.34.92,2.02,1.46,4.14,1.56,6.33,0,.25.02.5.02.75v.1c0,.23-.01.46-.02.69-.12,2.24-.79,4.34-1.87,6.2-.19.33-.39.65-.61.96-.38.55-.81,1.08-1.27,1.58-2.85,3.1-7.08,5.06-11.8,5.06-2.99,0-5.78-.78-8.14-2.15-2.79,4.71-8.47,7.94-15.01,7.94s-12.23-3.23-15.01-7.94c-2.37,1.36-5.15,2.15-8.14,2.15-4.72,0-8.95-1.96-11.81-5.06-.46-.5-.89-1.03-1.27-1.58-.22-.31-.42-.63-.61-.96-1.08-1.86-1.75-3.96-1.87-6.2-.01-.23-.02-.46-.02-.69v-.1c0-.25.01-.5.02-.75.1-2.19.64-4.31,1.56-6.32.36-.8.79-1.59,1.28-2.36.04-.07.09-.14.14-.21.1-.17.22-.33.33-.5.06-.09.12-.18.19-.27.16-.23.34-.47.52-.7.02-.03.05-.07.08-.1.02-.04.05-.07.08-.11.01,0,.01-.01.01-.01.02-.02.04-.04.05-.07.02-.02.04-.04.06-.07.03-.05.07-.09.1-.13h.01c1.29-1.59,2.84-3.08,4.62-4.44-1.2-3.17-2.91-7.66-4.92-12.95-.57-1.46-1.15-2.99-1.74-4.56-1.65-.75-4.08-1.8-7.7-3.26-3.38-1.37-7.79-3.1-13.55-5.28-6.77,4.83-16.16,3.26-21-3.51l-2.05-2.86,2.87-2.04c6.76-4.84,16.17-3.27,21.01,3.5l.04.06c.09.01.18.02.28.04l15.53,1.33c-1.73-4.55-3.52-9.24-5.28-13.89-.88-2.31-1.75-4.61-2.61-6.87-1.01-2.67-2-5.28-2.95-7.8-7.99-2.32-12.6-10.66-10.29-18.65l.98-3.38,3.37.98c7.9,2.27,12.49,10.45,10.37,18.35l4.45,7.4,4.01,6.67,7.75,12.92,9.39-13.95c.08-.15.17-.29.28-.41l-.05-.24c-1.6-8.17,3.73-16.08,11.89-17.67l3.45-.68.68,3.45c1.58,8.13-3.67,16-11.77,17.64-2.65,8.12-4.36,13.69-5.46,17.5-.01.01-.01.02-.01.02-.76,2.64-1.23,4.43-1.51,5.66,0,0-.01.02-.01.03,0,.02,0,.05-.02.07l.02.03,2.63,4.38,6.59,10.97c4.61-1.25,9.69-1.94,15.01-1.94s10.4.69,15.01,1.94l6.59-10.97,2.63-4.38.02-.03s-.02-.05-.02-.07c0-.01-.01-.02-.01-.03-.28-1.23-.75-3.02-1.51-5.66,0,0,0-.01,0-.02-1.1-3.81-2.81-9.38-5.46-17.5-8.1-1.64-13.35-9.51-11.77-17.64l.68-3.45,3.45.68c8.16,1.59,13.49,9.5,11.89,17.67l-.05.24c.11.12.2.26.28.41l9.39,13.95,7.75-12.92,4.01-6.67,4.45-7.4c-2.12-7.9,2.47-16.08,10.37-18.35l3.37-.98.98,3.38c2.31,7.99-2.3,16.33-10.29,18.65-.95,2.52-1.94,5.13-2.95,7.8-.86,2.26-1.73,4.56-2.61,6.87-1.76,4.65-3.55,9.34-5.28,13.89l15.53-1.33c.1-.02.19-.03.28-.04l.04-.06c4.84-6.77,14.25-8.34,21.01-3.5l2.87,2.04Z"/>
        <g>
          <path class="cls-11" d="M292.73,158.53c0,3.27-2.48,5.93-5.55,5.93s-5.55-2.66-5.55-5.93,2.48-5.94,5.55-5.94,5.55,2.66,5.55,5.94Z"/>
          <ellipse class="cls-8" cx="287.18" cy="156.31" rx="2.59" ry="2.21"/>
        </g>
        <path class="cls-9" d="M293.96,141.73c-.4,2.4-4.5,3.71-9.14,2.94-4.65-.78-8.1-3.35-7.7-5.75.4-2.4,4.49-3.71,9.14-2.94s8.1,3.35,7.7,5.75Z"/>
        <path class="cls-10" d="M284.97,181.09c-.34.4-.32,1,.07,1.37.05.05,3,2.91,6.3,6.21-.55,1.77-1.4,3.47-2.54,5.02-6.39,8.7-19.65,9.81-29.62,2.48-9.98-7.32-12.89-20.31-6.5-29.01,6.39-8.69,19.65-9.81,29.62-2.48,6.77,4.96,10.28,12.53,9.85,19.6-3.12-1.35-5.26-2.91-5.81-3.33-.42-.33-1.02-.26-1.37.14Z"/>
        <g>
          <path class="cls-11" d="M348.79,158.53c0,3.27-2.48,5.93-5.55,5.93s-5.55-2.66-5.55-5.93,2.48-5.94,5.55-5.94,5.55,2.66,5.55,5.94Z"/>
          <ellipse class="cls-8" cx="343.24" cy="156.31" rx="2.59" ry="2.21"/>
        </g>
        <path class="cls-9" d="M345.6,144.67c-4.64.77-8.74-.54-9.14-2.94-.4-2.4,3.05-4.98,7.7-5.75,4.65-.77,8.74.54,9.14,2.94.4,2.4-3.05,4.97-7.7,5.75Z"/>
        <path class="cls-10" d="M371.24,196.17c-9.97,7.33-23.23,6.22-29.62-2.48-1.14-1.55-1.99-3.25-2.54-5.02,3.3-3.3,6.25-6.16,6.3-6.21.39-.37.41-.97.07-1.37-.35-.4-.95-.47-1.37-.14-.55.42-2.69,1.98-5.81,3.32-.43-7.07,3.09-14.63,9.85-19.59,9.97-7.33,23.23-6.21,29.62,2.48,6.39,8.7,3.48,21.69-6.5,29.01Z"/>
        <g>
          <path class="cls-11" d="M330.31,194.87l-.07.07-.29.32c-3.06,3.44-7.5,7.4-14.74,7.4s-11.68-3.96-14.73-7.39c-.01-.01-.08-.09-.08-.09l-.07-.08s-.06-.07-.08-.1l-.14-.16c3.92-2.44,9.22-3.93,15.07-3.93s11.21,1.5,15.13,3.96Z"/>
          <path class="cls-7" d="M345.45,181.09c-.35-.4-.95-.47-1.37-.14-.55.42-2.69,1.98-5.81,3.32-5.45,2.34-13.91,4-22.12-2.35-.1-.19-.27-.35-.49-.43-.25-.11-.53-.1-.77,0-.05.01-.09.03-.13.05-.16.06-.29.17-.4.31-8.23,6.43-16.73,4.78-22.21,2.43-3.12-1.35-5.26-2.91-5.81-3.33-.42-.33-1.02-.26-1.37.14-.34.4-.32,1,.07,1.37.05.05,3,2.91,6.3,6.21,2.58,2.57,5.38,5.42,7.18,7.4l.21.23c.06.08.12.15.24.28,3.34,3.76,8.21,8.08,16.24,8.08s12.9-4.32,16.25-8.09l.23-.25c.07-.07.13-.14.2-.23,1.79-1.97,4.59-4.83,7.19-7.42,3.3-3.3,6.25-6.16,6.3-6.21.39-.37.41-.97.07-1.37ZM330.24,194.94l-.29.32c-3.06,3.44-7.5,7.4-14.74,7.4s-11.68-3.96-14.73-7.39c0,0-.08-.09-.08-.09l-.07-.08s-.06-.07-.08-.1l-.14-.16c3.92-2.44,9.22-3.93,15.07-3.93s11.21,1.5,15.13,3.96l-.07.07Z"/>
        </g>
        <path class="cls-2" d="M330.31,194.87l-.07.07-.29.32c-3.06,3.44-7.5,7.4-14.74,7.4s-11.68-3.96-14.73-7.39c-.01-.01-.08-.09-.08-.09l-.07-.08s-.06-.07-.08-.1l-.14-.16c3.92-2.44,9.22-3.93,15.07-3.93s11.21,1.5,15.13,3.96Z"/>
        <g>
          <path class="cls-6" d="M309.53,43.58v3.51c0,8.32-6.75,15.06-15.07,15.06h-.85l-2.63-4.38v-.1s.01-.02.01-.03c.28-1.23.75-3.02,1.51-5.66,0,0,0-.01.01-.02,2.46-4.97,7.58-8.38,13.5-8.38h3.52Z"/>
          <path class="cls-6" d="M280.61,67.17l-.67.76c-5.47,6.27-14.99,6.93-21.26,1.46l-2.65-2.31,2.31-2.65c3.33-3.81,8.15-5.55,12.83-5.08,3.62,1.46,6.05,2.51,7.7,3.26.59,1.57,1.17,3.1,1.74,4.56Z"/>
          <path class="cls-6" d="M278.18,32.57l-1.83.83-4.01-6.67c-.92-6.46,2.47-13.02,8.72-15.84l3.21-1.45,1.44,3.2c3.43,7.59.05,16.51-7.53,19.93Z"/>
          <path class="cls-6" d="M269.02,36.7l-2.33,1.06c-7.59,3.42-16.51.05-19.93-7.53l-1.45-3.21,3.21-1.44c6.38-2.89,13.7-.95,17.89,4.25.86,2.26,1.73,4.56,2.61,6.87Z"/>
        </g>
        <g>
          <path class="cls-6" d="M339.44,57.67v.1l-2.63,4.38h-.85c-8.32,0-15.07-6.74-15.07-15.06v-3.51h3.52c5.92,0,11.04,3.41,13.5,8.38.01.01.01.02.01.02.76,2.64,1.23,4.43,1.51,5.66,0,.01,0,.02,0,.03Z"/>
          <path class="cls-6" d="M374.39,67.08l-2.65,2.31c-6.27,5.47-15.79,4.81-21.26-1.46l-.67-.76c.57-1.46,1.15-2.99,1.74-4.56,1.65-.75,4.08-1.8,7.7-3.26,4.68-.47,9.5,1.27,12.83,5.08l2.31,2.65Z"/>
          <path class="cls-6" d="M358.08,26.73l-4.01,6.67-1.83-.83c-7.58-3.42-10.96-12.34-7.53-19.93l1.44-3.2,3.21,1.45c6.25,2.82,9.64,9.38,8.72,15.84Z"/>
          <path class="cls-6" d="M385.11,27.02l-1.45,3.21c-3.42,7.58-12.34,10.95-19.93,7.53l-2.33-1.06c.88-2.31,1.75-4.61,2.61-6.87,4.19-5.2,11.51-7.14,17.89-4.25l3.21,1.44Z"/>
        </g>
        <path class="cls-7" d="M316.09,225.97s-.01.03-.02.05c-.03.04-.07.09-.11.13.04-.04.07-.08.1-.13.01,0,.02-.03.03-.05Z"/>
        <g>
          <path class="cls-8" d="M368.24,208.38c-6.92,4.17-16.79,7.5-30.95,9.17,4.26-.6,8.27-1.44,11.88-2.37.39-.1.77-.2,1.15-.3.39-.1.77-.21,1.15-.32,8.62-2.4,14.77-5.21,16.77-6.18Z"/>
          <path class="cls-8" d="M316.09,225.97s-.01.03-.02.05h-.01s.02-.03.03-.05Z"/>
        </g>
        <path class="cls-7" d="M280.9,84.56s-.07.08-.1.13c.04-.04.08-.08.11-.13h-.01ZM280.52,85.05c-.18.23-.36.47-.52.7-.07.09-.13.18-.19.27.23-.33.47-.65.72-.97.03-.04.05-.07.07-.1-.03.03-.06.07-.08.1ZM280.31,84.95s-.07-.03-.1-.04c.04.02.07.03.1.05.1-.07.2-.13.3-.21-.1.07-.2.14-.3.2ZM279.34,86.73h.01c.04-.07.08-.14.13-.21-.05.07-.1.14-.14.21ZM264.56,104.24c-.15.23-.29.47-.42.7.18-.31.37-.61.56-.91-.05.07-.1.14-.14.21ZM263.56,105.9c.14-.24.28-.47.43-.7,0-.01,0-.03.01-.04-.16.25-.31.49-.44.74ZM262.87,107.08c-.09.15-.17.31-.25.46.17-.32.35-.63.53-.94-.1.16-.19.32-.28.48ZM259.86,113.08h.01s.04-.1.06-.15c-.02.05-.04.1-.07.15ZM248.1,108.32c-.34-.13-.68-.27-1.02-.42.31.14.61.27.92.39.24.1.48.19.71.27-.2-.07-.41-.15-.61-.24ZM238.76,102.25c.85.85,1.76,1.64,2.73,2.37-.97-.74-1.88-1.54-2.73-2.37ZM237.53,100.97c-.1-.11-.2-.22-.3-.33.1.11.19.22.29.33.1.1.19.21.29.31-.09-.1-.19-.21-.28-.31ZM233.46,95.4c-.06-.11-.12-.21-.18-.31.05.1.11.21.17.31.07.11.14.23.21.34-.07-.11-.14-.23-.2-.34ZM232.28,93.21c-.12-.24-.24-.49-.35-.73-.11-.24-.22-.49-.33-.73.03.08.06.16.1.24.07.16.14.33.22.49.04.09.08.17.12.25.08.17.15.33.23.48.12.25.24.49.38.73-.12-.24-.25-.48-.37-.73ZM231,90.3c-.1-.24-.19-.48-.27-.72-.06-.16-.12-.32-.18-.48.05.16.11.32.17.48.05.16.11.32.18.48.03.08.06.16.09.24.02.06.04.12.08.18-.02-.06-.05-.12-.07-.18ZM230.66,75.42c-.06.06-.12.12-.17.18h0s.01,0,.01,0c.05-.06.11-.12.17-.18h0ZM230.24,88.16c-.08-.27-.16-.53-.24-.79.07.26.15.53.23.79.1.31.2.62.32.94-.11-.31-.21-.63-.31-.94ZM229.66,86.09c-.11-.45-.2-.89-.29-1.33.03.22.08.43.13.65h0c.05.24.1.46.16.68ZM229.5,77.15c-.03.07-.06.15-.09.24-.07.18-.13.37-.19.57-.1.36-.18.75-.22,1.19.06-.44.13-.83.23-1.19.13-.48.31-.91.51-1.3-.09.16-.17.32-.24.49ZM229,79.15c-.08.6-.1,1.27-.07,2.01v.06s0,.08.01.12v-.18c-.03-.74-.01-1.41.06-2.01ZM228.97,81.85c0,.14,0,.29.03.43,0,.05.01.1.02.15-.01-.2-.03-.38-.05-.58ZM229.25,84.12c-.08-.49-.14-.96-.19-1.41-.01-.05-.02-.1-.02-.14.02.26.04.5.08.77.03.25.07.51.12.78.03.14.05.28.08.42.01.07.03.15.05.22-.04-.21-.08-.43-.12-.64ZM367.44,102.97s-.01-.02-.01-.03c-.02-.04-.05-.09-.08-.13l-.12-.18-.48-.7c.36.53.7,1.07,1.04,1.61-.11-.19-.23-.38-.35-.57ZM370.25,107.84c-.1-.2-.21-.39-.32-.59.22.4.43.8.64,1.21-.1-.21-.21-.41-.32-.62ZM371.18,109.68c.2.42.4.83.59,1.25h.01c-.19-.42-.39-.84-.6-1.25ZM403.13,77.44c-.38-1.4-1.04-2.56-1.96-3.46h0c.92.9,1.58,2.06,1.96,3.46.67,2.44.48,6.1-.63,10.13,1.13-4.04,1.32-7.69.64-10.13ZM400.81,92.31c.33-.73.62-1.47.88-2.2-.27.73-.56,1.47-.88,2.2Z"/>
        <path class="cls-7" d="M327.14,233.18c-.02.06-.03.13-.03.19,0,.05,0,.1.02.15,0,.03.01.07.02.1-.04-.14-.03-.3-.01-.44ZM327.14,233.18c-.02.06-.03.13-.03.19,0,.05,0,.1.02.15,0,.03.01.07.02.1-.04-.14-.03-.3-.01-.44ZM327.14,233.18c-.02.06-.03.13-.03.19,0,.05,0,.1.02.15,0,.03.01.07.02.1-.04-.14-.03-.3-.01-.44ZM327.14,233.18c-.02.06-.03.13-.03.19,0,.05,0,.1.02.15,0,.03.01.07.02.1-.04-.14-.03-.3-.01-.44Z"/>
        <path class="cls-8" d="M364.86,100.91c.46-.31,1.08-.19,1.39.27l.21.32h.01c18.93-4.89,29.5-19.29,33.46-25.9-.05-.06-.11-.12-.17-.18-2.51-2.45-7.03-1.48-7.07-1.47h-.01l-40.51,12.46-1.09.33c.48.76.91,1.54,1.27,2.34.92,2.02,1.46,4.14,1.56,6.33,0,.25.02.5.02.75v.1c0,.23-.01.46-.02.69-.12,2.24-.79,4.34-1.87,6.2-.19.33-.39.65-.61.96-.38.55-.81,1.08-1.27,1.58-2.85,3.1-7.08,5.06-11.8,5.06-2.99,0-5.78-.78-8.14-2.15-2.79,4.71-8.47,7.94-15.01,7.94s-12.23-3.23-15.01-7.94c-2.37,1.36-5.15,2.15-8.14,2.15-4.72,0-8.95-1.96-11.81-5.06-.46-.5-.89-1.03-1.27-1.58-.22-.31-.42-.63-.61-.96-1.08-1.86-1.75-3.96-1.87-6.2-.01-.23-.02-.46-.02-.69v-.1c0-.25.01-.5.02-.75.1-2.19.64-4.31,1.56-6.32.36-.8.79-1.59,1.28-2.36l-1.07-.33-1.23-.38-39.36-12.09s-.87-.18-2.05-.18c-.86,0-1.87.09-2.85.42-.33.11-.65.24-.96.41-.41.22-.8.49-1.15.84-.06.06-.12.12-.17.18h-.01c1.74,2.9,4.73,7.28,9.14,11.7,1.26,1.26,2.63,2.53,4.13,3.77,5.23,4.33,11.91,8.29,20.19,10.43h.02s.21-.32.21-.32c.31-.46.93-.58,1.39-.27.35.24.5.67.41,1.07.02,0,.04.01.06.01-.05.08-.11.16-.16.24-.01.02-.03.05-.04.07l-.06.08c-.32.47-.63.94-.94,1.42-.04.07-.08.15-.13.22,0,0-.01,0-.01.01-.19.3-.38.6-.56.91,0,0-.01,0-.01.01-.03.03-.05.07-.06.1-.02.02-.04.05-.05.08-.01.01-.01.02-.02.03s-.01.03-.01.04c-.15.23-.29.46-.43.7-.14.23-.27.47-.41.7-.18.31-.36.62-.53.94-.24.42-.47.84-.69,1.27-.33.63-.65,1.26-.96,1.9-.07.13-.13.25-.18.38-.08.16-.16.33-.24.5-.08.16-.16.32-.23.49-.13.28-.26.57-.39.85-.02.05-.04.1-.06.15h-.01c-.09.22-.19.45-.29.68-.2.45-.38.9-.57,1.36-.28.69-.55,1.39-.82,2.1-.22.58-.43,1.17-.64,1.76-.15.4-.28.81-.42,1.22-.08.23-.15.47-.23.71-.34,1.03-.65,2.09-.95,3.16-.05.15-.09.31-.13.47-.27.96-.53,1.94-.76,2.94-.15.62-.3,1.24-.44,1.88-.21.94-.41,1.9-.59,2.87-.06.31-.12.62-.18.94-.1.53-.19,1.06-.28,1.6-.07.45-.15.9-.22,1.36-.03.23-.07.46-.1.69-.08.54-.16,1.08-.23,1.63-.04.27-.08.54-.11.81-.03.27-.07.54-.1.81-.07.55-.13,1.1-.19,1.65-.1.94-.19,1.89-.27,2.84-.08.91-.15,1.82-.21,2.75-.03.55-.07,1.09-.09,1.64-.05.81-.08,1.62-.11,2.44-.01.27-.02.55-.03.83-.02.4-.03.81-.03,1.22-.01.55-.02,1.09-.03,1.64-.04,2.76,0,5.59.1,8.48v.37s-.22.29-.22.29c-.06.08-6.09,7.74-3.66,20.61.06.34.13.69.21,1.04.03.14.06.27.09.41.12.55.26,1.1.41,1.66.07.28.15.56.24.84.03.11.06.22.1.33.05.18.11.36.17.55.12.38.26.77.4,1.15.16.45.34.91.54,1.37.19.45.4.91.62,1.36l.18.39c.05.1.11.2.16.3.19.37.39.75.61,1.12.18.31.37.62.56.92.13.23.28.45.44.68.18.27.37.54.56.81,0,0,.02.03.03.04.21.3.44.6.66.89,0,.01.02.02.02.02.24.31.49.62.75.92.37.44.77.88,1.18,1.31.42.44.85.87,1.31,1.29.45.43.93.84,1.44,1.26.43.36.88.71,1.34,1.05.24.18.49.36.74.54.25.18.51.36.77.53.53.36,1.07.7,1.64,1.05.03.02.06.03.09.05.01,0,.01.01.02.01.02.01.04.02.06.03.67.32,1.66.78,2.95,1.32.17.08.36.16.54.23.25.11.5.21.76.32.21.09.44.17.66.26,1.01.4,2.13.83,3.35,1.27.31.11.62.22.94.33.64.23,1.3.45,1.99.68t.02.01c.96.3,1.96.62,3.01.93.26.08.52.16.79.23.27.08.55.16.82.23.55.16,1.1.31,1.67.46.18.05.36.1.54.14.22.06.45.12.68.18.41.1.83.21,1.26.31,3.04.73,6.34,1.38,9.83,1.89.04.01.08.01.12.02,1.59.19,3.24.36,4.94.5.85.07,1.71.14,2.59.2,1.49.11,3.02.19,4.59.26.76.04,1.52.07,2.3.09,1.43.05,2.9.08,4.4.1.5.01,1.01.01,1.52.01.51.01,1.02.01,1.54.01s1.03,0,1.54-.01c.51,0,1.02,0,1.52-.01,1.5-.02,2.97-.05,4.4-.1.78-.02,1.54-.05,2.3-.09,1.57-.07,3.1-.15,4.59-.26.88-.06,1.74-.13,2.59-.2,1.7-.14,3.35-.31,4.94-.5.04-.01.08-.01.12-.02,3.49-.51,6.79-1.16,9.83-1.89.43-.1.85-.21,1.26-.31.41-.11.82-.21,1.22-.32,8.77-2.31,15.16-5.15,17.5-6.27.02-.01.04-.02.06-.03.01,0,.01-.01.02-.01.03-.02.06-.03.09-.05.57-.35,1.11-.69,1.64-1.05.26-.17.52-.35.77-.53.25-.18.5-.36.74-.54.46-.34.91-.69,1.34-1.05.29-.24.57-.48.84-.72.32-.27.62-.56.92-.85.34-.32.67-.65.99-.98.41-.43.81-.87,1.18-1.31.75-.88,1.42-1.78,2.02-2.68.16-.23.31-.45.44-.68.19-.3.38-.61.56-.92.22-.37.42-.75.61-1.12.12-.23.24-.46.34-.69.22-.45.43-.91.62-1.36.2-.46.38-.92.54-1.37.14-.38.28-.77.4-1.15.06-.19.12-.37.17-.55.04-.11.07-.22.1-.33.09-.28.17-.56.24-.84.15-.53.27-1.05.39-1.57.04-.16.08-.34.11-.5.08-.35.15-.7.21-1.04,2.44-12.93-3.6-20.53-3.66-20.61l-.23-.29v-.37c.11-2.89.15-5.72.11-8.48,0-.55-.01-1.1-.03-1.64-.02-.75-.04-1.51-.07-2.26-.02-.73-.06-1.46-.1-2.19.01-.01.01-.03,0-.04-.02-.55-.06-1.09-.09-1.64-.06-.93-.13-1.84-.21-2.75-.08-.95-.17-1.9-.27-2.84-.06-.55-.12-1.1-.19-1.65-.03-.27-.07-.54-.1-.81-.03-.27-.07-.54-.11-.81-.07-.55-.15-1.09-.23-1.63-.03-.23-.07-.46-.1-.69-.07-.46-.15-.91-.22-1.36-.09-.54-.18-1.07-.28-1.6-.06-.32-.12-.63-.18-.94-.18-.97-.38-1.93-.59-2.87-.14-.64-.29-1.26-.44-1.88-.23-1-.49-1.98-.76-2.94-.04-.16-.08-.32-.13-.47-.3-1.07-.61-2.13-.95-3.16-.08-.24-.15-.48-.23-.71-.14-.41-.27-.82-.42-1.22-.21-.59-.42-1.18-.64-1.76-.27-.71-.54-1.41-.82-2.1-.19-.46-.37-.91-.57-1.36-.1-.23-.2-.46-.29-.68-.03-.05-.05-.1-.07-.15-.13-.29-.26-.57-.39-.85-.07-.17-.15-.33-.23-.49-.08-.17-.16-.34-.24-.5-.05-.13-.11-.25-.18-.38-.08-.19-.17-.38-.27-.56-.09-.19-.19-.37-.29-.56-.05-.11-.1-.21-.16-.32-.18-.36-.37-.72-.57-1.08t-.01-.02c-.2-.36-.39-.73-.6-1.09-.54-.97-1.1-1.91-1.69-2.84-.15-.26-.32-.52-.49-.77-.04-.08-.1-.16-.16-.24,0-.02-.01-.03-.03-.05-.2-.3-.39-.59-.59-.88-.06-.1-.11-.21-.14-.32-.09-.4.06-.83.41-1.07ZM344.16,135.98c4.65-.77,8.74.54,9.14,2.94.4,2.4-3.05,4.97-7.7,5.75-4.64.77-8.74-.54-9.14-2.94-.4-2.4,3.05-4.98,7.7-5.75ZM348.79,158.53c0,3.27-2.48,5.93-5.55,5.93s-5.55-2.66-5.55-5.93,2.48-5.94,5.55-5.94,5.55,2.66,5.55,5.94ZM277.12,138.92c.4-2.4,4.49-3.71,9.14-2.94s8.1,3.35,7.7,5.75c-.4,2.4-4.5,3.71-9.14,2.94-4.65-.78-8.1-3.35-7.7-5.75ZM292.73,158.53c0,3.27-2.48,5.93-5.55,5.93s-5.55-2.66-5.55-5.93,2.48-5.94,5.55-5.94,5.55,2.66,5.55,5.94ZM377.74,167.16c6.39,8.7,3.48,21.69-6.5,29.01-9.97,7.33-23.23,6.22-29.62-2.48-1.14-1.55-1.99-3.25-2.54-5.02-2.6,2.59-5.4,5.45-7.19,7.42-.07.09-.13.16-.2.23l-.23.25c-3.35,3.77-8.22,8.09-16.25,8.09s-12.9-4.32-16.24-8.08c-.12-.13-.18-.2-.24-.28l-.21-.23c-1.8-1.98-4.6-4.83-7.18-7.4-.55,1.77-1.4,3.47-2.54,5.02-6.39,8.7-19.65,9.81-29.62,2.48-9.98-7.32-12.89-20.31-6.5-29.01,6.39-8.69,19.65-9.81,29.62-2.48,6.77,4.96,10.28,12.53,9.85,19.6,5.48,2.35,13.98,4,22.21-2.43.11-.14.24-.25.4-.31.04-.02.08-.04.13-.05.24-.1.52-.11.77,0,.22.08.39.24.49.43,8.21,6.35,16.67,4.69,22.12,2.35-.43-7.07,3.09-14.63,9.85-19.59,9.97-7.33,23.23-6.21,29.62,2.48Z"/>
        <polygon class="cls-8" points="255.08 232.71 253.9 231.99 253.89 231.97 255.08 232.71"/>
        <path class="cls-8" d="M314.14,227.24c-.16-.07-.3-.19-.39-.36.09.15.22.27.39.36Z"/>
        <path class="cls-8" d="M315.48,226.83s0,.03-.02.05c-.03.04-.07.09-.11.13.04-.04.07-.08.1-.13.01-.01.02-.03.03-.05Z"/>
        <path class="cls-7" d="M352.42,301.99c-7.09-1.59-17.78-3.07-25.66,0h-28.02c-1.07-.66-2.17-1.28-3.28-1.86h-4.69c1.28.56,2.58,1.18,3.86,1.86.09.04.18.09.26.14h58.13c-.2-.04-.4-.09-.6-.14Z"/>
        <path class="cls-7" d="M303.17,232.84c-.17-.29-.49-.48-.85-.49l-1.36-.02c.87.07,1.37.09,1.41.09.34.01.63.19.81.45,0-.01,0-.02-.01-.03ZM303.17,232.84c-.17-.29-.49-.48-.85-.49l-1.36-.02c.87.07,1.37.09,1.41.09.34.01.63.19.81.45,0-.01,0-.02-.01-.03ZM303.17,232.84c-.17-.29-.49-.48-.85-.49l-1.36-.02c.87.07,1.37.09,1.41.09.34.01.63.19.81.45,0-.01,0-.02-.01-.03ZM303.17,232.84c-.17-.29-.49-.48-.85-.49l-1.36-.02c.87.07,1.37.09,1.41.09.34.01.63.19.81.45,0-.01,0-.02-.01-.03ZM303.17,232.84c-.17-.29-.49-.48-.85-.49l-1.36-.02c.87.07,1.37.09,1.41.09.34.01.63.19.81.45,0-.01,0-.02-.01-.03ZM303.17,232.84c-.17-.29-.49-.48-.85-.49l-1.36-.02c.87.07,1.37.09,1.41.09.34.01.63.19.81.45,0-.01,0-.02-.01-.03ZM303.17,232.84c-.17-.29-.49-.48-.85-.49l-1.36-.02c.87.07,1.37.09,1.41.09.34.01.63.19.81.45,0-.01,0-.02-.01-.03ZM303.17,232.84c-.17-.29-.49-.48-.85-.49l-1.36-.02c.87.07,1.37.09,1.41.09.34.01.63.19.81.45,0-.01,0-.02-.01-.03Z"/>
        <path class="cls-7" d="M416.78,299.62c-.47,0-.93.03-1.35.06-6.07.13-25.8-.38-40.83-11.83,1.96-8.58,1.14-17.9-.85-26.58l12.88,9.46c1.24.92,2.69,1.36,4.13,1.36,2.16,0,4.28-.99,5.65-2.86l11.04-15.02c1.1-1.51,1.55-3.36,1.27-5.21-.28-1.85-1.27-3.47-2.77-4.58l-27.7-20.33c.68-1.64.98-3.39.9-5.21-.31-6.65-5.21-10.64-8.44-12.1,9.24-6.49,12.3-14.59,13.62-21.58,2.36-12.5-2.65-20.29-3.84-21.93.69-19.91-1.94-36.77-7.84-50.39h.01c3.58-.44,7.56-1.41,11.7-3.25,3.68-1.63,6.81-3.95,9.4-6.65,3.11-3.22,5.44-6.97,7.05-10.67.32-.73.61-1.47.88-2.2h0c.31-.86.57-1.71.8-2.54,1.11-4.03,1.3-7.69.63-10.13-.38-1.4-1.04-2.56-1.96-3.46-3.29-3.21-8.68-2.04-8.98-1.97l-42.04,12.94s-.01,0-.02,0c-.2-.14-.39-.27-.59-.39.13.16.25.31.37.48.25.32.49.64.72.97.16.24.32.48.46.72l1.09-.33,40.51-12.46h.01s4.56-.98,7.07,1.47h.01c.06.06.12.12.17.18.29.31.55.66.75,1.06.22.39.38.83.52,1.31.1.36.18.77.22,1.22.17,1.5.06,3.42-.36,5.57-.04.22-.08.44-.14.66-.24,1.1-.56,2.26-.97,3.44-.32.95-.69,1.92-1.12,2.89-.32.73-.67,1.46-1.06,2.19-.12.24-.25.49-.39.73-1.47,2.67-3.37,5.29-5.72,7.58-2.27,2.24-4.97,4.17-8.11,5.56h-.01c-.36.17-.73.32-1.09.46-.36.15-.72.3-1.08.42-.18.08-.36.14-.53.2-.18.07-.36.13-.54.18-.18.07-.36.13-.53.18-.47.16-.93.29-1.39.42-.06.02-.13.04-.19.05-.35.1-.69.19-1.03.27-.15.04-.29.08-.44.11-.32.08-.64.15-.96.21-.25.05-.5.1-.74.14-.22.05-.43.09-.65.13-.13.03-.26.05-.39.06-.14.02-.26.04-.39.06-.25.04-.49.08-.72.1-.37.05-.74.09-1.1.13h-.01c-.19-.42-.39-.83-.59-1.25-.11-.23-.23-.46-.34-.69-.09-.18-.18-.36-.27-.53-.21-.41-.42-.81-.64-1.21-.13-.26-.27-.51-.41-.76-.29-.53-.59-1.05-.89-1.56-.28-.47-.55-.93-.84-1.39-.34-.54-.68-1.08-1.04-1.61l-.27-.4-.02-.03-.21-.32c-.31-.46-.93-.58-1.39-.27-.35.24-.5.67-.41,1.07.03.11.08.22.14.32l.07.09c.18.26.36.52.52.79.02.02.03.03.03.05.06.08.12.16.16.24.17.25.34.51.49.77.1.13.18.27.26.4.4.64.79,1.29,1.17,1.96.3.52.59,1.04.86,1.57t.01.02c.2.36.39.72.57,1.08.06.11.11.21.16.32.1.19.2.37.29.56.1.18.19.37.27.56.07.12.13.25.19.38.08.16.16.33.23.5.08.16.16.32.23.49.13.28.26.56.39.85.02.05.04.1.07.15.09.22.19.45.29.68.2.45.38.9.57,1.36.28.69.55,1.39.82,2.1.22.58.43,1.17.64,1.76.15.4.28.81.42,1.22.08.23.15.47.23.71.34,1.03.65,2.09.95,3.16.05.15.09.31.13.47.27.96.53,1.94.76,2.94.15.62.3,1.24.44,1.88.21.94.41,1.9.59,2.87.06.31.12.62.18.94.1.53.19,1.06.28,1.6.07.45.15.9.22,1.36.03.23.07.46.1.69.08.54.16,1.08.23,1.63.04.27.08.54.11.81.03.27.07.54.1.81.07.55.13,1.1.19,1.65.1.94.19,1.89.27,2.84.08.91.15,1.82.21,2.75.03.55.07,1.09.09,1.64.01,0,.01.03,0,.04.04.73.08,1.46.1,2.19.03.75.05,1.51.07,2.26.02.54.03,1.09.03,1.64.04,2.76,0,5.59-.1,8.48v.37s.22.29.22.29c.06.08,6.1,7.68,3.66,20.61-.06.34-.13.69-.21,1.04-.03.16-.07.34-.11.5-.12.52-.24,1.04-.39,1.57-.07.28-.15.56-.24.84-.03.11-.06.22-.1.33-.05.18-.11.36-.17.55-.12.38-.26.77-.4,1.15-.16.45-.34.91-.54,1.37-.19.45-.4.91-.62,1.36-.1.23-.22.46-.34.69-.19.37-.39.75-.61,1.12-.18.31-.37.62-.56.92-.13.23-.28.45-.44.68-.6.9-1.27,1.8-2.02,2.68-.37.44-.77.88-1.18,1.31-.32.33-.65.66-.99.98-.3.29-.6.58-.92.85-.27.24-.55.48-.84.72-.43.36-.88.71-1.34,1.05-.24.18-.49.36-.74.54-.25.18-.51.36-.77.53-.53.36-1.07.7-1.64,1.05-.03.02-.06.03-.09.05-.01,0-.01.01-.02.01-.02.01-.04.02-.06.03-2.34,1.12-8.73,3.96-17.5,6.27-.4.11-.81.21-1.22.32-.41.1-.83.21-1.26.31-3.04.73-6.34,1.38-9.83,1.89-.04.01-.08.01-.12.02-1.59.19-3.24.36-4.94.5-.85.07-1.71.14-2.59.2-1.49.11-3.02.19-4.59.26-.76.04-1.52.07-2.3.09-1.43.05-2.9.08-4.4.1-.5.01-1.01.01-1.52.01-.51.01-1.02.01-1.54.01s-1.03,0-1.54-.01c-.51,0-1.02,0-1.52-.01-1.5-.02-2.97-.05-4.4-.1-.78-.02-1.54-.05-2.3-.09-1.57-.07-3.1-.15-4.59-.26-.88-.06-1.74-.13-2.59-.2-1.7-.14-3.35-.31-4.94-.5-.04-.01-.08-.01-.12-.02-3.49-.51-6.79-1.16-9.83-1.89-.43-.1-.85-.21-1.26-.31-.23-.06-.46-.12-.68-.18-.18-.04-.36-.09-.54-.14-.57-.15-1.12-.3-1.67-.46-.27-.07-.55-.15-.82-.23-.27-.07-.53-.15-.79-.23-1.05-.31-2.05-.63-3.01-.93t-.02-.01c-.69-.23-1.35-.45-1.99-.68-.32-.11-.63-.22-.94-.33-1.22-.44-2.34-.87-3.35-1.27-.22-.09-.45-.17-.66-.26-.26-.11-.51-.21-.76-.32-.18-.07-.37-.15-.54-.23-1.29-.54-2.28-1-2.95-1.32-.02-.01-.04-.02-.06-.03-.01,0-.01-.01-.02-.01-.03-.02-.06-.03-.09-.05-.57-.35-1.11-.69-1.64-1.05-.26-.17-.52-.35-.77-.53-.25-.18-.5-.36-.74-.54-.46-.34-.91-.69-1.34-1.05-.51-.42-.99-.83-1.44-1.26-.46-.42-.89-.85-1.31-1.29-.41-.43-.81-.87-1.18-1.31-.26-.3-.51-.61-.75-.92,0,0-.01,0-.02-.02-.22-.29-.45-.59-.66-.89-.01-.01-.02-.03-.03-.04-.19-.27-.38-.54-.56-.81-.16-.23-.31-.45-.44-.68-.19-.3-.38-.61-.56-.92-.22-.37-.42-.75-.61-1.12-.05-.1-.11-.2-.16-.3l-.18-.39c-.22-.45-.43-.91-.62-1.36-.2-.46-.38-.92-.54-1.37-.14-.38-.28-.77-.4-1.15-.06-.19-.12-.37-.17-.55-.04-.11-.07-.22-.1-.33-.09-.28-.17-.56-.24-.84-.15-.56-.29-1.11-.41-1.66-.03-.14-.06-.27-.09-.41-.08-.35-.15-.7-.21-1.04-2.43-12.87,3.6-20.53,3.66-20.61l.23-.29v-.37c-.11-2.89-.15-5.72-.11-8.48.01-.55.02-1.09.03-1.64,0-.41.01-.82.03-1.22.01-.28.02-.56.03-.83.03-.82.06-1.63.11-2.44.02-.55.06-1.09.09-1.64.06-.93.13-1.84.21-2.75.08-.95.17-1.9.27-2.84.06-.55.12-1.1.19-1.65.03-.27.07-.54.1-.81.03-.27.07-.54.11-.81.07-.55.15-1.09.23-1.63.03-.23.07-.46.1-.69.07-.46.15-.91.22-1.36.09-.54.18-1.07.28-1.6.06-.32.12-.63.18-.94.18-.97.38-1.93.59-2.87.14-.64.29-1.26.44-1.88.23-1,.49-1.98.76-2.94.04-.16.08-.32.13-.47.3-1.07.61-2.13.95-3.16.08-.24.15-.48.23-.71.14-.41.27-.82.42-1.22.21-.59.42-1.18.64-1.76.27-.71.54-1.41.82-2.1.19-.46.37-.91.57-1.36.1-.23.2-.46.29-.68.03-.05.05-.1.07-.15.13-.28.26-.57.39-.85.07-.17.15-.33.23-.49.07-.17.15-.34.23-.5.06-.13.12-.25.19-.38.31-.64.63-1.27.96-1.9.22-.43.45-.85.69-1.27.08-.15.16-.31.25-.46.09-.16.18-.32.28-.48.14-.23.27-.47.41-.7.13-.25.28-.49.44-.74.01-.01.01-.02.02-.03.01-.03.03-.06.05-.08.01-.03.03-.07.06-.1,0-.01.01-.01.01-.01.13-.23.27-.47.42-.7.04-.07.09-.14.14-.21,0-.01.01-.01.01-.01.05-.07.09-.15.13-.22.31-.48.62-.95.94-1.42l.06-.08s.03-.05.04-.07c.04-.08.08-.16.1-.24h0c.09-.41-.06-.84-.41-1.08-.46-.31-1.08-.19-1.39.27l-.21.31h-.01s-.01.03-.01.03l-.41.61c-.11.16-.22.33-.33.5-.08.12-.15.24-.22.36-.01,0-.01.01-.01.01-.2.31-.4.63-.59.94-.2.31-.39.63-.58.95h0c-.3.52-.59,1.03-.87,1.55-.15.26-.29.52-.43.78-.01.01-.02.03-.02.04-.17.3-.33.61-.49.92-.12.23-.23.46-.35.69-.34.67-.68,1.36-1,2.06-.32-.03-.65-.07-.98-.11-.29-.04-.59-.08-.89-.13-.26-.03-.52-.08-.79-.12-.34-.06-.69-.13-1.05-.2-.21-.04-.43-.09-.66-.14-.06-.01-.12-.03-.18-.04-.05-.01-.09-.02-.14-.03-.26-.05-.53-.12-.79-.19-.37-.09-.74-.19-1.12-.3-.29-.08-.58-.17-.87-.26-.35-.1-.71-.22-1.06-.34h-.01c-.36-.12-.71-.24-1.07-.38h-.01c-.11-.05-.21-.09-.32-.13-.23-.08-.47-.17-.71-.27-.31-.12-.61-.25-.92-.39-.07-.03-.13-.06-.2-.09-1.97-.87-3.77-1.96-5.39-3.19-.97-.73-1.88-1.52-2.73-2.37-.32-.32-.64-.64-.95-.97-.1-.1-.19-.21-.29-.31-.1-.11-.19-.22-.29-.33-.15-.18-.31-.35-.46-.53-.32-.38-.63-.77-.93-1.16-.18-.23-.35-.47-.52-.7-.21-.29-.42-.59-.62-.88-.29-.41-.56-.83-.81-1.25-.08-.13-.15-.25-.23-.38-.07-.11-.14-.23-.21-.34-.06-.1-.12-.21-.17-.31-.07-.12-.14-.25-.21-.37-.14-.26-.28-.52-.42-.78-.14-.24-.26-.48-.38-.73-.08-.15-.15-.31-.23-.48-.04-.08-.08-.16-.12-.25-.08-.16-.15-.33-.22-.49-.04-.08-.07-.16-.1-.24-.12-.24-.22-.48-.32-.72h0c-.07-.17-.13-.33-.19-.49-.01-.02-.02-.04-.02-.06-.04-.06-.06-.12-.08-.18-.03-.08-.06-.16-.09-.24-.07-.16-.13-.32-.18-.48-.06-.16-.12-.32-.17-.48-.12-.32-.22-.63-.32-.94-.08-.26-.16-.53-.23-.79-.11-.36-.21-.71-.29-1.06-.01-.07-.03-.15-.05-.22-.06-.22-.11-.44-.16-.67h0c-.05-.23-.1-.44-.13-.66-.02-.07-.04-.15-.05-.22-.03-.14-.05-.28-.08-.42-.05-.27-.09-.53-.12-.78-.04-.27-.06-.51-.08-.77-.01-.02-.01-.05-.01-.07-.01-.02-.01-.05-.01-.07-.01-.05-.02-.1-.02-.15-.02-.14-.03-.29-.03-.43,0-.04,0-.07-.01-.11,0-.07-.01-.14-.01-.2-.01-.07-.01-.13-.01-.2-.01-.04-.01-.08-.01-.12v-.06c-.03-.74-.01-1.41.07-2.01.04-.44.12-.83.22-1.19.06-.2.12-.39.19-.57.03-.09.06-.17.09-.24.07-.17.15-.33.24-.49.08-.17.18-.33.29-.48.05-.07.09-.13.15-.19.02-.03.04-.06.07-.09.07-.1.15-.2.24-.29h0c.05-.07.11-.13.17-.19h0c.35-.35.74-.62,1.15-.84.31-.17.63-.3.96-.41.98-.33,1.99-.42,2.85-.42,1.18,0,2.04.18,2.05.18l39.36,12.09,1.23.38,1.07.33c.04-.07.09-.14.14-.21.1-.17.22-.33.33-.5.06-.09.12-.18.19-.27.16-.23.34-.47.52-.7.02-.03.05-.07.08-.1.02-.04.05-.07.08-.11.01,0,.01-.01.01-.01.02-.02.04-.04.05-.07.02-.02.04-.04.06-.07.03-.05.07-.09.1-.13-.1.06-.2.13-.29.19-.1.08-.2.14-.3.21-.03-.02-.06-.03-.1-.05l-42.02-12.92c-.23-.05-5.63-1.22-8.92,1.99-.92.9-1.58,2.06-1.96,3.45-.67,2.45-.48,6.11.63,10.14.23.83.49,1.68.8,2.53h0c.27.74.56,1.48.88,2.21,1.61,3.7,3.94,7.45,7.05,10.67,2.59,2.69,5.72,5.02,9.41,6.65,4.14,1.84,8.11,2.81,11.69,3.25-5.9,13.62-8.53,30.48-7.84,50.39-1.19,1.64-6.2,9.43-3.84,21.93.41,2.18.99,4.48,1.88,6.8l-6.22-3.92c-1.58-.99-3.45-1.32-5.28-.91-1.82.42-3.38,1.51-4.38,3.09l-9.94,15.77c-1.24,1.96-1.39,4.29-.6,6.31.53,1.34,1.47,2.52,2.78,3.34l28.09,17.73,1.38.87.44.27,9.66,5.9-.07.13-.51,1.05s-.02.04-.02.06c-.13.2-.26.47-.44.83h0s0,.01,0,.01c-.12.29-.25.59-.37.9-.12.3-.24.6-.37.92-1.84,4.75-4.1,11.86-5.44,16.92-3.12,13.61-3.36,28.81,5.48,40.2v1.66c0,1.4.47,2.7,1.26,3.74,0,.01,0,.02.02.03.75.98,1.79,1.73,2.99,2.12.01,0,.03.01.04.01.6.2,1.23.31,1.9.31h1.91c-1.17,3.01-2.28,6.2-3.14,9.3-2.73,9.84-2.12,16.08,1.82,18.54l14.62,9.14c.4.25,1.47.79,3.17.79,2.78,0,7.24-1.46,13.18-8.11,2.49-2.8,5.07-6.32,7.66-10.47h.01c.07-.13.14-.24.16-.28,1.97-3.22,2.96-6.38,2.97-9.42h5.84c.04,4.57.35,8.64.95,12.13,2.44,14.16,8.75,14.87,9.99,14.87h17.24c4.64,0,8.47-4.96,11.37-14.75,1.88-6.35,3.04-13.62,3.7-18.85v.2c.07-.51.13-1,.19-1.47l4.8,7.08s.04.05.06.08c2.19,3.57,6.14,5.9,10.59,6.27,3.3.27,6.04-1.56,7.24-2.52,1.96,1.4,7.42,5.22,8.93,5.8.03.01.06.02.1.03,2.4,1.09,5.12,1.67,7.87,1.67,5.76,0,10.43-1.9,12.94-5.23,1.39.31,2.82.46,4.25.46,8.72,0,15.81-5.6,15.81-12.49s-7.09-12.49-15.81-12.49ZM315.21,218.73c3.11,0,6.08-.06,8.92-.17-5.18,1.89-7.74,4.02-8.92,5.31-1.18-1.29-3.74-3.42-8.92-5.31,2.84.11,5.81.17,8.92.17ZM358.12,309.53c-.07.58-.14,1.21-.22,1.88-.05.4-.1.81-.16,1.23v.04c-.04.35-.09.71-.15,1.08-.04.34-.09.68-.14,1.02-.1.72-.22,1.46-.34,2.23-.39,2.5-.88,5.19-1.48,7.87-.13.59-.26,1.18-.41,1.76-.03.13-.06.26-.09.39-.11.45-.22.89-.34,1.33-.04.14-.08.29-.12.43-.15.58-.31,1.15-.48,1.72-.03.09-.06.19-.09.28-1.8,6.02-4.88,13.04-9.36,13.04h-17.24c-.24,0-5.72-.15-7.99-13.04-.01-.05-.02-.11-.03-.17-.58-3.37-.88-7.33-.92-11.79h8.01c.56,0,1-.45,1-1,0-.04,0-.08-.01-.12-.06-.49-.47-.88-.99-.88h-23.49c-.51,0-.93.39-.99.88-.01.04-.01.08-.01.12,0,.55.45,1,1,1h5.64c-.02,2.7-.93,5.52-2.73,8.46-.02.06-.06.11-.1.18-2.54,4.06-5.05,7.49-7.46,10.2-.04.04-.08.09-.11.13-8.76,9.72-13.49,6.95-13.69,6.82l-14.62-9.13c-3.8-2.37-2.69-9.97-1.04-16.03.03-.1.05-.19.08-.28.17-.61.35-1.23.54-1.84.18-.62.38-1.24.59-1.86.1-.31.2-.61.31-.92.1-.31.21-.61.32-.92.11-.31.22-.61.33-.92.15-.42.3-.84.46-1.25,0-.04.03-.07.04-.11.17-.46.34-.91.52-1.36.09-.22.17-.44.26-.66h85.72c-.01.06-.01.12-.02.19ZM268.36,307.34c-2.32,0-4.21-1.89-4.21-4.21v-1h30.74c-.08-.05-.17-.1-.26-.14-1.28-.68-2.58-1.3-3.86-1.86h-27.13c-8.72-11.35-7.83-27.08-4.29-40.83.27-1.05.56-2.08.86-3.1.18-.63.37-1.25.56-1.86.19-.62.38-1.23.58-1.83,1.17-3.55,2.45-6.88,3.7-9.83.02-.05.04-.1.06-.15,0-.01.01-.01.01-.02l.51-1.04.47-.96c.18-.37.11-.8-.15-1.09-.06-.08-.14-.15-.23-.2l-10.64-6.51-1.18-.72v-.02s-20.3-12.8-20.3-12.8l-8.2-5.18c-2.33-1.47-3.04-4.56-1.57-6.89l9.96-15.77c1.46-2.34,4.55-3.03,6.89-1.56l8.2,5.17.58.37c1.5,2.88,3.56,5.73,6.44,8.4-.05.09-.09.18-.11.29-.46,2.04-.61,4-.47,5.87.06.87.19,1.72.38,2.54.54,2.38,1.6,4.6,3.18,6.65,5.56,7.2,16.52,11.05,26.04,13.09,6.81,1.46,12.89,1.99,15.73,2.18h.15c-.98,2.47-2.57,7.94-1.09,14.68-.96.62-1.59,1.7-1.59,2.93,0,1.93,1.57,3.5,3.5,3.5s3.5-1.57,3.5-3.5-1.5-3.43-3.37-3.49c-.04-.01-.08-.01-.12-.01-1.07-5.1-.24-9.42.56-12,.36-1.19.73-2.01.89-2.37,0,0,.01,0,.01-.01.06-.11.09-.17.09-.18.02-.04.04-.06.04-.1h0s0-.03.02-.05c.02-.03.03-.06.03-.09v-.02s.02-.07.03-.1c.01-.05.01-.1.01-.15,0-.17-.04-.33-.12-.48t-.01-.02c-.18-.26-.47-.44-.81-.45-.04,0-.54-.02-1.41-.09-.02.01-.04,0-.06,0-6.35-.43-31.47-2.87-40.44-14.5-1.48-1.92-2.44-4-2.89-6.25-.06-.32-.12-.64-.16-.97-.11-.79-.15-1.59-.13-2.41.01-.5.04-1.01.09-1.52.06-.5.13-1,.23-1.5.66.55,1.37,1.08,2.11,1.6l2.21,1.47h.02c.08.04.16.08.24.13,2.01.97,8.16,3.78,16.77,6.19.38.1.76.21,1.14.31.15.04.31.08.47.12.23.06.46.12.69.18.75.19,1.51.38,2.3.57.02,0,.04.01.06.01.27.07.55.13.83.19.68.16,1.37.31,2.07.45.63.13,1.27.26,1.91.38.84.16,1.69.3,2.55.44.7.12,1.4.22,2.11.32.11.02.23.03.34.05,17.38,2.39,20.84,8.26,20.9,8.38.01.01.02.03.03.04,0,0,0,0,0,0,.03.06.08.11.12.16.02.02.03.03.04.04.04.03.07.06.11.08.03.03.07.05.12.08.08.04.15.07.23.09.17.04.35.03.51-.02.07-.01.14-.04.2-.08.03-.01.06-.03.08-.06.05-.02.1-.06.14-.11.02-.01.04-.03.05-.05.04-.04.07-.08.1-.13.01,0,.02-.03.03-.05,0,0,.01-.01.01-.02.26-.41,3.99-6.04,20.89-8.36.1-.01.2-.03.3-.04,4.26-.6,8.27-1.44,11.88-2.37.39-.1.77-.2,1.15-.3.39-.1.77-.21,1.15-.32,8.62-2.4,14.77-5.21,16.77-6.18.18-.09.32-.16.43-.21,1.68.34,8.15,3.56,8.48,10.81.06,1.34-.13,2.64-.57,3.88-.22.63-.51,1.25-.86,1.84-.45.78-1.01,1.52-1.68,2.22-2.76,2.89-7.08,4.75-11.47,5.01-.34.02-.69.03-1.03.03h-1.25s-15.25.19-15.25.19l-2.01.02-14.93.18c-.36.01-.68.2-.85.49-.03.05-.06.11-.07.17-.02.04-.03.08-.03.12,0,.02-.01.03-.01.05-.02.14-.03.3.01.44v.02s.01.06.03.09c.01.02.01.03.02.04h0c0,.05.02.07.04.11.01.03.5.96.99,2.56.8,2.58,1.63,6.9.56,12-.04,0-.08,0-.12.01-1.87.06-3.37,1.59-3.37,3.49s1.57,3.5,3.5,3.5,3.5-1.57,3.5-3.5c0-1.23-.63-2.31-1.59-2.93,1.48-6.75-.11-12.22-1.09-14.68l13.75-.16,2.06-.02,15.83-.19h.07c.41,0,.79,0,1.12-.03.46-.02.83-.04,1.11-.07.04,0,.07-.01.1-.01,4.54-.5,8.94-2.53,11.83-5.55.72-.76,1.34-1.56,1.85-2.4l19.61,14.39,7.81,5.74c2.23,1.64,2.71,4.77,1.07,6.99l-11.03,15.03c-1.63,2.22-4.77,2.7-6.99,1.07l-7.82-5.74-6.99-5.13c-1.52-5.76-3.49-11.15-5.43-15.72h-.01c-.44-.91-.6-1.24-1.15-1.34-.55-.09-1.06.28-1.15.82-.03.18-.01.36.05.52.02.05.04.1.06.15,1.67,3.95,3.41,8.57,4.84,13.52.3,1.02.59,2.05.86,3.1,2.26,8.77,3.44,18.35,1.72,27.09-.06.37-.14.73-.23,1.1h0c-.08.37-.16.73-.26,1.09-1.06,4.14-2.83,8.05-5.52,11.55h-71.32c1.11.58,2.21,1.2,3.28,1.86h28.02c7.88-3.07,18.57-1.59,25.66,0,.2.05.4.1.6.14h13.25v1c0,2.32-1.89,4.21-4.21,4.21h-93.7ZM416.78,322.6c-1.11,0-2.22-.1-3.31-.32.47-1.46.99-4.07-.1-6.8-1.23-3.06-4.09-5.37-8.52-6.88-.53-.18-1.1.1-1.27.63-.18.52.1,1.09.62,1.27,3.84,1.3,6.3,3.22,7.3,5.7,1.17,2.88,0,5.72-.24,6.26l-.02.02c-2.01,3.11-6.26,4.89-11.65,4.89-2.5,0-4.97-.53-7.13-1.53-.05-.02-.09-.03-.14-.05-.01,0-.02,0-.04-.01-1.15-.49-5.35-3.35-8.26-5.41.69-1.11,1.65-3.17,1.42-5.79-.29-3.19-2.22-6.22-5.74-9.02-.44-.34-1.06-.27-1.41.17-.34.43-.27,1.06.17,1.4,3.06,2.43,4.74,4.99,4.98,7.6.26,2.85-1.32,4.91-1.54,5.18-.01.02-.02.03-.02.03-.4.36-3.11,2.71-6.27,2.45-3.86-.31-7.27-2.34-9.11-5.43-.03-.05-.08-.11-.12-.16l-5.07-7.46h.75c3.42,0,6.21-2.79,6.21-6.21v-1.66c2.74-3.53,4.61-7.43,5.79-11.53,15.4,11.36,35.27,11.88,41.46,11.73.42-.03.83-.05,1.26-.05,7.61,0,13.81,4.71,13.81,10.49s-6.2,10.49-13.81,10.49Z"/>
        <path class="cls-5" d="M366.27,302.13v1c0,2.32-1.89,4.21-4.21,4.21h-93.7c-2.32,0-4.21-1.89-4.21-4.21v-1h102.12Z"/>
        <path class="cls-8" d="M303.19,232.89c.08.15.12.31.12.48,0,.05,0,.1-.01.15,0,.03-.02.07-.03.1v.02s-.01.06-.03.09c-.01.02-.01.03-.02.04h0c0,.05-.02.07-.04.11,0,.01-.03.07-.09.18.15-.16.24-.38.25-.61.01-.21-.05-.4-.15-.56ZM300.65,234.33s.1.01.15.01h0s-.15-.01-.15-.01Z"/>
        <path class="cls-1" d="M367.57,242.53c1.94,4.57,3.91,9.96,5.43,15.72l6.99,5.13,16.96-23.09-19.61-14.39c-.51.84-1.13,1.64-1.85,2.4-2.89,3.02-7.29,5.05-11.83,5.55-.03,0-.06.01-.1.01-.28.03-.65.05-1.11.07-.33.02-.71.03-1.12.03h-.07l-15.83.19-2.06.02-13.75.16c.98,2.46,2.57,7.93,1.09,14.68.96.62,1.59,1.7,1.59,2.93,0,1.93-1.57,3.5-3.5,3.5s-3.5-1.57-3.5-3.5,1.5-3.43,3.37-3.49c.04-.01.08-.01.12-.01,1.07-5.1.24-9.42-.56-12-.49-1.6-.98-2.53-.99-2.56-.02-.04-.04-.06-.04-.1h0s-.01-.03-.02-.05c-.02-.03-.03-.06-.03-.09v-.02s-.02-.07-.02-.1c-.02-.05-.02-.1-.02-.15,0-.06.01-.13.03-.19,0-.02.01-.03.01-.05,0-.04.01-.08.03-.12.01-.06.04-.12.07-.17.17-.29.49-.48.85-.49l14.93-.18,2.01-.02,15.25-.18h1.14s.11-.01.11-.01c.34,0,.69,0,1.03-.03,4.39-.26,8.71-2.12,11.47-5.01.67-.7,1.23-1.44,1.68-2.22.35-.59.64-1.21.86-1.84.44-1.24.63-2.54.57-3.88-.33-7.25-6.8-10.47-8.48-10.81-.11.05-.25.12-.43.21-6.92,4.17-16.79,7.5-30.95,9.17-.1.01-.2.03-.3.04-16.9,2.32-20.63,7.95-20.89,8.36,0,0-.01.02-.01.02-.01.02-.01.03-.02.05-.03.04-.07.09-.11.13-.01.02-.03.04-.05.05-.04.05-.09.09-.14.11-.02.03-.05.05-.08.06-.06.04-.13.07-.2.08-.16.05-.34.06-.51.02-.08-.01-.16-.04-.23-.09-.05-.03-.09-.05-.12-.08-.04-.01-.08-.04-.11-.08-.01-.01-.02-.02-.04-.04-.04-.05-.09-.1-.12-.16,0,0,0,0,0,0-.01-.01-.02-.03-.03-.04-.06-.12-3.52-5.99-20.9-8.38-.11-.02-.23-.03-.34-.05-.71-.1-1.41-.2-2.11-.32-.86-.14-1.71-.28-2.55-.44-.64-.12-1.28-.25-1.91-.38-.7-.14-1.39-.29-2.07-.45-.28-.06-.56-.12-.83-.19-.02,0-.04-.01-.06-.01-.79-.19-1.55-.38-2.3-.57-.23-.06-.46-.12-.69-.18-.16-.04-.32-.08-.47-.12-.38-.1-.76-.21-1.14-.31-8.61-2.41-14.76-5.22-16.77-6.19-.08-.05-.16-.09-.24-.12h-.02s-2.21-1.48-2.21-1.48c-.74-.52-1.45-1.05-2.11-1.6-.1.5-.17,1-.23,1.5-.05.51-.08,1.02-.09,1.52-.02.82.02,1.62.13,2.41.04.33.1.65.16.97.45,2.25,1.41,4.33,2.89,6.25,8.97,11.63,34.09,14.07,40.44,14.5.02,0,.04.01.06,0l1.36.02c.36.01.68.2.85.49.01.01.01.02.01.03s0,.01.01.02c.1.16.16.35.15.56-.01.23-.1.45-.25.61,0,.01-.01.01-.01.01-.16.36-.53,1.18-.89,2.37-.8,2.58-1.63,6.9-.56,12,.04,0,.08,0,.12.01,1.87.06,3.37,1.59,3.37,3.49s-1.57,3.5-3.5,3.5-3.5-1.57-3.5-3.5c0-1.23.63-2.31,1.59-2.93-1.48-6.74.11-12.21,1.09-14.67-.05,0-.1-.01-.15-.01-2.84-.19-8.92-.72-15.73-2.18-9.52-2.04-20.48-5.89-26.04-13.09-1.58-2.05-2.64-4.27-3.18-6.65-.19-.82-.32-1.67-.38-2.54-.14-1.87.01-3.83.47-5.87.02-.11.06-.2.11-.29-2.88-2.67-4.94-5.52-6.44-8.4l-.58-.37-15.28,24.23,20.29,12.8,1.19.74,10.64,6.51c.09.05.17.12.23.2.26.29.33.72.15,1.09l-.47.96-.51,1.04s-.01,0-.01.02c-.02.05-.04.1-.06.15-1.25,2.95-2.53,6.28-3.7,9.83-.2.6-.39,1.21-.58,1.83-.19.61-.38,1.23-.56,1.86-.3,1.02-.59,2.05-.86,3.1-3.54,13.75-4.43,29.48,4.29,40.83h103.14c2.69-3.5,4.46-7.41,5.52-11.55.1-.36.18-.72.26-1.08h0c.09-.38.17-.74.23-1.11,1.72-8.74.54-18.32-1.72-27.09-.27-1.05-.56-2.08-.86-3.1-1.43-4.95-3.17-9.57-4.84-13.52-.02-.05-.04-.1-.06-.15-.06-.16-.08-.34-.05-.52.09-.54.6-.91,1.15-.82.55.1.71.43,1.15,1.33h0s.01.01.01.01ZM313.75,226.88c.09.15.22.27.39.36-.16-.07-.3-.19-.39-.36ZM315.46,226.88s-.07.09-.11.13c.04-.04.07-.08.1-.13.01-.01.02-.03.03-.05,0,.02,0,.03-.02.05Z"/>
        <path class="cls-7" d="M253.8,234.28l-1.24-.76s-.1-.07-.14-.11l1.38.87Z"/>
        <path class="cls-7" d="M300.8,234.33h0s-.1,0-.15,0h.15Z"/>
        <path class="cls-7" d="M303.34,233.45c-.01.23-.1.45-.25.61.06-.11.09-.17.09-.18.02-.04.04-.06.04-.1h0s0-.03.02-.05c.02-.03.03-.06.03-.09v-.02s.02-.07.03-.1c.01-.05.01-.1.01-.15,0-.17-.04-.33-.12-.48.1.16.16.35.15.56Z"/>
      </g>
      <path class="cls-7" d="M315.22,117.91c-6.36,0-12.15-2.9-15.36-7.62-2.4,1.2-5.07,1.83-7.79,1.83-8.83,0-16.11-6.48-16.56-14.75-.01-.25-.02-.5-.02-.74,0-.36.01-.63.02-.89.64-14.13,18.08-25.19,39.71-25.19s39.06,11.06,39.7,25.18c.01.27.02.53.02.8v.1c0,.24,0,.49-.02.73-.45,8.28-7.72,14.76-16.55,14.76-2.75,0-5.42-.63-7.8-1.83-3.21,4.72-9,7.62-15.35,7.62ZM300.56,107.61l.5.85c2.71,4.59,8.13,7.45,14.15,7.45s11.43-2.85,14.15-7.45l.5-.85.86.5c2.27,1.32,4.91,2.01,7.64,2.01,7.77,0,14.16-5.65,14.55-12.85,0-.2.02-.42.02-.64v-.1c0-.24,0-.47-.02-.71-.58-12.83-17.5-23.27-37.7-23.27s-37.13,10.44-37.71,23.28c0,.23-.02.47-.02.7,0,.31,0,.53.02.75.39,7.2,6.79,12.84,14.56,12.84,2.7,0,5.34-.7,7.64-2.02l.86-.49Z"/>
    </g>
    <path class="cls-9" d="M.6,216.49h-.01c-.07,0-.15-.01-.22-.02-.12-.02-.25-.03-.37-.05.2.02.4.05.6.07Z"/>
  </g>
</svg>