<?xml version="1.0" encoding="UTF-8"?>
<svg id="_레이어_2" data-name="레이어 2" xmlns="http://www.w3.org/2000/svg" xmlns:xlink="http://www.w3.org/1999/xlink" viewBox="0 0 237.36 345.28">
  <defs>
    <style>
      .cls-1 {
        fill: url(#linear-gradient-4);
      }

      .cls-2 {
        fill: url(#linear-gradient-3);
      }

      .cls-3 {
        fill: url(#linear-gradient-2);
      }

      .cls-4 {
        fill: url(#linear-gradient);
      }

      .cls-5 {
        fill: #e0dfea;
      }

      .cls-6 {
        stroke: #231815;
        stroke-miterlimit: 10;
        stroke-width: 2px;
      }

      .cls-6, .cls-7 {
        fill: #002c6e;
      }

      .cls-8 {
        fill: #0099ec;
      }

      .cls-9 {
        fill: #231815;
      }

      .cls-10 {
        fill: #fff;
      }

      .cls-11 {
        fill: #002d71;
      }

      .cls-12 {
        fill: #ffccc1;
      }

      .cls-13 {
        fill: #191919;
      }
    </style>
    <linearGradient id="linear-gradient" x1="42.66" y1="91.35" x2="68.19" y2="102.84" gradientUnits="userSpaceOnUse">
      <stop offset="0" stop-color="#ffccc1"/>
      <stop offset="1" stop-color="#f9afa2"/>
    </linearGradient>
    <linearGradient id="linear-gradient-2" x1="198.84" y1="91.21" x2="161.82" y2="101.93" xlink:href="#linear-gradient"/>
    <linearGradient id="linear-gradient-3" x1="124.63" y1="319.04" x2="124.63" y2="247.65" gradientUnits="userSpaceOnUse">
      <stop offset="0" stop-color="#e0dfea"/>
      <stop offset="0" stop-color="#e0dfea"/>
      <stop offset=".31" stop-color="#f1f1f5"/>
      <stop offset=".63" stop-color="#fbfbfc"/>
      <stop offset="1" stop-color="#fff"/>
    </linearGradient>
    <linearGradient id="linear-gradient-4" x1="119.98" y1="188.97" x2="119.98" y2="200.72" xlink:href="#linear-gradient"/>
  </defs>
  <g id="turnaround">
    <g>
      <g>
        <path class="cls-10" d="M162.95,309.34c-.09.76-.19,1.58-.3,2.47-.08.62-.17,1.26-.26,1.93-.06.44-.13.88-.2,1.34-.17,1.15-.36,2.35-.57,3.58-.11.61-.22,1.24-.34,1.87-.11.62-.24,1.25-.37,1.89-.13.63-.26,1.27-.41,1.91-.11.51-.23,1.02-.35,1.53-.04.16-.08.33-.12.5-.14.59-.29,1.17-.45,1.75-.17.63-.34,1.24-.52,1.85-.03.09-.06.18-.09.28h-34.58s-.02-.11-.03-.17c-.58-3.38-.89-7.34-.93-11.79h8.01c.56,0,1-.45,1-1s-.44-1-1-1h-23.48c-.56,0-1,.45-1,1s.44,1,1,1h8.57c-.04,4.45-.35,8.41-.93,11.79-.01.06-.02.12-.03.17h-34.58c-.03-.1-.06-.19-.09-.28-.18-.61-.35-1.22-.52-1.85-.16-.58-.31-1.16-.45-1.75-.04-.17-.08-.34-.12-.5-.12-.51-.24-1.02-.35-1.53-.15-.64-.28-1.28-.41-1.91-.13-.64-.26-1.27-.37-1.89-.12-.63-.23-1.26-.34-1.87-.21-1.23-.4-2.43-.57-3.58-.07-.46-.14-.9-.2-1.34-.09-.67-.18-1.31-.26-1.93-.11-.89-.21-1.71-.3-2.47h85.94Z"/>
        <path class="cls-10" d="M115.57,330.24c-2.26,12.89-7.75,13.04-7.98,13.04h-17.24c-4.48,0-7.56-7.03-9.36-13.04h34.58Z"/>
        <path class="cls-10" d="M158.97,330.24c-1.8,6.01-4.88,13.04-9.36,13.04h-17.24c-.23,0-5.72-.15-7.98-13.04h34.58Z"/>
      </g>
      <path class="cls-9" d="M160.13,302.13h-.16l-.03-.05c.06.02.13.03.19.05Z"/>
      <path class="cls-11" d="M115.57,330.24c-2.26,12.89-7.75,13.04-7.98,13.04h-17.24c-4.48,0-7.56-7.03-9.36-13.04h34.58Z"/>
      <path class="cls-11" d="M158.97,330.24c-1.8,6.01-4.88,13.04-9.36,13.04h-17.24c-.23,0-5.72-.15-7.98-13.04h34.58Z"/>
      <g>
        <path class="cls-7" d="M160.13,302.13h-.16l-.03-.05c.06.02.13.03.19.05Z"/>
        <path class="cls-7" d="M235.36,312.11c0,5.79-6.2,10.49-13.81,10.49-1.11,0-2.22-.1-3.31-.32.47-1.46.99-4.07-.1-6.8-1.23-3.06-4.09-5.37-8.52-6.88-.53-.17-1.1.1-1.27.63-.18.52.1,1.09.62,1.27,3.84,1.3,6.3,3.22,7.3,5.7,1.17,2.89,0,5.73-.24,6.26-.01.03-.02.05-.03.06-.01.02-.02.03-.02.03-2.03,3.06-6.27,4.82-11.62,4.82-2.5,0-4.97-.53-7.13-1.53-.05-.02-.09-.03-.14-.05-.01,0-.02,0-.04,0-1.15-.48-5.35-3.35-8.26-5.41.69-1.11,1.65-3.16,1.42-5.78-.29-3.2-2.22-6.23-5.74-9.03-.44-.34-1.06-.27-1.41.17-.34.43-.27,1.06.17,1.4,3.06,2.43,4.74,4.99,4.98,7.6.26,2.85-1.32,4.91-1.54,5.18-.01.02-.02.03-.02.03-.4.36-3.11,2.71-6.27,2.45-3.86-.31-7.27-2.34-9.11-5.43-.03-.05-.08-.11-.12-.16l-5.07-7.46h.75c3.42,0,6.21-2.79,6.21-6.21v-1.66c2.74-3.53,4.61-7.43,5.79-11.53,15.4,11.36,35.27,11.88,41.46,11.73.42-.03.83-.05,1.26-.05,7.61,0,13.81,4.71,13.81,10.49Z"/>
        <path class="cls-9" d="M159.94,302.08l.03.05h.16c-.06-.02-.13-.03-.19-.05ZM159.94,302.08l.03.05h.16c-.06-.02-.13-.03-.19-.05ZM159.94,302.08l.03.05h.16c-.06-.02-.13-.03-.19-.05ZM159.94,302.08l.03.05h.16c-.06-.02-.13-.03-.19-.05ZM159.94,302.08l.03.05h.16c-.06-.02-.13-.03-.19-.05ZM159.94,302.08l.03.05h.16c-.06-.02-.13-.03-.19-.05ZM159.94,302.08l.03.05h.16c-.06-.02-.13-.03-.19-.05ZM159.94,302.08l.03.05h.16c-.06-.02-.13-.03-.19-.05ZM159.94,302.08l.03.05h.16c-.06-.02-.13-.03-.19-.05ZM159.94,302.08l.03.05h.16c-.06-.02-.13-.03-.19-.05ZM159.94,302.08l.03.05h.16c-.06-.02-.13-.03-.19-.05ZM159.94,302.08l.03.05h.16c-.06-.02-.13-.03-.19-.05ZM159.94,302.08l.03.05h.16c-.06-.02-.13-.03-.19-.05ZM159.94,302.08l.03.05h.16c-.06-.02-.13-.03-.19-.05ZM159.94,302.08l.03.05h.16c-.06-.02-.13-.03-.19-.05ZM159.94,302.08l.03.05h.16c-.06-.02-.13-.03-.19-.05ZM159.94,302.08l.03.05h.16c-.06-.02-.13-.03-.19-.05ZM159.94,302.08l.03.05h.16c-.06-.02-.13-.03-.19-.05ZM159.94,302.08l.03.05h.16c-.06-.02-.13-.03-.19-.05ZM159.94,302.08l.03.05h.16c-.06-.02-.13-.03-.19-.05ZM159.94,302.08l.03.05h.16c-.06-.02-.13-.03-.19-.05ZM159.94,302.08l.03.05h.16c-.06-.02-.13-.03-.19-.05ZM159.94,302.08l.03.05h.16c-.06-.02-.13-.03-.19-.05Z"/>
      </g>
      <g>
        <path class="cls-10" d="M210.6,253.02l-11.03,15.03c-1.63,2.22-4.77,2.7-6.99,1.07l-7.82-5.74,16.96-23.09,7.81,5.74c2.23,1.64,2.71,4.77,1.07,6.99Z"/>
        <path class="cls-11" d="M210.6,253.02l-11.03,15.03c-1.63,2.22-4.77,2.7-6.99,1.07l-7.82-5.74,16.96-23.09,7.81,5.74c2.23,1.64,2.71,4.77,1.07,6.99Z"/>
      </g>
      <g>
        <path class="cls-10" d="M98.7,215.63h-.01c-.07,0-.15-.01-.22-.02-.12-.02-.25-.03-.37-.05.2.02.4.05.6.07Z"/>
        <path class="cls-10" d="M119.52,226.38c-.16-.07-.3-.19-.39-.36.09.15.22.27.39.36Z"/>
        <path class="cls-10" d="M120.86,225.97s-.01.03-.02.05c-.03.04-.07.09-.11.13.04-.04.07-.08.1-.13.01-.01.02-.03.03-.05Z"/>
        <path class="cls-5" d="M128.9,218.56c-5.18,1.89-7.74,4.02-8.92,5.31-1.18-1.29-3.74-3.42-8.92-5.31,2.84.11,5.81.17,8.92.17s6.08-.06,8.92-.17Z"/>
        <path class="cls-10" d="M142.06,217.55c-.1.01-.2.03-.3.04l.18-.03s.08-.01.12-.01Z"/>
        <path class="cls-10" d="M132.03,233.86h-.02s-.01-.02-.01-.02c-.01-.03-.03-.05-.03-.07.02.03.04.06.06.09Z"/>
      </g>
      <path class="cls-10" d="M159.94,302.08l.03.05h.16c-.06-.02-.13-.03-.19-.05Z"/>
      <g>
        <g>
          <path class="cls-10" d="M69.33,101.66c-.39-.07-.78.09-1,.43-1.82,2.77-3.46,5.71-4.91,8.84-.31-.03-.62-.06-.93-.11-.31-.03-.63-.08-.96-.13-.24-.04-.49-.08-.74-.12-.43-.07-.86-.15-1.3-.25-.26-.05-.51-.11-.77-.17-.91-.2-1.84-.44-2.78-.74-.35-.1-.71-.22-1.06-.34-.36-.12-.71-.25-1.07-.38-.72-.27-1.44-.56-2.17-.88-14.34-6.35-19.3-23.84-17.65-29.85.27-.96.68-1.74,1.27-2.36,3.96,6.61,14.53,21.01,33.46,25.9.19.05.39.1.58.15.01,0,.02,0,.03,0Z"/>
          <path class="cls-10" d="M70.01,103.18s-.05.07-.07.11c.4-.62.1-1.43-.6-1.63.02,0,.04.01.06.01.01,0,.02.01.02.01.67.16.96.93.59,1.5Z"/>
          <path class="cls-10" d="M89.57,93.03c0,2.56-1.49,5.77-4.39,9.39-.19.23-.37.46-.56.69-.22.26-.44.52-.67.77-.06.08-.13.16-.2.23-.22-.31-.42-.63-.61-.96-1.08-1.86-1.75-3.96-1.87-6.2,0-.23-.02-.46-.02-.69v-.1c0-.13,0-.25.01-.38v-.11c0-.25,0-.5,0-.75.09-1.91.51-3.77,1.22-5.56,0,0,.01,0,.01-.01.38-.92.83-1.82,1.36-2.7l.25.08.19.06c.35.14.68.3,1,.45.2.1.4.21.59.32.12.06.23.13.34.2.14.08.28.17.41.26.2.14.4.28.58.43.18.14.34.28.5.43h.01c.07.07.13.13.18.19.14.14.27.28.38.42,0,.01.01.01.01.01.14.18.27.36.39.54.07.1.13.19.18.29.06.1.11.2.16.3.06.12.11.23.16.35.08.2.14.4.2.61.12.45.18.94.18,1.44Z"/>
          <path class="cls-9" d="M91.33,91.09c-.54-2.05-1.92-3.76-4.18-5.1-.38-.23-.78-.45-1.21-.64-.21-.11-.43-.21-.65-.3-.07-.04-.14-.06-.21-.09-.02-.01-.04-.02-.07-.03-.01-.01-.03-.01-.04-.02l-.97-.3c-.39.55-.72,1.05-1,1.52-.04.07-.09.14-.12.22l.16.05.82.25.25.08.19.06c.18.07.34.14.51.22s.33.16.49.23c.2.1.4.21.59.32.12.06.23.13.34.2.14.08.28.17.41.26.2.14.4.28.58.43.18.14.34.28.5.43h.01c.07.07.13.13.18.19.14.14.27.28.38.42,0,.01.01.01.01.01.14.18.27.36.39.54.07.1.13.19.18.29.06.1.11.2.16.3.06.12.11.23.16.35.08.2.14.4.2.61.12.45.18.94.18,1.44,0,2.56-1.49,5.77-4.39,9.39-.19.23-.36.45-.55.68h-.01c-.22.27-.44.53-.67.78-.06.08-.13.16-.2.23.38.55.81,1.08,1.27,1.58.08-.09.15-.17.24-.26.22-.25.44-.51.65-.77.28-.33.56-.66.83-1,3.93-4.91,5.48-9.14,4.59-12.57Z"/>
        </g>
        <path class="cls-4" d="M69.33,101.66c-.39-.07-.78.09-1,.43-1.82,2.77-3.46,5.71-4.91,8.84-.31-.03-.62-.06-.93-.11-.31-.03-.63-.08-.96-.13-.24-.04-.49-.08-.74-.12-.43-.07-.86-.15-1.3-.25-.26-.05-.51-.11-.77-.17-.91-.2-1.84-.44-2.78-.74-.35-.1-.71-.22-1.06-.34-.36-.12-.71-.25-1.07-.38-.72-.27-1.44-.56-2.17-.88-14.34-6.35-19.3-23.84-17.65-29.85.27-.96.68-1.74,1.27-2.36,3.96,6.61,14.53,21.01,33.46,25.9.19.05.39.1.58.15.01,0,.02,0,.03,0Z"/>
        <path class="cls-12" d="M84.62,103.11c-.22.26-.44.52-.67.77-.06.08-.13.16-.2.23-.22-.31-.42-.63-.61-.96h.3c.39-.01.78-.02,1.18-.04Z"/>
        <g>
          <path class="cls-10" d="M158.71,95.67v.1c0,.12,0,.23,0,.35,0,.11-.01.23-.01.34,0,.16,0,.33-.01.49-.12,2.24-.79,4.34-1.87,6.2-.19.33-.39.65-.61.96-.06-.07-.12-.14-.19-.22-.22-.26-.45-.52-.67-.78-.19-.23-.37-.46-.56-.69-3.47-4.34-4.92-8.08-4.21-10.83.07-.25.15-.5.25-.73.1-.24.22-.47.36-.7.06-.1.13-.21.22-.32.15-.22.33-.44.53-.65.07-.09.16-.17.25-.26s.19-.18.29-.26c.07-.06.14-.12.22-.18.07-.06.15-.12.22-.18.11-.09.23-.18.36-.27.03-.02.06-.04.1-.06.09-.06.17-.12.27-.17.09-.06.18-.12.28-.17l.02-.02c.2-.11.42-.23.64-.34.02-.01.05-.03.08-.04.29-.14.59-.28.91-.41l.28-.09.26-.08c.53.88.98,1.77,1.35,2.69.72,1.79,1.14,3.65,1.23,5.57.01.25.02.5.02.75Z"/>
          <path class="cls-10" d="M188.32,107.81c-.73.32-1.45.61-2.17.88-.36.13-.71.26-1.07.38-.35.12-.71.24-1.06.34-.89.28-1.76.51-2.62.71-.04.01-.08.02-.12.03-.01,0-.03,0-.04,0-.26.06-.51.12-.77.17-.44.1-.87.18-1.3.25-.25.05-.5.09-.74.12-.33.05-.65.1-.96.13-.32.05-.63.08-.93.11-.24.03-.48.05-.72.07-.22.02-.44.04-.66.05-.26.02-.51.03-.76.04-.29-.61-.58-1.2-.89-1.79-.01-.01-.01-.03-.02-.04-.09-.19-.19-.37-.29-.56-.03-.05-.05-.1-.08-.15-.02-.04-.04-.07-.06-.11-.01-.02-.02-.04-.03-.05-.01-.03-.03-.06-.05-.09-.01-.03-.03-.06-.04-.08-.02-.04-.04-.08-.06-.12-.01,0-.01-.02-.02-.03-.07-.14-.14-.27-.21-.4-.05-.1-.1-.19-.16-.29-.06-.11-.13-.23-.19-.34-.07-.12-.13-.24-.21-.36-.15-.27-.3-.54-.47-.81-.21-.37-.43-.73-.65-1.09-.07-.12-.14-.23-.22-.35-.07-.11-.14-.22-.21-.33-.07-.11-.14-.23-.21-.33-.05-.08-.1-.16-.15-.24-.03-.04-.05-.08-.08-.12-.05-.08-.1-.15-.15-.23,0-.01-.01-.01-.01-.02-.04-.06-.07-.12-.09-.19-.03-.06-.04-.12-.05-.19-.03-.13-.02-.27.02-.4.02-.09.06-.17.1-.25.03-.05.06-.1.1-.14.05-.07.12-.13.19-.18t.01,0s.08-.05.13-.08h.02s.05-.02.07-.03c.02-.01.05-.01.07-.02h.04s.02-.01.02-.01c.23-.06.45-.11.67-.17,18.93-4.89,29.5-19.29,33.46-25.9.59.62,1,1.41,1.27,2.37,1.65,6-3.31,23.49-17.65,29.84Z"/>
          <path class="cls-9" d="M207.89,77.44c-.38-1.4-1.04-2.56-1.96-3.46-3.29-3.21-8.69-2.04-8.99-1.97l-40.97,12.61-1.01.31-.06.02s0,.01-.02.01c-.08.03-.15.06-.22.09-.22.09-.44.19-.65.29-.43.2-.83.41-1.2.64-2.24,1.32-3.64,3.04-4.18,5.11-.89,3.43.66,7.66,4.59,12.57.28.34.56.68.83,1.01.22.26.44.51.66.76.08.09.15.17.22.26.46-.5.89-1.03,1.27-1.58-.06-.07-.12-.14-.19-.22-.22-.26-.45-.52-.67-.78-.19-.23-.37-.46-.56-.69-3.47-4.34-4.92-8.08-4.21-10.83.07-.25.15-.5.25-.73.1-.24.22-.47.36-.7.06-.1.13-.21.22-.32.15-.22.33-.44.53-.65.07-.09.16-.17.25-.26s.19-.18.29-.26c.07-.06.14-.12.22-.18.07-.06.15-.12.22-.18.11-.1.23-.18.36-.27.03-.02.06-.04.1-.06.09-.06.17-.12.27-.17.09-.06.18-.12.28-.17l.02-.02c.2-.11.42-.23.64-.34.02-.01.05-.03.08-.04.16-.08.32-.15.49-.23l.42-.18.28-.09.26-.08.82-.25.17-.05,40.35-12.41s4.57-.98,7.08,1.47c.06.06.12.12.17.18.59.62,1,1.41,1.27,2.37,1.65,6-3.31,23.49-17.65,29.84-.73.32-1.45.61-2.17.88-.36.14-.71.26-1.07.38-.35.12-.71.24-1.06.34-.89.28-1.76.51-2.62.71-.04.01-.08.02-.12.03-.01,0-.03,0-.04,0-.26.06-.51.12-.77.17-.44.1-.87.18-1.3.25-.25.05-.5.09-.74.12-.33.05-.65.1-.96.13-.32.05-.63.08-.93.11-.24.03-.48.05-.72.07-.22.02-.44.04-.66.05-.26.02-.51.03-.76.04.32.65.63,1.32.93,1.99.68-.05,1.38-.12,2.09-.2,3.59-.44,7.56-1.41,11.7-3.25,15.04-6.65,20.79-24.88,18.77-32.19Z"/>
        </g>
        <path class="cls-12" d="M156.81,103.15c-.19.33-.39.65-.61.96-.06-.07-.12-.14-.19-.22-.22-.26-.45-.52-.67-.78.4.02.79.03,1.18.04h.29Z"/>
        <path class="cls-3" d="M188.32,107.81c-.73.32-1.45.61-2.17.88-.36.13-.71.26-1.07.38-.35.12-.71.24-1.06.34-.89.28-1.76.51-2.62.71-.04.01-.08.02-.12.03-.01,0-.03,0-.04,0-.26.06-.51.12-.77.17-.44.1-.87.18-1.3.25-.25.05-.5.09-.74.12-.33.05-.65.1-.96.13-.32.05-.63.08-.93.11-.24.03-.48.05-.72.07-.22.02-.44.04-.66.05-.26.02-.51.03-.76.04-.29-.61-.58-1.2-.89-1.79-.01-.01-.01-.03-.02-.04-.09-.19-.19-.37-.29-.56-.03-.05-.05-.1-.08-.15-.02-.04-.04-.07-.06-.11-.01-.02-.02-.04-.03-.05-.01-.03-.03-.06-.05-.09-.01-.03-.03-.06-.04-.08-.02-.04-.04-.08-.06-.12-.01,0-.01-.02-.02-.03-.07-.14-.14-.27-.21-.4-.05-.1-.1-.19-.16-.29-.06-.11-.13-.23-.19-.34-.07-.12-.13-.24-.21-.36-.15-.27-.3-.54-.47-.81-.21-.37-.43-.73-.65-1.09-.07-.12-.14-.23-.22-.35-.07-.11-.14-.22-.21-.33-.07-.11-.14-.23-.21-.33-.05-.08-.1-.16-.15-.24-.03-.04-.05-.08-.08-.12-.05-.08-.1-.15-.15-.23,0-.01-.01-.01-.01-.02-.04-.06-.07-.12-.09-.19-.03-.06-.04-.12-.05-.19-.03-.13-.02-.27.02-.4.02-.09.06-.17.1-.25.03-.05.06-.1.1-.14.05-.07.12-.13.19-.18t.01,0s.08-.05.13-.08h.02s.05-.02.07-.03c.02-.01.05-.01.07-.02,0,0,.03-.01.04-.01h.02c.23-.06.45-.11.67-.17,18.93-4.89,29.5-19.29,33.46-25.9.59.62,1,1.41,1.27,2.37,1.65,6-3.31,23.49-17.65,29.84Z"/>
      </g>
      <g>
        <path class="cls-9" d="M84.81,87.01c-.17-.08-.33-.15-.51-.22l-.19-.06-.25-.08c-.53.88-.98,1.78-1.36,2.7.11-.09.22-.17.33-.26.41-.33.82-.64,1.23-.95.01-.01.03-.02.04-.03.04-.03.08-.06.12-.09.01,0,.01-.01.01-.01.36-.26.71-.52,1.07-.77-.16-.07-.32-.15-.49-.23ZM156.11,86.66l-.26.08-.28.09-.42.18c-.17.08-.33.15-.49.23.36.25.71.51,1.07.77.03.02.05.04.08.06.44.33.87.66,1.31,1.01.11.09.23.18.34.27-.37-.92-.82-1.81-1.35-2.69ZM69.42,101.68s-.01-.01-.02-.01c-.02,0-.04-.01-.06-.01.7.2,1,1.01.6,1.63.02-.04.05-.07.07-.11.37-.57.08-1.34-.59-1.5ZM84.81,87.01c-.17-.08-.33-.15-.51-.22l-.19-.06-.25-.08c-.53.88-.98,1.78-1.36,2.7.11-.09.22-.17.33-.26.41-.33.82-.64,1.23-.95.01-.01.03-.02.04-.03.04-.03.08-.06.12-.09.01,0,.01-.01.01-.01.36-.26.71-.52,1.07-.77-.16-.07-.32-.15-.49-.23ZM156.11,86.66l-.26.08-.28.09-.42.18c-.17.08-.33.15-.49.23.36.25.71.51,1.07.77.03.02.05.04.08.06.44.33.87.66,1.31,1.01.11.09.23.18.34.27-.37-.92-.82-1.81-1.35-2.69ZM69.42,101.68s-.01-.01-.02-.01c-.02,0-.04-.01-.06-.01.7.2,1,1.01.6,1.63.02-.04.05-.07.07-.11.37-.57.08-1.34-.59-1.5ZM84.81,87.01c-.17-.08-.33-.15-.51-.22l-.19-.06-.25-.08c-.53.88-.98,1.78-1.36,2.7.11-.09.22-.17.33-.26.41-.33.82-.64,1.23-.95.01-.01.03-.02.04-.03.04-.03.08-.06.12-.09.01,0,.01-.01.01-.01.36-.26.71-.52,1.07-.77-.16-.07-.32-.15-.49-.23ZM156.11,86.66l-.26.08-.28.09-.42.18c-.17.08-.33.15-.49.23.36.25.71.51,1.07.77.03.02.05.04.08.06.44.33.87.66,1.31,1.01.11.09.23.18.34.27-.37-.92-.82-1.81-1.35-2.69ZM69.42,101.68s-.01-.01-.02-.01c-.02,0-.04-.01-.06-.01.7.2,1,1.01.6,1.63.02-.04.05-.07.07-.11.37-.57.08-1.34-.59-1.5ZM84.81,87.01c-.17-.08-.33-.15-.51-.22l-.19-.06-.25-.08c-.53.88-.98,1.78-1.36,2.7.11-.09.22-.17.33-.26.41-.33.82-.64,1.23-.95.01-.01.03-.02.04-.03.04-.03.08-.06.12-.09.01,0,.01-.01.01-.01.36-.26.71-.52,1.07-.77-.16-.07-.32-.15-.49-.23ZM156.11,86.66l-.26.08-.28.09-.42.18c-.17.08-.33.15-.49.23.36.25.71.51,1.07.77.03.02.05.04.08.06.44.33.87.66,1.31,1.01.11.09.23.18.34.27-.37-.92-.82-1.81-1.35-2.69ZM69.42,101.68s-.01-.01-.02-.01c-.02,0-.04-.01-.06-.01.7.2,1,1.01.6,1.63.02-.04.05-.07.07-.11.37-.57.08-1.34-.59-1.5ZM84.81,87.01c-.17-.08-.33-.15-.51-.22l-.19-.06-.25-.08c-.53.88-.98,1.78-1.36,2.7.11-.09.22-.17.33-.26.41-.33.82-.64,1.23-.95.01-.01.03-.02.04-.03.04-.03.08-.06.12-.09.01,0,.01-.01.01-.01.36-.26.71-.52,1.07-.77-.16-.07-.32-.15-.49-.23ZM156.11,86.66l-.26.08-.28.09-.42.18c-.17.08-.33.15-.49.23.36.25.71.51,1.07.77.03.02.05.04.08.06.44.33.87.66,1.31,1.01.11.09.23.18.34.27-.37-.92-.82-1.81-1.35-2.69ZM69.42,101.68s-.01-.01-.02-.01c-.02,0-.04-.01-.06-.01.7.2,1,1.01.6,1.63.02-.04.05-.07.07-.11.37-.57.08-1.34-.59-1.5ZM84.81,87.01c-.17-.08-.33-.15-.51-.22l-.19-.06-.25-.08c-.53.88-.98,1.78-1.36,2.7.11-.09.22-.17.33-.26.41-.33.82-.64,1.23-.95.01-.01.03-.02.04-.03.04-.03.08-.06.12-.09.01,0,.01-.01.01-.01.36-.26.71-.52,1.07-.77-.16-.07-.32-.15-.49-.23ZM156.11,86.66l-.26.08-.28.09-.42.18c-.17.08-.33.15-.49.23.36.25.71.51,1.07.77.03.02.05.04.08.06.44.33.87.66,1.31,1.01.11.09.23.18.34.27-.37-.92-.82-1.81-1.35-2.69ZM69.42,101.68s-.01-.01-.02-.01c-.02,0-.04-.01-.06-.01.7.2,1,1.01.6,1.63.02-.04.05-.07.07-.11.37-.57.08-1.34-.59-1.5ZM84.81,87.01c-.17-.08-.33-.15-.51-.22l-.19-.06-.25-.08c-.53.88-.98,1.78-1.36,2.7.11-.09.22-.17.33-.26.41-.33.82-.64,1.23-.95.01-.01.03-.02.04-.03.04-.03.08-.06.12-.09.01,0,.01-.01.01-.01.36-.26.71-.52,1.07-.77-.16-.07-.32-.15-.49-.23ZM156.11,86.66l-.26.08-.28.09-.42.18c-.17.08-.33.15-.49.23.36.25.71.51,1.07.77.03.02.05.04.08.06.44.33.87.66,1.31,1.01.11.09.23.18.34.27-.37-.92-.82-1.81-1.35-2.69ZM69.42,101.68s-.01-.01-.02-.01c-.02,0-.04-.01-.06-.01.7.2,1,1.01.6,1.63.02-.04.05-.07.07-.11.37-.57.08-1.34-.59-1.5ZM84.81,87.01c-.17-.08-.33-.15-.51-.22l-.19-.06-.25-.08c-.53.88-.98,1.78-1.36,2.7.11-.09.22-.17.33-.26.41-.33.82-.64,1.23-.95.01-.01.03-.02.04-.03.04-.03.08-.06.12-.09.01,0,.01-.01.01-.01.36-.26.71-.52,1.07-.77-.16-.07-.32-.15-.49-.23ZM156.11,86.66l-.26.08-.28.09-.42.18c-.17.08-.33.15-.49.23.36.25.71.51,1.07.77.03.02.05.04.08.06.44.33.87.66,1.31,1.01.11.09.23.18.34.27-.37-.92-.82-1.81-1.35-2.69ZM69.42,101.68s-.01-.01-.02-.01c-.02,0-.04-.01-.06-.01.7.2,1,1.01.6,1.63.02-.04.05-.07.07-.11.37-.57.08-1.34-.59-1.5ZM84.81,87.01c-.17-.08-.33-.15-.51-.22l-.19-.06-.25-.08c-.53.88-.98,1.78-1.36,2.7.11-.09.22-.17.33-.26.41-.33.82-.64,1.23-.95.01-.01.03-.02.04-.03.04-.03.08-.06.12-.09.01,0,.01-.01.01-.01.36-.26.71-.52,1.07-.77-.16-.07-.32-.15-.49-.23ZM156.11,86.66l-.26.08-.28.09-.42.18c-.17.08-.33.15-.49.23.36.25.71.51,1.07.77.03.02.05.04.08.06.44.33.87.66,1.31,1.01.11.09.23.18.34.27-.37-.92-.82-1.81-1.35-2.69ZM69.42,101.68s-.01-.01-.02-.01c-.02,0-.04-.01-.06-.01.7.2,1,1.01.6,1.63.02-.04.05-.07.07-.11.37-.57.08-1.34-.59-1.5ZM84.81,87.01c-.17-.08-.33-.15-.51-.22l-.19-.06-.25-.08c-.53.88-.98,1.78-1.36,2.7.11-.09.22-.17.33-.26.41-.33.82-.64,1.23-.95.01-.01.03-.02.04-.03.04-.03.08-.06.12-.09.01,0,.01-.01.01-.01.36-.26.71-.52,1.07-.77-.16-.07-.32-.15-.49-.23ZM156.11,86.66l-.26.08-.28.09-.42.18c-.17.08-.33.15-.49.23.36.25.71.51,1.07.77.03.02.05.04.08.06.44.33.87.66,1.31,1.01.11.09.23.18.34.27-.37-.92-.82-1.81-1.35-2.69ZM69.42,101.68s-.01-.01-.02-.01c-.02,0-.04-.01-.06-.01.7.2,1,1.01.6,1.63.02-.04.05-.07.07-.11.37-.57.08-1.34-.59-1.5ZM84.81,87.01c-.17-.08-.33-.15-.51-.22l-.19-.06-.25-.08c-.53.88-.98,1.78-1.36,2.7.11-.09.22-.17.33-.26.41-.33.82-.64,1.23-.95.01-.01.03-.02.04-.03.04-.03.08-.06.12-.09.01,0,.01-.01.01-.01.36-.26.71-.52,1.07-.77-.16-.07-.32-.15-.49-.23ZM156.11,86.66l-.26.08-.28.09-.42.18c-.17.08-.33.15-.49.23.36.25.71.51,1.07.77.03.02.05.04.08.06.44.33.87.66,1.31,1.01.11.09.23.18.34.27-.37-.92-.82-1.81-1.35-2.69ZM69.42,101.68s-.01-.01-.02-.01c-.02,0-.04-.01-.06-.01.7.2,1,1.01.6,1.63.02-.04.05-.07.07-.11.37-.57.08-1.34-.59-1.5ZM84.81,87.01c-.17-.08-.33-.15-.51-.22l-.19-.06-.25-.08c-.53.88-.98,1.78-1.36,2.7.11-.09.22-.17.33-.26.41-.33.82-.64,1.23-.95.01-.01.03-.02.04-.03.04-.03.08-.06.12-.09.01,0,.01-.01.01-.01.36-.26.71-.52,1.07-.77-.16-.07-.32-.15-.49-.23ZM156.11,86.66l-.26.08-.28.09-.42.18c-.17.08-.33.15-.49.23.36.25.71.51,1.07.77.03.02.05.04.08.06.44.33.87.66,1.31,1.01.11.09.23.18.34.27-.37-.92-.82-1.81-1.35-2.69ZM176.54,110.93c-1.45-3.13-3.09-6.07-4.91-8.84-.23-.36-.65-.52-1.06-.42h-.03c-.06.02-.11.04-.17.06-.05.03-.1.05-.15.08t-.01,0c-.07.05-.14.11-.19.18-.04.04-.07.09-.1.14-.04.08-.08.16-.1.25-.03.13-.04.27-.02.4.01.07.02.13.05.19.02.07.05.13.09.19,0,.01.01.01.01.02.05.08.1.15.15.23.03.04.05.08.08.12.05.08.1.16.15.24.07.1.14.22.21.33.07.11.14.22.21.33.08.12.15.23.22.35.22.36.44.72.65,1.09.17.27.32.54.47.81.08.12.14.24.21.36.06.11.13.23.19.34.06.1.11.19.16.29.07.13.14.26.21.4.01.01.01.02.02.03.02.04.04.08.06.12.01.02.03.05.04.08.02.03.04.06.05.09.01.01.02.03.03.05.02.04.04.07.06.11.03.05.05.1.08.15.1.19.2.37.29.56.01.01.01.03.02.04.31.59.6,1.18.89,1.79.32.65.63,1.32.93,1.99.68-.05,1.38-.12,2.09-.2-.28-.66-.57-1.31-.88-1.95ZM156.11,86.66l-.26.08-.28.09-.42.18c-.17.08-.33.15-.49.23.36.25.71.51,1.07.77.03.02.05.04.08.06.44.33.87.66,1.31,1.01.11.09.23.18.34.27-.37-.92-.82-1.81-1.35-2.69ZM84.81,87.01c-.17-.08-.33-.15-.51-.22l-.19-.06-.25-.08c-.53.88-.98,1.78-1.36,2.7.11-.09.22-.17.33-.26.41-.33.82-.64,1.23-.95.01-.01.03-.02.04-.03.04-.03.08-.06.12-.09.01,0,.01-.01.01-.01.36-.26.71-.52,1.07-.77-.16-.07-.32-.15-.49-.23ZM69.42,101.68s-.01-.01-.02-.01c-.02,0-.04-.01-.06-.01.7.2,1,1.01.6,1.63.02-.04.05-.07.07-.11.37-.57.08-1.34-.59-1.5ZM156.11,86.66l-.26.08-.28.09-.42.18c-.17.08-.33.15-.49.23.36.25.71.51,1.07.77.03.02.05.04.08.06.44.33.87.66,1.31,1.01.11.09.23.18.34.27-.37-.92-.82-1.81-1.35-2.69ZM84.81,87.01c-.17-.08-.33-.15-.51-.22l-.19-.06-.25-.08c-.53.88-.98,1.78-1.36,2.7.11-.09.22-.17.33-.26.41-.33.82-.64,1.23-.95.01-.01.03-.02.04-.03.04-.03.08-.06.12-.09.01,0,.01-.01.01-.01.36-.26.71-.52,1.07-.77-.16-.07-.32-.15-.49-.23ZM69.42,101.68s-.01-.01-.02-.01c-.02,0-.04-.01-.06-.01.7.2,1,1.01.6,1.63.02-.04.05-.07.07-.11.37-.57.08-1.34-.59-1.5ZM156.11,86.66l-.26.08-.28.09-.42.18c-.17.08-.33.15-.49.23.36.25.71.51,1.07.77.03.02.05.04.08.06.44.33.87.66,1.31,1.01.11.09.23.18.34.27-.37-.92-.82-1.81-1.35-2.69ZM84.81,87.01c-.17-.08-.33-.15-.51-.22l-.19-.06-.25-.08c-.53.88-.98,1.78-1.36,2.7.11-.09.22-.17.33-.26.41-.33.82-.64,1.23-.95.01-.01.03-.02.04-.03.04-.03.08-.06.12-.09.01,0,.01-.01.01-.01.36-.26.71-.52,1.07-.77-.16-.07-.32-.15-.49-.23ZM69.42,101.68s-.01-.01-.02-.01c-.02,0-.04-.01-.06-.01.7.2,1,1.01.6,1.63.02-.04.05-.07.07-.11.37-.57.08-1.34-.59-1.5ZM156.11,86.66l-.26.08-.28.09-.42.18c-.17.08-.33.15-.49.23.36.25.71.51,1.07.77.03.02.05.04.08.06.44.33.87.66,1.31,1.01.11.09.23.18.34.27-.37-.92-.82-1.81-1.35-2.69ZM84.81,87.01c-.17-.08-.33-.15-.51-.22l-.19-.06-.25-.08c-.53.88-.98,1.78-1.36,2.7.11-.09.22-.17.33-.26.41-.33.82-.64,1.23-.95.01-.01.03-.02.04-.03.04-.03.08-.06.12-.09.01,0,.01-.01.01-.01.36-.26.71-.52,1.07-.77-.16-.07-.32-.15-.49-.23ZM69.42,101.68s-.01-.01-.02-.01c-.02,0-.04-.01-.06-.01.7.2,1,1.01.6,1.63.02-.04.05-.07.07-.11.37-.57.08-1.34-.59-1.5ZM156.11,86.66l-.26.08-.28.09-.42.18c-.17.08-.33.15-.49.23.36.25.71.51,1.07.77.03.02.05.04.08.06.44.33.87.66,1.31,1.01.11.09.23.18.34.27-.37-.92-.82-1.81-1.35-2.69ZM84.81,87.01c-.17-.08-.33-.15-.51-.22l-.19-.06-.25-.08c-.53.88-.98,1.78-1.36,2.7.11-.09.22-.17.33-.26.41-.33.82-.64,1.23-.95.01-.01.03-.02.04-.03.04-.03.08-.06.12-.09.01,0,.01-.01.01-.01.36-.26.71-.52,1.07-.77-.16-.07-.32-.15-.49-.23ZM69.42,101.68s-.01-.01-.02-.01c-.02,0-.04-.01-.06-.01.7.2,1,1.01.6,1.63.02-.04.05-.07.07-.11.37-.57.08-1.34-.59-1.5ZM156.11,86.66l-.26.08-.28.09-.42.18c-.17.08-.33.15-.49.23.36.25.71.51,1.07.77.03.02.05.04.08.06.44.33.87.66,1.31,1.01.11.09.23.18.34.27-.37-.92-.82-1.81-1.35-2.69ZM98.1,215.56c.12.02.25.03.37.05.07.01.15.02.22.03h.01c-.2-.03-.4-.06-.6-.08ZM84.81,87.01c-.17-.08-.33-.15-.51-.22l-.19-.06-.25-.08c-.53.88-.98,1.78-1.36,2.7.11-.09.22-.17.33-.26.41-.33.82-.64,1.23-.95.01-.01.03-.02.04-.03.04-.03.08-.06.12-.09.01,0,.01-.01.01-.01.36-.26.71-.52,1.07-.77-.16-.07-.32-.15-.49-.23ZM69.42,101.68s-.01-.01-.02-.01c-.02,0-.04-.01-.06-.01.7.2,1,1.01.6,1.63.02-.04.05-.07.07-.11.37-.57.08-1.34-.59-1.5ZM156.11,86.66l-.26.08-.28.09-.42.18c-.17.08-.33.15-.49.23.36.25.71.51,1.07.77.03.02.05.04.08.06.44.33.87.66,1.31,1.01.11.09.23.18.34.27-.37-.92-.82-1.81-1.35-2.69ZM84.81,87.01c-.17-.08-.33-.15-.51-.22l-.19-.06-.25-.08c-.53.88-.98,1.78-1.36,2.7.11-.09.22-.17.33-.26.41-.33.82-.64,1.23-.95.01-.01.03-.02.04-.03.04-.03.08-.06.12-.09.01,0,.01-.01.01-.01.36-.26.71-.52,1.07-.77-.16-.07-.32-.15-.49-.23ZM69.42,101.68s-.01-.01-.02-.01c-.02,0-.04-.01-.06-.01.7.2,1,1.01.6,1.63.02-.04.05-.07.07-.11.37-.57.08-1.34-.59-1.5ZM156.11,86.66l-.26.08-.28.09-.42.18c-.17.08-.33.15-.49.23.36.25.71.51,1.07.77.03.02.05.04.08.06.44.33.87.66,1.31,1.01.11.09.23.18.34.27-.37-.92-.82-1.81-1.35-2.69ZM84.81,87.01c-.17-.08-.33-.15-.51-.22l-.19-.06-.25-.08c-.53.88-.98,1.78-1.36,2.7.11-.09.22-.17.33-.26.41-.33.82-.64,1.23-.95.01-.01.03-.02.04-.03.04-.03.08-.06.12-.09.01,0,.01-.01.01-.01.36-.26.71-.52,1.07-.77-.16-.07-.32-.15-.49-.23ZM69.42,101.68s-.01-.01-.02-.01c-.02,0-.04-.01-.06-.01.7.2,1,1.01.6,1.63.02-.04.05-.07.07-.11.37-.57.08-1.34-.59-1.5ZM156.11,86.66l-.26.08-.28.09-.42.18c-.17.08-.33.15-.49.23.36.25.71.51,1.07.77.03.02.05.04.08.06.44.33.87.66,1.31,1.01.11.09.23.18.34.27-.37-.92-.82-1.81-1.35-2.69ZM84.81,87.01c-.17-.08-.33-.15-.51-.22l-.19-.06-.25-.08c-.53.88-.98,1.78-1.36,2.7.11-.09.22-.17.33-.26.41-.33.82-.64,1.23-.95.01-.01.03-.02.04-.03.04-.03.08-.06.12-.09.01,0,.01-.01.01-.01.36-.26.71-.52,1.07-.77-.16-.07-.32-.15-.49-.23ZM69.42,101.68s-.01-.01-.02-.01c-.02,0-.04-.01-.06-.01.7.2,1,1.01.6,1.63.02-.04.05-.07.07-.11.37-.57.08-1.34-.59-1.5ZM156.11,86.66l-.26.08-.28.09-.42.18c-.17.08-.33.15-.49.23.36.25.71.51,1.07.77.03.02.05.04.08.06.44.33.87.66,1.31,1.01.11.09.23.18.34.27-.37-.92-.82-1.81-1.35-2.69ZM84.81,87.01c-.17-.08-.33-.15-.51-.22l-.19-.06-.25-.08c-.53.88-.98,1.78-1.36,2.7.11-.09.22-.17.33-.26.41-.33.82-.64,1.23-.95.01-.01.03-.02.04-.03.04-.03.08-.06.12-.09.01,0,.01-.01.01-.01.36-.26.71-.52,1.07-.77-.16-.07-.32-.15-.49-.23ZM69.42,101.68s-.01-.01-.02-.01c-.02,0-.04-.01-.06-.01.7.2,1,1.01.6,1.63.02-.04.05-.07.07-.11.37-.57.08-1.34-.59-1.5ZM156.11,86.66l-.26.08-.28.09-.42.18c-.17.08-.33.15-.49.23.36.25.71.51,1.07.77.03.02.05.04.08.06.44.33.87.66,1.31,1.01.11.09.23.18.34.27-.37-.92-.82-1.81-1.35-2.69ZM84.81,87.01c-.17-.08-.33-.15-.51-.22l-.19-.06-.25-.08c-.53.88-.98,1.78-1.36,2.7.11-.09.22-.17.33-.26.41-.33.82-.64,1.23-.95.01-.01.03-.02.04-.03.04-.03.08-.06.12-.09.01,0,.01-.01.01-.01.36-.26.71-.52,1.07-.77-.16-.07-.32-.15-.49-.23ZM69.42,101.68s-.01-.01-.02-.01c-.02,0-.04-.01-.06-.01.7.2,1,1.01.6,1.63.02-.04.05-.07.07-.11.37-.57.08-1.34-.59-1.5ZM156.11,86.66l-.26.08-.28.09-.42.18c-.17.08-.33.15-.49.23.36.25.71.51,1.07.77.03.02.05.04.08.06.44.33.87.66,1.31,1.01.11.09.23.18.34.27-.37-.92-.82-1.81-1.35-2.69ZM84.81,87.01c-.17-.08-.33-.15-.51-.22l-.19-.06-.25-.08c-.53.88-.98,1.78-1.36,2.7.11-.09.22-.17.33-.26.41-.33.82-.64,1.23-.95.01-.01.03-.02.04-.03.04-.03.08-.06.12-.09.01,0,.01-.01.01-.01.36-.26.71-.52,1.07-.77-.16-.07-.32-.15-.49-.23ZM69.42,101.68s-.01-.01-.02-.01c-.02,0-.04-.01-.06-.01.7.2,1,1.01.6,1.63.02-.04.05-.07.07-.11.37-.57.08-1.34-.59-1.5ZM156.11,86.66l.82-.25c-.62-.45-1.23-.9-1.85-1.32h0s-.08-.06-.12-.08h-.01s-.04-.04-.06-.05c-.2-.14-.41-.28-.61-.41-.68-.45-1.35-.87-2.03-1.28-1.04-.63-2.08-1.22-3.11-1.76-5.58-2.96-11.03-4.75-15.67-5.84-7.56-1.78-13.01-1.69-13.45-1.68-.48-.01-5.94-.1-13.51,1.68-4.65,1.09-10.1,2.88-15.67,5.84-1.04.54-2.07,1.13-3.11,1.76-.68.41-1.37.84-2.05,1.29-.2.13-.39.27-.59.4-.06.04-.11.08-.17.12h-.02c-.63.42-1.23.87-1.85,1.32l.82.25c-.53.88-.98,1.78-1.36,2.7.11-.09.22-.17.33-.26.41-.33.82-.64,1.23-.95.01-.01.03-.02.04-.03.04-.03.08-.06.12-.09.01,0,.01-.01.01-.01.36-.26.71-.52,1.07-.77.62-.44,1.23-.86,1.85-1.25,1.47-.96,2.94-1.83,4.4-2.61,3.24-1.73,6.43-3.06,9.44-4.08h.01c.29-.1.57-.19.86-.28.5-.16.99-.31,1.48-.46.1-.03.2-.06.3-.09.5-.14.99-.28,1.47-.4.39-.1.79-.2,1.17-.3.88-.22,1.73-.41,2.55-.57.82-.17,1.61-.32,2.36-.44.35-.06.7-.11,1.04-.16.84-.13,1.62-.23,2.34-.3.18-.02.36-.04.53-.06.52-.05,1.01-.09,1.45-.12.19-.02.38-.03.55-.04.16-.01.31-.02.45-.03.11,0,.21-.01.31-.01,1.23-.06,1.98-.05,2.15-.05.15-.01.84-.02,1.97.03.13,0,.27.01.41.02.15.01.31.02.48.03.04,0,.08,0,.12.01.16.01.32.02.49.03.39.03.82.07,1.27.11.27.03.56.06.86.09.29.04.59.07.9.11.31.04.63.09.95.13.11.01.22.03.33.05.37.05.74.11,1.13.18.58.09,1.19.2,1.81.33.43.08.87.17,1.31.27.45.1.9.2,1.37.31.46.11.93.23,1.41.36.53.14,1.06.28,1.6.44.81.24,1.64.5,2.49.78l.05.02c3.01,1.02,6.21,2.35,9.45,4.09,1.47.78,2.94,1.65,4.4,2.6.62.4,1.24.82,1.85,1.26.36.25.71.51,1.07.77.03.02.05.04.08.06.44.33.87.66,1.31,1.01.11.09.23.18.34.27-.37-.92-.82-1.81-1.35-2.69Z"/>
        <path class="cls-9" d="M221.55,299.62c-.47,0-.93.03-1.35.06-6.07.13-25.8-.38-40.83-11.83,1.96-8.58,1.14-17.89-.85-26.57l12.88,9.45c1.24.92,2.69,1.36,4.13,1.36,2.16,0,4.28-.99,5.65-2.86l11.04-15.02c1.1-1.51,1.55-3.36,1.27-5.21-.28-1.85-1.27-3.47-2.77-4.58l-27.7-20.33c.68-1.64.98-3.39.9-5.21-.31-6.65-5.21-10.64-8.44-12.1,9.24-6.49,12.3-14.59,13.62-21.58,2.36-12.5-2.65-20.29-3.84-21.93.69-19.91-1.94-36.77-7.84-50.39-.71.08-1.41.15-2.09.2,5.99,13.53,8.65,30.41,7.92,50.48v.37s.22.29.22.29c.06.08,6.1,7.68,3.66,20.61-1.35,7.14-4.64,15.51-15.26,21.88-2.29,1.09-8.72,3.97-17.58,6.31-.4.11-.81.21-1.22.32-.41.1-.83.21-1.26.31-3.08.74-6.42,1.4-9.95,1.91-6.35.75-13.6,1.17-21.88,1.17-6.97,0-13.22-.3-18.8-.84l.76-.82c2.18-2.35,2.12-5.99-.12-8.27l-10.44-10.66-3.61-3.69c-2.19-2.24-5.66-2.43-8.07-.46-.75.62-1.64,1.32-2.67,2.14-1.79,1.42-4.04,3.21-6.74,5.45-1.7,1.42-3.58,3.02-5.63,4.83-7.93-6.01-10.64-13.27-11.83-19.58-2.43-12.87,3.6-20.53,3.66-20.61l.23-.29v-.37c-.74-20.07,1.92-36.95,7.91-50.48.3-.67.61-1.34.93-1.99.28-.61.59-1.2.89-1.79,0-.01,0-.03.02-.04.09-.19.19-.37.29-.56.28-.55.58-1.09.88-1.62.02-.04.04-.07.06-.11.3-.53.61-1.06.92-1.58.06-.11.13-.21.19-.32.06-.09.12-.19.18-.29.04-.06.08-.13.12-.19.07-.12.14-.24.22-.35.07-.11.14-.23.22-.34.03-.05.06-.11.1-.16.01-.02.02-.03.03-.05.02-.04.04-.08.07-.12.06-.08.11-.16.16-.24.01-.01.02-.03.03-.04.4-.62.1-1.43-.6-1.63h-.01c-.39-.07-.78.09-1,.43-1.82,2.77-3.46,5.71-4.91,8.84-.31-.03-.62-.06-.93-.11-.31-.03-.63-.08-.96-.13-.24-.04-.49-.08-.74-.12-.43-.07-.86-.15-1.3-.25-.26-.05-.51-.11-.77-.17-.91-.2-1.84-.44-2.78-.74-.35-.1-.71-.22-1.06-.34-.36-.12-.71-.24-1.07-.38-.72-.27-1.44-.56-2.17-.88-14.34-6.35-19.3-23.84-17.65-29.85.27-.96.68-1.74,1.27-2.36.05-.06.11-.12.17-.18,1.4-1.38,3.44-1.67,4.96-1.67,1.18,0,2.04.18,2.05.18l40.44,12.42c.03-.08.08-.15.12-.22.28-.47.61-.97,1-1.52l-41.05-12.62c-.23-.05-5.63-1.22-8.92,1.99-.92.9-1.58,2.06-1.96,3.45-2.02,7.32,3.73,25.55,18.77,32.2,4.14,1.84,8.11,2.81,11.7,3.25-5.9,13.62-8.53,30.48-7.84,50.39-1.19,1.64-6.2,9.43-3.84,21.93,1.25,6.63,4.07,14.27,12.26,20.57-2.59,2.31-5.42,4.93-8.48,7.9-14.23,13.75-8.75,26.83-4.22,33.4,2.65,3.83,6.36,6.51,10.45,7.56.74.19,1.49.32,2.23.4-4.49,15-6.4,33.27,3.82,46.44v1.66c0,3.42,2.79,6.21,6.21,6.21h1.87c.59,5.23,1.8,13.82,3.98,21.18,2.9,9.79,6.73,14.76,11.37,14.76h17.24c1.24,0,7.55-.72,9.99-14.87.6-3.49.91-7.56.95-12.13h2.9c.04,4.56.35,8.64.95,12.13,2.44,14.15,8.75,14.87,9.99,14.87h17.24c4.64,0,8.47-4.97,11.37-14.76,1.97-6.64,3.15-14.29,3.79-19.56l4.8,7.08s.04.05.06.08c2.19,3.57,6.14,5.9,10.59,6.27,3.3.27,6.04-1.56,7.24-2.52,1.96,1.4,7.42,5.22,8.93,5.8.03.01.06.02.1.03,2.4,1.09,5.12,1.67,7.87,1.67,5.76,0,10.43-1.9,12.94-5.23,1.39.31,2.82.46,4.25.46,8.72,0,15.81-5.6,15.81-12.49s-7.09-12.49-15.81-12.49ZM119.98,218.73c3.11,0,6.08-.06,8.92-.17-5.18,1.89-7.74,4.02-8.92,5.31-1.18-1.29-3.74-3.42-8.92-5.31,2.84.11,5.81.17,8.92.17ZM68.41,300.13c-9.62-12.53-7.55-30.38-3.11-45.02.1-.34.21-.68.32-1.02.1-.35.21-.69.33-1.03-.37.04-.74.06-1.12.06-.37.01-.75-.01-1.13-.05-.77-.05-1.56-.18-2.34-.38-3.62-.92-6.92-3.32-9.29-6.76-4.17-6.05-9.21-18.1,3.96-30.82.4-.39.8-.77,1.19-1.15,2.72-2.59,5.24-4.91,7.56-6.98.22-.2.43-.39.64-.58h.01c.31-.27.61-.54.91-.81,2.06-1.8,3.93-3.39,5.63-4.8.2-.17.4-.34.6-.5,2.24-1.85,4.15-3.36,5.7-4.59,1.04-.83,1.94-1.54,2.69-2.16,1.61-1.32,3.92-1.18,5.39.31l3.48,3.56,10.56,10.79c1.5,1.52,1.53,3.94.08,5.51l-1.77,1.92h-.01s-1.65,1.79-1.65,1.79l-.02.02-4.04,4.37-9.48,10.26-1.83,1.98-.24.26c-.37.41-.35,1.04.06,1.41.02.02.04.04.06.05.4.33.99.28,1.35-.1l1.47-1.59,21.17.25c-.98,2.48-2.54,7.93-1.07,14.64-.96.62-1.59,1.7-1.59,2.93,0,1.93,1.57,3.5,3.5,3.5s3.5-1.57,3.5-3.5-1.5-3.43-3.37-3.49c-.04,0-.08,0-.12,0-1.07-5.1-.24-9.42.56-12,.41-1.35.83-2.22.95-2.48.01-.01.01-.02.02-.03.1-.15.16-.33.16-.52s-.05-.37-.14-.53c-.17-.29-.49-.48-.85-.49l-20.89-.25,13.25-14.33c16.29,2.5,19.58,8.08,19.64,8.2.01.01.02.03.03.04,0,0,.01,0,.01.01.09.15.22.27.39.36.08.04.15.07.23.09.17.04.35.03.51-.02.07-.01.14-.04.2-.08.03-.01.06-.03.08-.06.05-.02.1-.06.14-.11.02-.01.04-.03.05-.05.04-.04.07-.08.1-.13.01-.01.02-.03.03-.05,0,0,.01,0,.01-.02.26-.41,3.99-6.04,20.89-8.36l.18-.03s.08-.01.12-.01c.99-.14,1.97-.29,2.93-.46.53-.09,1.05-.18,1.57-.28,1.56-.28,3.07-.6,4.53-.94.46-.1.92-.21,1.37-.32.5-.12.99-.24,1.48-.37.39-.1.77-.2,1.15-.3.39-.1.77-.21,1.15-.32.29-.08.58-.16.87-.25,1.15-.33,2.25-.66,3.3-1,2.07-.66,3.94-1.32,5.59-1.95.23-.09.46-.18.68-.26,1.43-.55,2.67-1.07,3.69-1.51.26-.12.51-.22.74-.33h.01c.21-.1.41-.19.6-.28.33-.15.62-.28.87-.4.12-.05.23-.11.33-.16.03-.01.06-.03.09-.04h0c.18-.09.31-.16.42-.21,1.68.34,8.15,3.56,8.48,10.81.01.17.01.33.01.5,0,.29-.01.57-.04.85-.02.27-.05.53-.09.79-.06.36-.14.72-.24,1.07-.06.23-.13.45-.21.67-.05.16-.11.31-.18.47-.06.16-.13.31-.2.46-.07.16-.15.31-.23.46s-.16.3-.25.45c-.28.48-.59.94-.96,1.39-.11.15-.23.28-.35.42-.11.14-.24.27-.37.41-2.76,2.89-7.08,4.75-11.47,5.01-.34.02-.69.03-1.03.03h-1.25s-15.25.19-15.25.19l-2.01.02-14.93.18c-.36.01-.68.2-.85.49-.09.16-.14.34-.14.53,0,.13.03.25.08.37,0,.01.01.02.01.03.02.03.04.06.06.09h-.02c.06.13.52,1.04.98,2.54.8,2.58,1.63,6.9.56,12-.04,0-.08,0-.12,0-1.87.06-3.37,1.59-3.37,3.49s1.57,3.5,3.5,3.5,3.5-1.57,3.5-3.5c0-1.23-.63-2.31-1.59-2.93,1.47-6.71-.09-12.16-1.07-14.64l13.74-.16,2.06-.02,15.83-.19h.07c.41,0,.79-.01,1.12-.03.46-.02.83-.04,1.11-.07.04,0,.07-.01.1-.01.15-.02.26-.03.33-.04,4.42-.56,8.68-2.56,11.5-5.51.72-.76,1.34-1.56,1.85-2.4l19.61,14.39,7.81,5.74c2.23,1.64,2.71,4.77,1.07,6.99l-11.03,15.03c-1.63,2.22-4.77,2.7-6.99,1.07l-7.82-5.74-6.99-5.13h0c-1.52-5.77-3.49-11.15-5.43-15.72h-2.26c1.48,3.49,3.01,7.5,4.34,11.81.19.61.38,1.23.56,1.85h0c.15.52.3,1.03.44,1.55.14.51.28,1.03.42,1.56h0c.06.23.12.45.17.67.12.51.25,1.03.37,1.55h0c.13.53.24,1.05.35,1.58.23,1.05.43,2.11.62,3.18.09.53.18,1.07.26,1.6.05.34.1.69.15,1.04.08.56.15,1.13.21,1.69.03.25.06.51.09.77.04.44.08.88.12,1.32.03.35.05.69.07,1.03.01.11.02.22.02.33.02.33.04.66.05,1,.06,1.25.08,2.51.04,3.76,0,.25-.01.51-.02.76-.02.48-.05.96-.08,1.44-.04.59-.09,1.18-.16,1.77-.03.31-.07.61-.11.92-.03.34-.08.67-.14.99-.08.57-.18,1.13-.29,1.69l-.03.18c-.05.27-.11.55-.18.82-.01.04-.02.07-.03.11-.07.36-.15.72-.25,1.08h0c-.02.06-.03.12-.05.17-.1.41-.22.82-.34,1.22-.04.13-.07.26-.12.39-.08.29-.18.58-.29.87-.09.29-.19.58-.3.86-.05.15-.11.3-.17.45-.11.29-.23.57-.34.85-.13.3-.26.6-.41.9-.15.35-.31.69-.48,1.02-.17.35-.35.69-.54,1.02-.2.37-.41.74-.63,1.1-.07.11-.14.22-.21.33-.23.38-.48.76-.74,1.13-.28.42-.59.83-.9,1.24h-103.14ZM162.65,311.81c-.08.62-.16,1.26-.26,1.93-.06.44-.13.88-.2,1.34-.16,1.15-.35,2.35-.57,3.58-.11.61-.22,1.24-.34,1.87-.11.62-.24,1.25-.37,1.89-.13.63-.26,1.27-.41,1.91-.11.51-.23,1.02-.35,1.53-.04.16-.08.33-.12.5-.14.59-.29,1.17-.45,1.75-.17.63-.34,1.24-.52,1.85-.03.09-.06.18-.09.28-1.8,6.01-4.88,13.04-9.36,13.04h-17.24c-.23,0-5.72-.15-7.98-13.04-.01-.05-.02-.11-.03-.17-.58-3.38-.89-7.34-.93-11.79h8.01c.56,0,1-.45,1-1s-.44-1-1-1h-23.48c-.56,0-1,.45-1,1s.44,1,1,1h8.57c-.04,4.45-.35,8.41-.93,11.79-.01.06-.02.12-.03.17-2.26,12.89-7.75,13.04-7.98,13.04h-17.24c-4.48,0-7.56-7.03-9.36-13.04-.03-.1-.06-.19-.09-.28-.18-.61-.35-1.22-.52-1.85-.16-.58-.31-1.16-.45-1.75-.04-.17-.08-.34-.12-.5-.12-.51-.24-1.02-.35-1.53-.15-.64-.28-1.28-.41-1.91-.13-.64-.26-1.27-.37-1.89-.12-.63-.23-1.26-.34-1.87-.22-1.23-.41-2.43-.57-3.58-.07-.46-.14-.9-.2-1.34-.1-.67-.18-1.31-.26-1.93-.11-.89-.21-1.71-.3-2.47h85.94c-.09.76-.19,1.58-.3,2.47ZM73.13,307.34c-2.32,0-4.21-1.89-4.21-4.21v-1h91.05l-.03-.05c.06.02.13.03.19.05h10.91v1c0,2.32-1.89,4.21-4.21,4.21h-93.7ZM221.55,322.6c-1.11,0-2.22-.1-3.31-.32.47-1.46.99-4.07-.1-6.8-1.23-3.06-4.09-5.37-8.52-6.88-.53-.17-1.1.1-1.27.63-.18.52.1,1.09.62,1.27,3.84,1.3,6.3,3.22,7.3,5.7,1.17,2.89,0,5.73-.24,6.26-.01.03-.02.05-.03.06-.01.02-.02.03-.02.03-2.03,3.06-6.27,4.82-11.62,4.82-2.5,0-4.97-.53-7.13-1.53-.05-.02-.09-.03-.14-.05-.01,0-.02,0-.04,0-1.15-.48-5.35-3.35-8.26-5.41.69-1.11,1.65-3.16,1.42-5.78-.29-3.2-2.22-6.23-5.74-9.03-.44-.34-1.06-.27-1.41.17-.34.43-.27,1.06.17,1.4,3.06,2.43,4.74,4.99,4.98,7.6.26,2.85-1.32,4.91-1.54,5.18-.01.02-.02.03-.02.03-.4.36-3.11,2.71-6.27,2.45-3.86-.31-7.27-2.34-9.11-5.43-.03-.05-.08-.11-.12-.16l-5.07-7.46h.75c3.42,0,6.21-2.79,6.21-6.21v-1.66c2.74-3.53,4.61-7.43,5.79-11.53,15.4,11.36,35.27,11.88,41.46,11.73.42-.03.83-.05,1.26-.05,7.61,0,13.81,4.71,13.81,10.49s-6.2,10.49-13.81,10.49Z"/>
        <path class="cls-5" d="M171.04,302.13v1c0,2.32-1.89,4.21-4.21,4.21h-93.7c-2.32,0-4.21-1.89-4.21-4.21v-1h102.12Z"/>
        <path class="cls-2" d="M177.77,258.25h0c-1.52-5.77-3.49-11.15-5.43-15.72h-2.26c1.48,3.49,3.01,7.5,4.34,11.81.19.61.38,1.23.56,1.85h0c.15.52.3,1.03.44,1.55.14.51.28,1.03.42,1.56h0c.06.23.12.45.17.67.12.51.25,1.03.37,1.55h0c.13.53.24,1.05.35,1.58.23,1.05.43,2.11.62,3.18.09.53.18,1.07.26,1.6.05.34.1.69.15,1.04.08.56.15,1.13.21,1.69.03.25.06.51.09.77.04.44.08.88.12,1.32.03.35.05.69.07,1.03.01.11.02.22.02.33.02.33.04.66.05,1,.06,1.25.08,2.51.04,3.76,0,.25-.01.51-.02.76-.02.48-.05.96-.08,1.44-.04.59-.09,1.18-.16,1.77-.03.31-.07.61-.11.92-.03.34-.08.67-.14.99-.08.57-.18,1.13-.29,1.69l-.03.18c-.05.27-.11.55-.18.82-.01.04-.02.07-.03.11-.07.36-.15.72-.25,1.08h0c-.02.06-.03.12-.05.17-.1.41-.22.82-.34,1.22-.04.13-.07.26-.12.39-.08.29-.18.58-.29.87-.09.29-.19.58-.3.86-.05.15-.11.3-.17.45-.11.29-.23.57-.34.85-.13.3-.26.6-.41.9-.15.35-.31.69-.48,1.02-.17.35-.35.69-.54,1.02-.2.37-.41.74-.63,1.1-.07.11-.14.22-.21.33-.23.38-.48.76-.74,1.13-.28.42-.59.83-.9,1.24h-103.14c-9.62-12.53-7.55-30.38-3.11-45.02.62-.02,1.22-.08,1.82-.18.55-.09.92-.61.83-1.15-.05-.25-.18-.47-.36-.62-.22-.17-.5-.25-.79-.21-.28.05-.56.09-.85.11-.37.04-.74.06-1.12.06-.37.01-.75-.01-1.13-.05-.77-.05-1.56-.18-2.34-.38-3.62-.92-6.92-3.32-9.29-6.76-4.17-6.05-9.21-18.1,3.96-30.82.4-.39.8-.77,1.19-1.15,2.72-2.59,5.24-4.91,7.56-6.98.22-.2.43-.39.64-.58h.01c.31-.27.61-.54.91-.81,2.06-1.8,3.93-3.39,5.63-4.8l11.67,11.67.63.63,1.26,1.26,1.4,1.4,6.05,6.06-9.48,10.26-1.83,1.98-.24.26c-.37.41-.35,1.04.06,1.41.02.02.04.04.06.05.4.33.99.28,1.35-.1l1.47-1.59,21.17.25c-.98,2.48-2.54,7.93-1.07,14.64-.96.62-1.59,1.7-1.59,2.93,0,1.93,1.57,3.5,3.5,3.5s3.5-1.57,3.5-3.5-1.5-3.43-3.37-3.49c-.04,0-.08,0-.12,0-1.07-5.1-.24-9.42.56-12,.41-1.35.83-2.22.95-2.48.01-.01.01-.02.02-.03.1-.15.16-.33.16-.52s-.05-.37-.14-.53c-.17-.29-.49-.48-.85-.49l-20.89-.25,13.25-14.33c16.29,2.5,19.58,8.08,19.64,8.2.01.01.02.03.03.04,0,0,.01,0,.01.01.09.17.23.29.39.36.08.04.15.07.23.09.17.04.35.03.51-.02.07-.01.14-.04.2-.08.03-.01.06-.03.08-.06.05-.02.1-.06.14-.11.02-.01.04-.03.05-.05.04-.04.08-.09.11-.13.01-.02.01-.03.02-.05,0,0,.01,0,.01-.02.26-.41,3.99-6.04,20.89-8.36.1-.01.2-.03.3-.04.99-.14,1.97-.29,2.93-.46.53-.09,1.05-.18,1.57-.28,1.56-.28,3.07-.6,4.53-.94.46-.1.92-.21,1.37-.32.5-.12.99-.24,1.48-.37.39-.1.77-.2,1.15-.3.39-.1.77-.21,1.15-.32.29-.08.58-.16.87-.25,1.15-.33,2.25-.66,3.3-1,2.07-.66,3.94-1.32,5.59-1.95.23-.09.46-.18.68-.26,1.43-.55,2.67-1.07,3.69-1.51.26-.12.51-.22.74-.33h.01c.21-.1.41-.19.6-.28.33-.15.62-.28.87-.4.12-.05.23-.11.33-.16.03-.01.06-.03.09-.04h0c.18-.09.31-.16.42-.21,1.68.34,8.15,3.56,8.48,10.81.01.17.01.33.01.5,0,.29-.01.57-.04.85-.02.27-.05.53-.09.79-.06.36-.14.72-.24,1.07-.06.23-.13.45-.21.67-.05.16-.11.31-.18.47-.06.16-.13.31-.2.46-.07.16-.15.31-.23.46s-.16.3-.25.45c-.28.48-.59.94-.96,1.39-.11.15-.23.28-.35.42-.11.14-.24.27-.37.41-2.76,2.89-7.08,4.75-11.47,5.01-.34.02-.69.03-1.03.03h-1.25s-15.25.19-15.25.19l-2.01.02-14.93.18c-.36.01-.68.2-.85.49-.09.16-.14.34-.14.53,0,.13.03.25.08.37,0,.01.01.02.01.03,0,.02.02.04.03.07,0,0,0,0,.01,0,.06.14.52,1.05.98,2.55.8,2.58,1.63,6.9.56,12-.04,0-.08,0-.12,0-1.87.06-3.37,1.59-3.37,3.49s1.57,3.5,3.5,3.5,3.5-1.57,3.5-3.5c0-1.23-.63-2.31-1.59-2.93,1.47-6.71-.09-12.16-1.07-14.64l13.74-.16,2.06-.02,15.83-.19h.07c.41,0,.79-.01,1.12-.03.46-.02.83-.04,1.11-.07.04,0,.07-.01.1-.01.15-.02.26-.03.33-.04,4.42-.56,8.68-2.56,11.5-5.51.72-.76,1.34-1.56,1.85-2.4l19.61,14.39-16.96,23.09-6.99-5.13Z"/>
        <path class="cls-10" d="M93.57,193.69c-.66.9-1.39,1.72-2.19,2.45l-3.61-3.69c-2.19-2.24-5.66-2.43-8.07-.46-.75.62-1.64,1.32-2.67,2.14-1.79,1.42-4.04,3.21-6.74,5.45-2.19-.8-4.33-1.93-6.34-3.41-9.98-7.32-12.89-20.31-6.5-29.01,6.39-8.69,19.65-9.81,29.62-2.48,9.98,7.32,12.89,20.31,6.5,29.01Z"/>
        <path class="cls-10" d="M97.5,158.53c0,3.27-2.48,5.93-5.55,5.93s-5.55-2.66-5.55-5.93,2.48-5.94,5.55-5.94,5.55,2.66,5.55,5.94Z"/>
        <path class="cls-10" d="M98.73,141.73c-.4,2.4-4.5,3.71-9.14,2.94-4.65-.77-8.1-3.35-7.7-5.75.4-2.4,4.49-3.71,9.14-2.94,4.65.77,8.1,3.35,7.7,5.75Z"/>
        <path class="cls-10" d="M129.92,184.3v6.89c0,5.48-4.46,9.94-9.94,9.94s-9.93-4.46-9.93-9.94v-6.89c0-5.48,4.45-9.94,9.93-9.94s9.94,4.46,9.94,9.94Z"/>
        <path class="cls-10" d="M153.56,158.53c0,3.27-2.48,5.93-5.55,5.93s-5.55-2.66-5.55-5.93,2.48-5.94,5.55-5.94,5.55,2.66,5.55,5.94Z"/>
        <path class="cls-10" d="M158.71,95.67v.1c0,.12,0,.23,0,.35,0,.11-.01.23-.01.34,0,.16,0,.33-.01.49-.12,2.24-.79,4.34-1.87,6.2-.19.33-.39.65-.61.96-.38.55-.81,1.08-1.27,1.58-2.85,3.1-7.08,5.06-11.8,5.06-2.99,0-5.78-.78-8.14-2.15-2.79,4.71-8.47,7.94-15.01,7.94s-12.23-3.23-15.01-7.94c-2.37,1.36-5.15,2.15-8.14,2.15-4.72,0-8.95-1.96-11.81-5.06-.46-.5-.89-1.03-1.27-1.58-.22-.31-.42-.63-.61-.96-1.08-1.86-1.75-3.96-1.87-6.2,0-.23-.02-.46-.02-.69v-.1c0-.13,0-.25.01-.38v-.11c0-.25,0-.5,0-.75.09-1.91.51-3.77,1.22-5.56,0,0,.01,0,.01-.01.11-.09.22-.17.33-.26.82-.65,1.64-1.27,2.47-1.85.62-.44,1.23-.86,1.85-1.25,1.47-.96,2.94-1.83,4.4-2.61,3.24-1.73,6.43-3.06,9.44-4.08h.02c.28-.1.57-.19.85-.28.5-.16.99-.31,1.48-.46.1-.03.2-.06.3-.09.5-.14.99-.28,1.47-.4.39-.1.79-.2,1.17-.3.88-.22,1.73-.4,2.55-.57.82-.17,1.61-.32,2.36-.44.35-.06.7-.11,1.04-.16.84-.13,1.62-.23,2.34-.3.18-.02.36-.04.53-.06.52-.05,1.01-.09,1.45-.12.19-.02.38-.03.55-.04.16-.01.31-.02.45-.03.11,0,.21-.01.31-.01,1.23-.06,1.98-.05,2.15-.05.15-.01.84-.02,1.97.03.13,0,.27.01.41.02.15.01.31.02.48.03.04,0,.08,0,.12.01.16.01.32.02.49.03.39.03.82.07,1.27.11.27.03.56.06.86.09.29.04.59.07.9.11.31.04.63.09.95.13.11.01.22.03.33.05.37.05.74.11,1.13.18.58.09,1.19.2,1.81.33.43.08.87.17,1.31.27.45.1.9.2,1.37.31.46.11.93.23,1.41.36.52.14,1.06.29,1.6.44.81.24,1.64.5,2.49.78l.05.02c3.01,1.02,6.21,2.35,9.45,4.09,1.47.78,2.94,1.65,4.4,2.6.62.4,1.24.82,1.85,1.26.82.58,1.64,1.19,2.46,1.84.11.09.23.18.34.27.72,1.79,1.14,3.65,1.23,5.57.01.25.02.5.02.75Z"/>
        <path class="cls-10" d="M150.37,144.67c-4.64.77-8.74-.54-9.14-2.94-.4-2.4,3.05-4.98,7.7-5.75,4.65-.77,8.74.54,9.14,2.94.4,2.4-3.05,4.98-7.7,5.75Z"/>
        <path class="cls-10" d="M176.01,196.17c-9.97,7.33-23.23,6.22-29.62-2.48-6.39-8.7-3.48-21.69,6.5-29.01,9.97-7.33,23.23-6.21,29.62,2.48,6.39,8.7,3.48,21.69-6.5,29.01Z"/>
      </g>
      <g>
        <path class="cls-13" d="M97.5,158.53c0,3.27-2.48,5.93-5.55,5.93s-5.55-2.66-5.55-5.93,2.48-5.94,5.55-5.94,5.55,2.66,5.55,5.94Z"/>
        <ellipse class="cls-10" cx="91.95" cy="156.32" rx="2.59" ry="2.21"/>
      </g>
      <path class="cls-11" d="M98.73,141.73c-.4,2.4-4.5,3.71-9.14,2.94-4.65-.77-8.1-3.35-7.7-5.75.4-2.4,4.49-3.71,9.14-2.94,4.65.77,8.1,3.35,7.7,5.75Z"/>
      <path class="cls-12" d="M93.57,193.69c-.66.9-1.39,1.72-2.19,2.45l-3.61-3.69c-2.19-2.24-5.66-2.43-8.07-.46-.75.62-1.64,1.32-2.67,2.14-1.79,1.42-4.04,3.21-6.74,5.45-2.19-.8-4.33-1.93-6.34-3.41-9.98-7.32-12.89-20.31-6.5-29.01,6.39-8.69,19.65-9.81,29.62-2.48,9.98,7.32,12.89,20.31,6.5,29.01Z"/>
      <g>
        <path class="cls-13" d="M153.56,158.53c0,3.27-2.48,5.93-5.55,5.93s-5.55-2.66-5.55-5.93,2.48-5.94,5.55-5.94,5.55,2.66,5.55,5.94Z"/>
        <ellipse class="cls-10" cx="148.01" cy="156.32" rx="2.59" ry="2.21"/>
      </g>
      <path class="cls-11" d="M150.37,144.67c-4.64.77-8.74-.54-9.14-2.94-.4-2.4,3.05-4.98,7.7-5.75,4.65-.77,8.74.54,9.14,2.94.4,2.4-3.05,4.98-7.7,5.75Z"/>
      <path class="cls-12" d="M176.01,196.17c-9.97,7.33-23.23,6.22-29.62-2.48-6.39-8.7-3.48-21.69,6.5-29.01,9.97-7.33,23.23-6.21,29.62,2.48,6.39,8.7,3.48,21.69-6.5,29.01Z"/>
      <path class="cls-11" d="M86.99,64.54l-.06-.15c.14.13.06.15.06.15Z"/>
      <path class="cls-11" d="M86.99,64.54l-.06-.15c.14.13.06.15.06.15Z"/>
      <g>
        <path class="cls-8" d="M114.3,43.58v3.51c0,8.32-6.75,15.06-15.07,15.06h-.85l-2.63-4.38v-.1s.01-.02.01-.03c.28-1.23.75-3.02,1.51-5.66,0,0,0-.01.01-.02,2.46-4.97,7.58-8.38,13.5-8.38h3.52Z"/>
        <path class="cls-8" d="M85.38,67.17l-.67.76c-5.47,6.27-14.99,6.93-21.26,1.46l-2.65-2.31,2.31-2.65c3.33-3.81,8.15-5.55,12.83-5.08,3.62,1.46,6.05,2.51,7.7,3.26.59,1.57,1.17,3.1,1.74,4.56Z"/>
        <path class="cls-8" d="M82.95,32.57l-1.83.83-4.01-6.67c-.92-6.46,2.47-13.02,8.72-15.84l3.21-1.45,1.44,3.2c3.43,7.59.05,16.51-7.53,19.93Z"/>
        <path class="cls-8" d="M73.79,36.7l-2.33,1.06c-7.59,3.42-16.51.05-19.93-7.53l-1.45-3.21,3.21-1.44c6.38-2.89,13.7-.95,17.89,4.25.86,2.26,1.73,4.56,2.61,6.87Z"/>
        <path class="cls-7" d="M197.75,45.66c-6.76-4.84-16.17-3.27-21.01,3.5l-.04.06c-.09.01-.18.02-.28.04l-15.53,1.33c1.73-4.55,3.52-9.24,5.28-13.89.88-2.31,1.75-4.61,2.61-6.87,1.01-2.67,2-5.28,2.95-7.8,7.99-2.32,12.6-10.66,10.29-18.65l-.98-3.38-3.37.98c-7.9,2.27-12.49,10.45-10.37,18.35l-4.45,7.4-4.01,6.67-7.75,12.92-9.39-13.95c-.08-.15-.17-.29-.28-.41l.05-.24c1.6-8.17-3.73-16.08-11.89-17.67l-3.45-.68-.68,3.45c-1.58,8.13,3.67,16,11.77,17.64,2.65,8.12,4.36,13.69,5.46,17.5.01,0,.01.02.01.02.76,2.64,1.23,4.43,1.51,5.66,0,.01,0,.02,0,.03,0,.02.01.05.02.07l-.02.03-2.63,4.38-5.81,9.68-.53.88-.25.41c-4.61-1.25-9.69-1.94-15.01-1.94s-10.4.69-15.01,1.94l-.25-.41-.53-.88-5.81-9.68-2.63-4.38-.02-.03s.02-.05.02-.07c0-.01.01-.02.01-.03.28-1.23.75-3.02,1.51-5.66,0,0,0-.01.01-.02,1.1-3.81,2.81-9.38,5.46-17.5,8.1-1.64,13.35-9.51,11.77-17.64l-.68-3.45-3.45.68c-8.16,1.59-13.49,9.5-11.89,17.67l.05.24c-.11.12-.2.26-.28.41l-9.39,13.95-7.75-12.92-4.01-6.67-4.45-7.4c2.12-7.9-2.47-16.08-10.37-18.35l-3.37-.98-.98,3.38c-2.31,7.99,2.3,16.33,10.29,18.65.95,2.52,1.94,5.13,2.95,7.8.86,2.26,1.73,4.56,2.61,6.87,1.76,4.65,3.55,9.34,5.28,13.89l-15.53-1.33c-.1-.02-.19-.03-.28-.04l-.04-.06c-4.84-6.77-14.25-8.34-21.01-3.5l-2.87,2.04,2.05,2.86c4.84,6.77,14.23,8.34,21,3.51,5.76,2.18,10.17,3.91,13.55,5.28,3.62,1.46,6.05,2.51,7.7,3.26.59,1.57,1.17,3.1,1.74,4.56,1.74,4.58,3.25,8.55,4.41,11.59.13.34.25.66.37.97.05.13.1.26.14.39-1.78,1.36-3.33,2.85-4.63,4.44-.13.16-.26.32-.38.49-.43.55-.82,1.11-1.18,1.68-.49.77-.92,1.56-1.28,2.36-.92,2.01-1.46,4.13-1.56,6.32,0,.09,0,.17,0,.26v.11c-.01.13-.01.25-.01.38v.1c0,.23.01.46.02.69.12,2.24.79,4.34,1.87,6.2.19.33.39.65.61.96.38.55.81,1.08,1.27,1.58,2.86,3.1,7.09,5.06,11.81,5.06,2.99,0,5.77-.79,8.14-2.15,2.78,4.71,8.46,7.94,15.01,7.94s12.22-3.23,15.01-7.94c2.36,1.37,5.15,2.15,8.14,2.15,4.72,0,8.95-1.96,11.8-5.06.46-.5.89-1.03,1.27-1.58.22-.31.42-.63.61-.96,1.08-1.86,1.75-3.96,1.87-6.2.01-.16.01-.33.01-.49,0-.11.01-.23.01-.34,0-.24-.01-.47-.02-.71-.1-2.19-.64-4.31-1.56-6.33-.36-.8-.79-1.58-1.27-2.34-.33-.53-.7-1.05-1.09-1.56-.01-.01-.02-.02-.03-.03-.02-.03-.04-.07-.07-.1-.12-.17-.25-.34-.39-.5-1.29-1.58-2.84-3.07-4.61-4.43.04-.13.09-.26.14-.39.12-.31.24-.63.37-.97,1.16-3.04,2.67-7.01,4.41-11.59.57-1.46,1.15-2.99,1.74-4.56,1.65-.75,4.08-1.8,7.7-3.26,3.38-1.37,7.79-3.1,13.55-5.28,6.77,4.83,16.16,3.26,21-3.51l2.05-2.86-2.87-2.04ZM86.99,64.54l-.06-.15c.14.13.06.15.06.15ZM152.97,64.54s-.08-.02.06-.15l-.06.15Z"/>
      </g>
      <g>
        <path class="cls-8" d="M144.21,57.67v.1l-2.63,4.38h-.85c-8.32,0-15.07-6.74-15.07-15.06v-3.51h3.52c5.92,0,11.04,3.41,13.5,8.38.01,0,.01.02.01.02.76,2.64,1.23,4.43,1.51,5.66,0,.01,0,.02,0,.03Z"/>
        <path class="cls-8" d="M179.16,67.08l-2.65,2.31c-6.27,5.47-15.79,4.81-21.26-1.46l-.67-.76c.57-1.46,1.15-2.99,1.74-4.56,1.65-.75,4.08-1.8,7.7-3.26,4.68-.47,9.5,1.27,12.83,5.08l2.31,2.65Z"/>
        <path class="cls-8" d="M162.85,26.73l-4.01,6.67-1.83-.83c-7.58-3.42-10.96-12.34-7.53-19.93l1.44-3.2,3.21,1.45c6.25,2.82,9.64,9.38,8.72,15.84Z"/>
        <path class="cls-8" d="M189.88,27.02l-1.45,3.21c-3.42,7.58-12.34,10.95-19.93,7.53l-2.33-1.06c.88-2.31,1.75-4.61,2.61-6.87,4.19-5.2,11.51-7.14,17.89-4.25l3.21,1.44Z"/>
      </g>
      <g>
        <path class="cls-9" d="M119.52,226.38c-.16-.07-.3-.19-.39-.36.09.15.22.27.39.36Z"/>
        <path class="cls-9" d="M120.86,225.97s-.01.03-.02.05c-.03.04-.07.09-.11.13.04-.04.07-.08.1-.13.01-.01.02-.03.03-.05Z"/>
      </g>
      <g>
        <path class="cls-10" d="M142.06,217.55c-.1.01-.2.03-.3.04l.18-.03s.08-.01.12-.01Z"/>
        <path class="cls-10" d="M120.86,225.97s-.01.03-.02.05h-.01s.02-.03.03-.05Z"/>
        <path class="cls-9" d="M131.97,233.77s.02.04.03.07c0,0,0,0,.01,0h.02s-.04-.05-.06-.08ZM131.97,233.77s.02.04.03.07c0,0,0,0,.01,0h.02s-.04-.05-.06-.08ZM159.94,302.08l.03.05h.16c-.06-.02-.13-.03-.19-.05ZM141.94,217.56l-.18.03c.1-.01.2-.03.3-.04-.04,0-.08.01-.12.01ZM131.97,233.77s.02.04.03.07c0,0,0,0,.01,0h.02s-.04-.05-.06-.08ZM131.97,233.77s.02.04.03.07c0,0,0,0,.01,0h.02s-.04-.05-.06-.08ZM141.94,217.56l-.18.03c.1-.01.2-.03.3-.04-.04,0-.08.01-.12.01ZM131.97,233.77s.02.04.03.07c0,0,0,0,.01,0h.02s-.04-.05-.06-.08Z"/>
      </g>
      <path class="cls-9" d="M159.69,94.87c-.09-1.99-.53-3.98-1.3-5.89-.36-.89-.78-1.75-1.29-2.62-.04-.07-.09-.15-.13-.22-.35-.57-.67-1.07-1-1.52-.02-.04-.05-.08-.08-.12l-.08-.1s-.03-.05-.05-.07c-.05-.07-.11-.15-.17-.22v-.02c-1.43-1.86-3.17-3.59-5.18-5.15-.08-.06-.16-.12-.24-.18-3.9-2.99-8.87-5.38-14.4-6.93-.09-.03-.17-.06-.26-.08-4.92-1.37-10.14-2.06-15.53-2.06s-10.61.69-15.53,2.06c-.09.02-.17.05-.26.08-5.52,1.54-10.5,3.94-14.4,6.93-.08.06-.16.12-.24.18-2.12,1.65-3.92,3.46-5.32,5.36h0s-.07.1-.07.1c-.01,0-.01,0-.01,0l-.07.09s-.05.08-.08.11c-.39.55-.72,1.05-1,1.52-.04.07-.09.14-.12.22-.39.65-.73,1.32-1.04,2.01l-.28.63c-.76,1.92-1.2,3.9-1.29,5.93v.75s0,.84,0,.84c.14,2.53.94,5.01,2.34,7.2l.07.1c.16.23.3.45.46.66.46.63.93,1.18,1.4,1.65,3.13,3.27,7.61,5.14,12.29,5.14,2.72,0,5.4-.63,7.79-1.83,3.22,4.72,9.01,7.62,15.36,7.62s12.15-2.89,15.36-7.62c2.37,1.2,5.04,1.83,7.8,1.83,4.68,0,9.16-1.87,12.28-5.13.51-.52.98-1.08,1.39-1.64.2-.26.38-.53.55-.8,1.39-2.17,2.19-4.65,2.33-7.23v-.26c.02-.14.02-.28.02-.43v-.1c0-.25,0-.5-.02-.8ZM104.99,73.67c4.74-1.31,9.78-1.98,14.99-1.98s10.25.67,14.99,1.98c5.5,1.52,10.42,3.89,14.22,6.85,1.11.86,2.13,1.78,3.05,2.75.64.67,1.23,1.36,1.77,2.07.05.07.11.14.16.21l.56-.4.21-.15.05-.03-.04.04-.19.17-.52.46.3.45h.02c.19.28.38.59.59.92.03.06.07.11.1.17.17.28.33.56.48.83h0c.31.58.57,1.13.8,1.71.69,1.71,1.08,3.47,1.16,5.27.01.23.02.45.02.68v.1c0,.09,0,.17,0,.35v.29c-.12,2.18-.82,4.32-2.02,6.2-.11.17-.22.34-.34.5-.04.07-.09.13-.14.19-.34.48-.72.93-1.15,1.37-.02.02-.04.05-.06.07-2.76,2.87-6.71,4.52-10.85,4.52-2.74,0-5.38-.7-7.64-2.01l-.85-.5-.51.85c-2.72,4.6-8.15,7.45-14.16,7.45s-11.43-2.85-14.15-7.45l-.5-.85-.86.49c-2.3,1.32-4.94,2.02-7.64,2.02-4.14,0-8.09-1.65-10.86-4.54l-.06-.06c-.4-.39-.77-.85-1.16-1.38-.04-.06-.09-.12-.12-.18-.1-.13-.2-.27-.29-.41l-.06-.08c-1.2-1.88-1.9-4.02-2.01-6.15v-.68s0-.81,0-.81c.07-1.55.38-3.1.92-4.62h.31v-.8c.22-.52.47-1.01.72-1.52h0s.01-.02.01-.02c.16-.29.32-.58.49-.86.03-.05.05-.09.09-.14.21-.36.47-.73.75-1.14l.14-.08.1-.25s.01,0,.01-.02c.04-.06.09-.11.13-.17.54-.71,1.13-1.41,1.78-2.08.91-.96,1.93-1.88,3.05-2.75,3.81-2.96,8.72-5.33,14.22-6.85Z"/>
      <g>
        <path class="cls-13" d="M127.92,187v4.19c0,4.38-3.56,7.94-7.94,7.94s-7.93-3.56-7.93-7.94v-4.19c2.45-.8,5.13-1.23,7.92-1.23s5.49.44,7.95,1.23Z"/>
        <path class="cls-13" d="M119.98,174.36c-5.48,0-9.93,4.46-9.93,9.94v6.89c0,5.48,4.45,9.94,9.93,9.94s9.94-4.46,9.94-9.94v-6.89c0-5.48-4.46-9.94-9.94-9.94ZM127.92,191.19c0,4.38-3.56,7.94-7.94,7.94s-7.93-3.56-7.93-7.94v-4.19c2.45-.8,5.13-1.23,7.92-1.23s5.49.44,7.95,1.23v4.19Z"/>
        <path class="cls-10" d="M169.92,102.13s.06-.1.1-.14c.05-.07.12-.13.19-.18t.01,0s.08-.05.13-.08h.02s.05-.02.07-.03c.02-.01.05-.01.07-.02,0,0,.03-.01.04-.01h.02c.23-.06.45-.11.67-.17,18.93-4.89,29.5-19.29,33.46-25.9-.05-.06-.11-.12-.17-.18-2.51-2.45-7.04-1.48-7.08-1.47l-40.35,12.41c.51.87.93,1.73,1.29,2.62.77,1.91,1.21,3.9,1.3,5.89.01.3.02.55.02.8v.1c0,.15,0,.29,0,.43v.26c-.15,2.58-.95,5.06-2.34,7.23-.17.27-.35.54-.55.8-.41.56-.88,1.12-1.39,1.64-3.12,3.26-7.6,5.13-12.28,5.13-2.76,0-5.43-.63-7.8-1.83-3.21,4.73-9,7.62-15.36,7.62s-12.14-2.9-15.36-7.62c-2.39,1.2-5.07,1.83-7.79,1.83-4.68,0-9.16-1.87-12.29-5.14-.47-.47-.94-1.02-1.4-1.65-.16-.21-.3-.43-.46-.66l-.07-.1c-1.4-2.19-2.2-4.67-2.34-7.2v-.84s0-.75,0-.75c.09-2.03.53-4.01,1.29-5.93l.28-.63c.31-.69.65-1.36,1.04-2.01l-40.44-12.42s-.87-.18-2.05-.18c-1.52,0-3.56.29-4.96,1.67-.06.06-.12.12-.17.18,3.96,6.61,14.53,21.01,33.46,25.9.19.05.39.1.58.15.01,0,.02,0,.03,0h.01s.04.01.06.01c.01,0,.02.01.02.01.67.16.96.93.59,1.5-.02.04-.05.07-.07.11-.01.01-.02.03-.03.04-.05.08-.1.16-.16.24-.03.04-.05.08-.07.12-.01.02-.02.03-.03.05-.04.05-.07.11-.1.16-.08.11-.15.23-.22.34-.08.11-.15.23-.22.35-.04.06-.08.13-.12.19-.06.1-.12.2-.18.29-.06.11-.13.21-.19.32-.31.52-.62,1.05-.92,1.58-.02.04-.04.07-.06.11-.3.53-.6,1.07-.88,1.62-.1.19-.2.37-.29.56-.01.01-.01.03-.02.04-.3.59-.61,1.18-.89,1.79-.32.65-.63,1.32-.93,1.99-5.99,13.53-8.65,30.41-7.92,50.48v.37s-.22.29-.22.29c-.06.08-6.09,7.74-3.66,20.61,1.19,6.31,3.9,13.57,11.83,19.58,2.05-1.81,3.93-3.41,5.63-4.83-2.19-.8-4.33-1.93-6.34-3.41-9.98-7.32-12.89-20.31-6.5-29.01,6.39-8.69,19.65-9.81,29.62-2.48,9.98,7.32,12.89,20.31,6.5,29.01-.66.9-1.39,1.72-2.19,2.45l10.44,10.66c2.24,2.28,2.3,5.92.12,8.27l-.76.82c5.58.54,11.83.84,18.8.84,8.28,0,15.53-.42,21.88-1.17,3.53-.51,6.87-1.17,9.95-1.91.43-.1.85-.21,1.26-.31.41-.11.82-.21,1.22-.32,8.86-2.34,15.29-5.22,17.58-6.31,10.62-6.37,13.91-14.74,15.26-21.88,2.44-12.93-3.6-20.53-3.66-20.61l-.23-.29v-.37c.74-20.07-1.92-36.95-7.91-50.48-.3-.67-.61-1.34-.93-1.99-.29-.61-.58-1.2-.89-1.79-.01-.01-.01-.03-.02-.04-.09-.19-.19-.37-.29-.56-.03-.05-.05-.1-.08-.15-.02-.04-.04-.07-.06-.11-.01-.02-.02-.04-.03-.05-.01-.03-.03-.06-.05-.09-.01-.03-.03-.06-.04-.08-.02-.04-.04-.08-.06-.12-.01,0-.01-.02-.02-.03-.07-.14-.14-.27-.21-.4-.05-.1-.1-.19-.16-.29-.06-.11-.13-.23-.19-.34-.07-.12-.13-.24-.21-.36-.15-.27-.3-.54-.47-.81-.21-.37-.43-.73-.65-1.09-.07-.12-.14-.23-.22-.35-.07-.11-.14-.22-.21-.33-.06-.11-.13-.22-.21-.33-.05-.08-.1-.16-.15-.24-.03-.04-.05-.08-.08-.12-.05-.08-.1-.15-.15-.23,0-.01-.01-.01-.01-.02-.04-.06-.07-.12-.09-.19-.03-.06-.04-.12-.05-.19-.03-.13-.02-.27.02-.4.02-.09.06-.17.1-.25ZM91.95,164.46c-3.07,0-5.55-2.66-5.55-5.93s2.48-5.94,5.55-5.94,5.55,2.66,5.55,5.94-2.48,5.93-5.55,5.93ZM98.73,141.73c-.4,2.4-4.5,3.71-9.14,2.94-4.65-.77-8.1-3.35-7.7-5.75.4-2.4,4.49-3.71,9.14-2.94,4.65.77,8.1,3.35,7.7,5.75ZM129.92,191.19c0,5.48-4.46,9.94-9.94,9.94s-9.93-4.46-9.93-9.94v-6.89c0-5.48,4.45-9.94,9.93-9.94s9.94,4.46,9.94,9.94v6.89ZM141.23,141.73c-.4-2.4,3.05-4.98,7.7-5.75,4.65-.77,8.74.54,9.14,2.94.4,2.4-3.05,4.98-7.7,5.75-4.64.77-8.74-.54-9.14-2.94ZM148.01,152.59c3.07,0,5.55,2.66,5.55,5.94s-2.48,5.93-5.55,5.93-5.55-2.66-5.55-5.93,2.48-5.94,5.55-5.94ZM182.51,167.16c6.39,8.7,3.48,21.69-6.5,29.01-9.97,7.33-23.23,6.22-29.62-2.48-6.39-8.7-3.48-21.69,6.5-29.01,9.97-7.33,23.23-6.21,29.62,2.48Z"/>
      </g>
      <rect class="cls-6" x="4.4" y="112.37" width="17.36" height="53.89" rx="6.01" ry="6.01" transform="translate(-22.7 4.04) rotate(-9.45)"/>
      <circle class="cls-6" cx="19.7" cy="179.06" r="8.68"/>
      <path class="cls-1" d="M127.92,187v4.19c0,4.38-3.56,7.94-7.94,7.94s-7.93-3.56-7.93-7.94v-4.19c2.45-.8,5.13-1.23,7.92-1.23s5.49.44,7.95,1.23Z"/>
      <path class="cls-9" d="M131.97,233.77s.02.04.03.07c0,0,0,0,.01,0h.02s-.04-.05-.06-.08Z"/>
      <g>
        <path class="cls-10" d="M98.7,215.63h-.01c-.07,0-.15-.01-.22-.02-.12-.02-.25-.03-.37-.05.2.02.4.05.6.07Z"/>
        <path class="cls-9" d="M67.95,253.78c.09.54-.28,1.06-.83,1.15-.6.1-1.2.16-1.82.18.1-.34.21-.68.32-1.02.1-.35.21-.69.33-1.03.29-.02.57-.06.85-.11.29-.04.57.04.79.21.18.15.31.37.36.62Z"/>
      </g>
      <path class="cls-11" d="M100.47,213.71l-1.77,1.92c-.2-.02-.4-.05-.6-.07.12.02.25.03.37.05.07.01.15.02.22.03l-1.65,1.78-.02.02-4.04,4.37-6.05-6.06-1.4-1.4-1.26-1.26-.63-.63-11.67-11.67c.2-.17.4-.34.6-.5,2.24-1.85,4.15-3.36,5.7-4.59,1.04-.83,1.94-1.54,2.69-2.16,1.61-1.32,3.92-1.18,5.39.31l3.48,3.56,10.56,10.79c1.5,1.52,1.53,3.94.08,5.51Z"/>
      <path class="cls-11" d="M98.7,215.63h-.01c-.07,0-.15-.01-.22-.02-.12-.02-.25-.03-.37-.05.2.02.4.05.6.07Z"/>
    </g>
  </g>
</svg>